{"accessors":[{"bufferView":0,"componentType":5123,"count":9207,"max":[1842],"min":[0],"type":"SCALAR"},{"bufferView":1,"componentType":5126,"count":1843,"max":[-0.2755690813064575,2.607421636581421,2.2775988578796387],"min":[-3.078240156173706,-0.4174351692199707,-0.29654407501220703],"type":"VEC3"},{"bufferView":2,"componentType":5126,"count":1843,"max":[0.9988486170768738,0.9986642599105835,0.9999932646751404],"min":[-0.9105110168457031,-0.9622376561164856,-0.9996753931045532],"type":"VEC3"},{"bufferView":3,"componentType":5126,"count":1843,"max":[0.9325839877128601,0.9912360003218055],"min":[0.028874000534415245,0.021996021270751953],"type":"VEC2"},{"bufferView":4,"componentType":5123,"count":23868,"max":[4494],"min":[0],"type":"SCALAR"},{"bufferView":5,"componentType":5126,"count":4495,"max":[1.816925048828125,2.3632116317749023,2.5683207511901855],"min":[-2.7172319889068604,-0.9544601440429688,-2.287144422531128],"type":"VEC3"},{"bufferView":6,"componentType":5126,"count":4495,"max":[0.999275267124176,0.9999217391014099,0.9998458027839661],"min":[-0.8932387232780457,-0.9741049408912659,-0.9998749494552612],"type":"VEC3"},{"bufferView":7,"componentType":5126,"count":4495,"max":[0.9916639924049377,0.9915939997881651],"min":[0.008208000101149082,0.008131980895996094],"type":"VEC2"},{"bufferView":8,"componentType":5123,"count":25335,"max":[4710],"min":[0],"type":"SCALAR"},{"bufferView":9,"componentType":5126,"count":4711,"max":[1.502600908279419,2.60172963142395,2.516394853591919],"min":[-3.061486005783081,-0.7332844734191895,-1.789494276046753],"type":"VEC3"},{"bufferView":10,"componentType":5126,"count":4711,"max":[0.9990038871765137,0.9999986886978149,0.9296975135803223],"min":[-0.9613532423973083,-0.963574230670929,-0.9998749494552612],"type":"VEC3"},{"bufferView":11,"componentType":5126,"count":4711,"max":[0.9909690022468567,0.9554039984941483],"min":[0.008202999830245972,0.008091986179351807],"type":"VEC2"},{"bufferView":12,"componentType":5123,"count":9111,"max":[2033],"min":[0],"type":"SCALAR"},{"bufferView":13,"componentType":5126,"count":2034,"max":[1.8517448902130127,2.5843887329101562,2.552168846130371],"min":[-3.0489962100982666,-1.1756443977355957,-2.3977324962615967],"type":"VEC3"},{"bufferView":14,"componentType":5126,"count":2034,"max":[0.9988486170768738,0.9986405968666077,0.9944955110549927],"min":[-0.912321925163269,-0.9741049408912659,-0.9991044402122498],"type":"VEC3"},{"bufferView":15,"componentType":5126,"count":2034,"max":[0.982312023639679,0.9402559995651245],"min":[0.008201000280678272,0.008167028427124023],"type":"VEC2"},{"bufferView":16,"componentType":5121,"count":9,"max":[6],"min":[0],"type":"SCALAR"},{"bufferView":17,"componentType":5126,"count":7,"max":[-2.146660089492798,2.0314407348632812,1.91524076461792],"min":[-2.227372169494629,1.976149559020996,0.5419758558273315],"type":"VEC3"},{"bufferView":18,"componentType":5126,"count":7,"max":[0.9988486170768738,0.9298827052116394,0.1680196076631546],"min":[-0.47557032108306885,-0.5356115698814392,-0.7324703931808472],"type":"VEC3"},{"bufferView":19,"componentType":5126,"count":7,"max":[0.3632810115814209,0.9389830008149147],"min":[0.1553180068731308,0.16435402631759644],"type":"VEC2"},{"bufferView":20,"componentType":5121,"count":18,"max":[13],"min":[0],"type":"SCALAR"},{"bufferView":21,"componentType":5126,"count":14,"max":[-2.090813159942627,2.14202880859375,1.8871338367462158],"min":[-2.1770710945129395,1.9688947200775146,0.4775838851928711],"type":"VEC3"},{"bufferView":22,"componentType":5126,"count":14,"max":[0.9973674416542053,0.9957185387611389,0.9410741329193115],"min":[-0.93011474609375,-0.4797411859035492,-0.8817893266677856],"type":"VEC3"},{"bufferView":23,"componentType":5126,"count":14,"max":[0.6068649888038635,0.4250220060348511],"min":[0.012771000154316425,0.13706499338150024],"type":"VEC2"}],"asset":{"generator":"Soft8Soft Verge3D for Blender add-on","version":"2.0"},"bufferViews":[{"buffer":0,"byteLength":18414,"byteOffset":0,"target":34963},{"buffer":0,"byteLength":22116,"byteOffset":18416,"target":34962},{"buffer":0,"byteLength":22116,"byteOffset":40532,"target":34962},{"buffer":0,"byteLength":14744,"byteOffset":62648,"target":34962},{"buffer":0,"byteLength":47736,"byteOffset":77392,"target":34963},{"buffer":0,"byteLength":53940,"byteOffset":125128,"target":34962},{"buffer":0,"byteLength":53940,"byteOffset":179068,"target":34962},{"buffer":0,"byteLength":35960,"byteOffset":233008,"target":34962},{"buffer":0,"byteLength":50670,"byteOffset":268968,"target":34963},{"buffer":0,"byteLength":56532,"byteOffset":319640,"target":34962},{"buffer":0,"byteLength":56532,"byteOffset":376172,"target":34962},{"buffer":0,"byteLength":37688,"byteOffset":432704,"target":34962},{"buffer":0,"byteLength":18222,"byteOffset":470392,"target":34963},{"buffer":0,"byteLength":24408,"byteOffset":488616,"target":34962},{"buffer":0,"byteLength":24408,"byteOffset":513024,"target":34962},{"buffer":0,"byteLength":16272,"byteOffset":537432,"target":34962},{"buffer":0,"byteLength":9,"byteOffset":553704,"target":34963},{"buffer":0,"byteLength":84,"byteOffset":553716,"target":34962},{"buffer":0,"byteLength":84,"byteOffset":553800,"target":34962},{"buffer":0,"byteLength":56,"byteOffset":553884,"target":34962},{"buffer":0,"byteLength":18,"byteOffset":553940,"target":34963},{"buffer":0,"byteLength":168,"byteOffset":553960,"target":34962},{"buffer":0,"byteLength":168,"byteOffset":554128,"target":34962},{"buffer":0,"byteLength":112,"byteOffset":554296,"target":34962}],"buffers":[{"byteLength":554408,"uri":"inokentij.bin"}],"cameras":[{"extensions":{"S8S_v3d_camera_data":{"controls":"ORBIT","enablePan":true,"moveSpeed":1.0,"orbitMaxDistance":100.0,"orbitMaxPolarAngle":3.1415927410125732,"orbitMaxZoom":100.0,"orbitMinDistance":0.0,"orbitMinPolarAngle":0.0,"orbitMinZoom":0.009999999776482582,"orbitTarget":[0.0,0.0,-0.0],"rotateSpeed":1.0,"viewportFitInitialAspect":1.7777777777777777,"viewportFitType":"AUTO"}},"name":"Camera","perspective":{"aspectRatio":1.7777777777777777,"yfov":0.5043610038280695,"zfar":100.0,"znear":0.10000000149011612},"type":"perspective"}],"extensions":{"S8S_v3d_data":{"lights":[{"color":[1.0,1.0,1.0],"decay":2,"distance":31.622776955095866,"intensity":1000.0,"name":"Light","profile":"blender","shadow":{"bias":-0.0018,"cameraFar":31.622776955095866,"cameraFov":0,"cameraNear":0.05000000074505806,"enabled":true,"expBias":2.5,"mapSize":512,"radius":1.0,"slopeScaledBias":2.5},"type":"point"}]}},"extensionsUsed":["S8S_v3d_texture_data","S8S_v3d_material_data","S8S_v3d_camera_data","S8S_v3d_data","S8S_v3d_mesh_data","S8S_v3d_node_data","S8S_v3d_scene_data"],"images":[{"uri":"odm_textured_model_geo_material0000_map_Kd.png"},{"uri":"odm_textured_model_geo_material0001_map_Kd.png"},{"uri":"odm_textured_model_geo_material0002_map_Kd.png"},{"uri":"odm_textured_model_geo_material0003_map_Kd.png"},{"uri":"odm_textured_model_geo_material0004_map_Kd.png"},{"uri":"odm_textured_model_geo_material0005_map_Kd.png"},{"uri":"odm_textured_model_geo_material0006_map_Kd.png"},{"uri":"odm_textured_model_geo_material0007_map_Kd.png"},{"uri":"odm_textured_model_geo_material0008_map_Kd.png"},{"uri":"odm_textured_model_geo_material0009_map_Kd.png"}],"materials":[{"extensions":{"S8S_v3d_material_data":{"nodeGraph":{"edges":[{"fromNode":0,"fromOutput":0,"toInput":0,"toNode":1},{"fromNode":2,"fromOutput":0,"toInput":0,"toNode":0}],"nodes":[{"inputs":[[1.0,1.0,1.0,1.0],0.0,[1.0,0.20000000298023224,0.10000000149011612],[0.800000011920929,0.800000011920929,0.800000011920929,1.0],0.0,0.0,0.0,0.9666666388511658,0.0,0.0,0.0,0.5,0.0,0.029999999329447746,1.4500000476837158,0.0,0.0,[0.0,0.0,0.0,1.0],1.0,[0.0,0.0,0.0],[0.0,0.0,0.0],[0.0,0.0,0.0]],"is_active_output":false,"name":"Principled BSDF","outputs":[[0,0,0,0]],"type":"BSDF_PRINCIPLED_BL"},{"inputs":[[0,0,0,0],[0,0,0,0],[0.0,0.0,0.0]],"is_active_output":true,"name":"Material Output","outputs":[],"type":"OUTPUT_MATERIAL_BL"},{"inputs":[[0.0,0.0,0.0]],"is_active_output":false,"name":"Image Texture","outputs":[[0.0,0.0,0.0,0.0],0.0],"projection":"FLAT","projectionBlend":0.0,"texture":0,"type":"TEX_IMAGE_BL"}]},"useCastShadows":true}},"name":"material0000"},{"extensions":{"S8S_v3d_material_data":{"nodeGraph":{"edges":[{"fromNode":0,"fromOutput":0,"toInput":0,"toNode":1},{"fromNode":2,"fromOutput":0,"toInput":0,"toNode":0}],"nodes":[{"inputs":[[1.0,1.0,1.0,1.0],0.0,[1.0,0.20000000298023224,0.10000000149011612],[0.800000011920929,0.800000011920929,0.800000011920929,1.0],0.0,0.0,0.0,0.9666666388511658,0.0,0.0,0.0,0.5,0.0,0.029999999329447746,1.4500000476837158,0.0,0.0,[0.0,0.0,0.0,1.0],1.0,[0.0,0.0,0.0],[0.0,0.0,0.0],[0.0,0.0,0.0]],"is_active_output":false,"name":"Principled BSDF","outputs":[[0,0,0,0]],"type":"BSDF_PRINCIPLED_BL"},{"inputs":[[0,0,0,0],[0,0,0,0],[0.0,0.0,0.0]],"is_active_output":true,"name":"Material Output","outputs":[],"type":"OUTPUT_MATERIAL_BL"},{"inputs":[[0.0,0.0,0.0]],"is_active_output":false,"name":"Image Texture","outputs":[[0.0,0.0,0.0,0.0],0.0],"projection":"FLAT","projectionBlend":0.0,"texture":1,"type":"TEX_IMAGE_BL"}]},"useCastShadows":true}},"name":"material0001"},{"extensions":{"S8S_v3d_material_data":{"nodeGraph":{"edges":[{"fromNode":0,"fromOutput":0,"toInput":0,"toNode":1},{"fromNode":2,"fromOutput":0,"toInput":0,"toNode":0}],"nodes":[{"inputs":[[1.0,1.0,1.0,1.0],0.0,[1.0,0.20000000298023224,0.10000000149011612],[0.800000011920929,0.800000011920929,0.800000011920929,1.0],0.0,0.0,0.0,0.9666666388511658,0.0,0.0,0.0,0.5,0.0,0.029999999329447746,1.4500000476837158,0.0,0.0,[0.0,0.0,0.0,1.0],1.0,[0.0,0.0,0.0],[0.0,0.0,0.0],[0.0,0.0,0.0]],"is_active_output":false,"name":"Principled BSDF","outputs":[[0,0,0,0]],"type":"BSDF_PRINCIPLED_BL"},{"inputs":[[0,0,0,0],[0,0,0,0],[0.0,0.0,0.0]],"is_active_output":true,"name":"Material Output","outputs":[],"type":"OUTPUT_MATERIAL_BL"},{"inputs":[[0.0,0.0,0.0]],"is_active_output":false,"name":"Image Texture","outputs":[[0.0,0.0,0.0,0.0],0.0],"projection":"FLAT","projectionBlend":0.0,"texture":2,"type":"TEX_IMAGE_BL"}]},"useCastShadows":true}},"name":"material0002"},{"extensions":{"S8S_v3d_material_data":{"nodeGraph":{"edges":[{"fromNode":0,"fromOutput":0,"toInput":0,"toNode":1},{"fromNode":2,"fromOutput":0,"toInput":0,"toNode":0}],"nodes":[{"inputs":[[1.0,1.0,1.0,1.0],0.0,[1.0,0.20000000298023224,0.10000000149011612],[0.800000011920929,0.800000011920929,0.800000011920929,1.0],0.0,0.0,0.0,0.9666666388511658,0.0,0.0,0.0,0.5,0.0,0.029999999329447746,1.4500000476837158,0.0,0.0,[0.0,0.0,0.0,1.0],1.0,[0.0,0.0,0.0],[0.0,0.0,0.0],[0.0,0.0,0.0]],"is_active_output":false,"name":"Principled BSDF","outputs":[[0,0,0,0]],"type":"BSDF_PRINCIPLED_BL"},{"inputs":[[0,0,0,0],[0,0,0,0],[0.0,0.0,0.0]],"is_active_output":true,"name":"Material Output","outputs":[],"type":"OUTPUT_MATERIAL_BL"},{"inputs":[[0.0,0.0,0.0]],"is_active_output":false,"name":"Image Texture","outputs":[[0.0,0.0,0.0,0.0],0.0],"projection":"FLAT","projectionBlend":0.0,"texture":3,"type":"TEX_IMAGE_BL"}]},"useCastShadows":true}},"name":"material0003"},{"extensions":{"S8S_v3d_material_data":{"nodeGraph":{"edges":[{"fromNode":0,"fromOutput":0,"toInput":0,"toNode":1},{"fromNode":2,"fromOutput":0,"toInput":0,"toNode":0}],"nodes":[{"inputs":[[1.0,1.0,1.0,1.0],0.0,[1.0,0.20000000298023224,0.10000000149011612],[0.800000011920929,0.800000011920929,0.800000011920929,1.0],0.0,0.0,0.0,0.9666666388511658,0.0,0.0,0.0,0.5,0.0,0.029999999329447746,1.4500000476837158,0.0,0.0,[0.0,0.0,0.0,1.0],1.0,[0.0,0.0,0.0],[0.0,0.0,0.0],[0.0,0.0,0.0]],"is_active_output":false,"name":"Principled BSDF","outputs":[[0,0,0,0]],"type":"BSDF_PRINCIPLED_BL"},{"inputs":[[0,0,0,0],[0,0,0,0],[0.0,0.0,0.0]],"is_active_output":true,"name":"Material Output","outputs":[],"type":"OUTPUT_MATERIAL_BL"},{"inputs":[[0.0,0.0,0.0]],"is_active_output":false,"name":"Image Texture","outputs":[[0.0,0.0,0.0,0.0],0.0],"projection":"FLAT","projectionBlend":0.0,"texture":4,"type":"TEX_IMAGE_BL"}]},"useCastShadows":true}},"name":"material0004"},{"extensions":{"S8S_v3d_material_data":{"nodeGraph":{"edges":[{"fromNode":0,"fromOutput":0,"toInput":0,"toNode":1},{"fromNode":2,"fromOutput":0,"toInput":0,"toNode":0}],"nodes":[{"inputs":[[1.0,1.0,1.0,1.0],0.0,[1.0,0.20000000298023224,0.10000000149011612],[0.800000011920929,0.800000011920929,0.800000011920929,1.0],0.0,0.0,0.0,0.9666666388511658,0.0,0.0,0.0,0.5,0.0,0.029999999329447746,1.4500000476837158,0.0,0.0,[0.0,0.0,0.0,1.0],1.0,[0.0,0.0,0.0],[0.0,0.0,0.0],[0.0,0.0,0.0]],"is_active_output":false,"name":"Principled BSDF","outputs":[[0,0,0,0]],"type":"BSDF_PRINCIPLED_BL"},{"inputs":[[0,0,0,0],[0,0,0,0],[0.0,0.0,0.0]],"is_active_output":true,"name":"Material Output","outputs":[],"type":"OUTPUT_MATERIAL_BL"},{"inputs":[[0.0,0.0,0.0]],"is_active_output":false,"name":"Image Texture","outputs":[[0.0,0.0,0.0,0.0],0.0],"projection":"FLAT","projectionBlend":0.0,"texture":5,"type":"TEX_IMAGE_BL"}]},"useCastShadows":true}},"name":"material0005"},{"extensions":{"S8S_v3d_material_data":{"nodeGraph":{"edges":[{"fromNode":0,"fromOutput":0,"toInput":0,"toNode":1},{"fromNode":2,"fromOutput":0,"toInput":0,"toNode":0}],"nodes":[{"inputs":[[1.0,1.0,1.0,1.0],0.0,[1.0,0.20000000298023224,0.10000000149011612],[0.800000011920929,0.800000011920929,0.800000011920929,1.0],0.0,0.0,0.0,0.9666666388511658,0.0,0.0,0.0,0.5,0.0,0.029999999329447746,1.4500000476837158,0.0,0.0,[0.0,0.0,0.0,1.0],1.0,[0.0,0.0,0.0],[0.0,0.0,0.0],[0.0,0.0,0.0]],"is_active_output":false,"name":"Principled BSDF","outputs":[[0,0,0,0]],"type":"BSDF_PRINCIPLED_BL"},{"inputs":[[0,0,0,0],[0,0,0,0],[0.0,0.0,0.0]],"is_active_output":true,"name":"Material Output","outputs":[],"type":"OUTPUT_MATERIAL_BL"},{"inputs":[[0.0,0.0,0.0]],"is_active_output":false,"name":"Image Texture","outputs":[[0.0,0.0,0.0,0.0],0.0],"projection":"FLAT","projectionBlend":0.0,"texture":6,"type":"TEX_IMAGE_BL"}]},"useCastShadows":true}},"name":"material0006"},{"extensions":{"S8S_v3d_material_data":{"nodeGraph":{"edges":[{"fromNode":0,"fromOutput":0,"toInput":0,"toNode":1},{"fromNode":2,"fromOutput":0,"toInput":0,"toNode":0}],"nodes":[{"inputs":[[1.0,1.0,1.0,1.0],0.0,[1.0,0.20000000298023224,0.10000000149011612],[0.800000011920929,0.800000011920929,0.800000011920929,1.0],0.0,0.0,0.0,0.9666666388511658,0.0,0.0,0.0,0.5,0.0,0.029999999329447746,1.4500000476837158,0.0,0.0,[0.0,0.0,0.0,1.0],1.0,[0.0,0.0,0.0],[0.0,0.0,0.0],[0.0,0.0,0.0]],"is_active_output":false,"name":"Principled BSDF","outputs":[[0,0,0,0]],"type":"BSDF_PRINCIPLED_BL"},{"inputs":[[0,0,0,0],[0,0,0,0],[0.0,0.0,0.0]],"is_active_output":true,"name":"Material Output","outputs":[],"type":"OUTPUT_MATERIAL_BL"},{"inputs":[[0.0,0.0,0.0]],"is_active_output":false,"name":"Image Texture","outputs":[[0.0,0.0,0.0,0.0],0.0],"projection":"FLAT","projectionBlend":0.0,"texture":7,"type":"TEX_IMAGE_BL"}]},"useCastShadows":true}},"name":"material0007"},{"extensions":{"S8S_v3d_material_data":{"nodeGraph":{"edges":[{"fromNode":0,"fromOutput":0,"toInput":0,"toNode":1},{"fromNode":2,"fromOutput":0,"toInput":0,"toNode":0}],"nodes":[{"inputs":[[1.0,1.0,1.0,1.0],0.0,[1.0,0.20000000298023224,0.10000000149011612],[0.800000011920929,0.800000011920929,0.800000011920929,1.0],0.0,0.0,0.0,0.9666666388511658,0.0,0.0,0.0,0.5,0.0,0.029999999329447746,1.4500000476837158,0.0,0.0,[0.0,0.0,0.0,1.0],1.0,[0.0,0.0,0.0],[0.0,0.0,0.0],[0.0,0.0,0.0]],"is_active_output":false,"name":"Principled BSDF","outputs":[[0,0,0,0]],"type":"BSDF_PRINCIPLED_BL"},{"inputs":[[0,0,0,0],[0,0,0,0],[0.0,0.0,0.0]],"is_active_output":true,"name":"Material Output","outputs":[],"type":"OUTPUT_MATERIAL_BL"},{"inputs":[[0.0,0.0,0.0]],"is_active_output":false,"name":"Image Texture","outputs":[[0.0,0.0,0.0,0.0],0.0],"projection":"FLAT","projectionBlend":0.0,"texture":8,"type":"TEX_IMAGE_BL"}]},"useCastShadows":true}},"name":"material0008"},{"extensions":{"S8S_v3d_material_data":{"nodeGraph":{"edges":[{"fromNode":0,"fromOutput":0,"toInput":0,"toNode":1},{"fromNode":2,"fromOutput":0,"toInput":0,"toNode":0}],"nodes":[{"inputs":[[1.0,1.0,1.0,1.0],0.0,[1.0,0.20000000298023224,0.10000000149011612],[0.800000011920929,0.800000011920929,0.800000011920929,1.0],0.0,0.0,0.0,0.9666666388511658,0.0,0.0,0.0,0.5,0.0,0.029999999329447746,1.4500000476837158,0.0,0.0,[0.0,0.0,0.0,1.0],1.0,[0.0,0.0,0.0],[0.0,0.0,0.0],[0.0,0.0,0.0]],"is_active_output":false,"name":"Principled BSDF","outputs":[[0,0,0,0]],"type":"BSDF_PRINCIPLED_BL"},{"inputs":[[0,0,0,0],[0,0,0,0],[0.0,0.0,0.0]],"is_active_output":true,"name":"Material Output","outputs":[],"type":"OUTPUT_MATERIAL_BL"},{"inputs":[[0.0,0.0,0.0]],"is_active_output":false,"name":"Image Texture","outputs":[[0.0,0.0,0.0,0.0],0.0],"projection":"FLAT","projectionBlend":0.0,"texture":9,"type":"TEX_IMAGE_BL"}]},"useCastShadows":true}},"name":"material0009"},{"extensions":{"S8S_v3d_material_data":{"nodeGraph":{"edges":[{"fromNode":1,"fromOutput":0,"toInput":0,"toNode":0}],"nodes":[{"inputs":[[0,0,0,0],[0,0,0,0]],"is_active_output":true,"name":"World Output","outputs":[],"type":"OUTPUT_WORLD_BL"},{"inputs":[[0.05087608844041824,0.05087608844041824,0.05087608844041824,1.0],1.0],"is_active_output":false,"name":"Background","outputs":[[0,0,0,0]],"type":"BACKGROUND_BL"}]},"useCastShadows":true}},"name":"Verge3D_Environment_World"}],"meshes":[{"extensions":{"S8S_v3d_mesh_data":{"colorLayers":{},"uvLayers":{"UVMap":"TEXCOORD_0"}}},"name":"odm_textured_model_geo","primitives":[{"attributes":{"NORMAL":2,"POSITION":1,"TEXCOORD_0":3},"indices":0,"material":0,"mode":4},{"attributes":{"NORMAL":6,"POSITION":5,"TEXCOORD_0":7},"indices":4,"material":1,"mode":4},{"attributes":{"NORMAL":10,"POSITION":9,"TEXCOORD_0":11},"indices":8,"material":2,"mode":4},{"attributes":{"NORMAL":14,"POSITION":13,"TEXCOORD_0":15},"indices":12,"material":3,"mode":4},{"attributes":{"NORMAL":18,"POSITION":17,"TEXCOORD_0":19},"indices":16,"material":4,"mode":4},{"attributes":{"NORMAL":22,"POSITION":21,"TEXCOORD_0":23},"indices":20,"material":5,"mode":4}]}],"nodes":[{"extensions":{"S8S_v3d_node_data":{"frustumCulling":true,"groupNames":["Collection"],"hidden":false,"light":0,"renderOrder":0}},"name":"Light","rotation":[-0.2841663062572479,0.7269423604011536,0.34203389286994934,0.5232754945755005],"scale":[0.9999999403953552,0.9999997615814209,0.9999998807907104],"translation":[8.739384651184082,0.2852671146392822,0.20079956948757172]},{"camera":0,"extensions":{"S8S_v3d_node_data":{"frustumCulling":true,"groupNames":["Collection"],"hidden":false,"renderOrder":0}},"name":"Camera","rotation":[-0.16972516477108002,0.6714909076690674,0.07589644938707352,0.7173096537590027],"scale":[1.0,0.9999998807907104,0.9999999403953552],"translation":[11.414739608764648,4.08950138092041,0.8590758442878723]},{"extensions":{"S8S_v3d_node_data":{"frustumCulling":true,"groupNames":["Collection"],"hidden":false,"renderOrder":0,"useShadows":true}},"mesh":0,"name":"odm_textured_model_geo","rotation":[-0.17622162401676178,-0.08643744140863419,-0.43181389570236206,0.8803472518920898],"scale":[1.0,0.9999999403953552,1.0],"translation":[0.06303169578313828,-0.7441987991333008,-0.1467246264219284]}],"samplers":[{}],"scene":0,"scenes":[{"extensions":{"S8S_v3d_scene_data":{"aaMethod":"AUTO","iblEnvironmentMode":"PMREM","physicallyCorrectLights":true,"pmremMaxTileSize":512,"shadowMap":{"esmDistanceScale":1.0,"renderReverseSided":false,"renderSingleSided":true,"type":"PCFPOISSON"},"toneMapping":{"type":"filmicBlender"},"worldMaterial":10}},"extras":{"animFrameRate":24,"coordSystem":"Z_UP_RIGHT"},"name":"Scene","nodes":[0,1,2]}],"textures":[{"extensions":{"S8S_v3d_texture_data":{"colorSpace":"srgb"}},"name":"odm_textured_model_geo_material0000_map_Kd.png","sampler":0,"source":0},{"extensions":{"S8S_v3d_texture_data":{"colorSpace":"srgb"}},"name":"odm_textured_model_geo_material0001_map_Kd.png","sampler":0,"source":1},{"extensions":{"S8S_v3d_texture_data":{"colorSpace":"srgb"}},"name":"odm_textured_model_geo_material0002_map_Kd.png","sampler":0,"source":2},{"extensions":{"S8S_v3d_texture_data":{"colorSpace":"srgb"}},"name":"odm_textured_model_geo_material0003_map_Kd.png","sampler":0,"source":3},{"extensions":{"S8S_v3d_texture_data":{"colorSpace":"srgb"}},"name":"odm_textured_model_geo_material0004_map_Kd.png","sampler":0,"source":4},{"extensions":{"S8S_v3d_texture_data":{"colorSpace":"srgb"}},"name":"odm_textured_model_geo_material0005_map_Kd.png","sampler":0,"source":5},{"extensions":{"S8S_v3d_texture_data":{"colorSpace":"srgb"}},"name":"odm_textured_model_geo_material0006_map_Kd.png","sampler":0,"source":6},{"extensions":{"S8S_v3d_texture_data":{"colorSpace":"srgb"}},"name":"odm_textured_model_geo_material0007_map_Kd.png","sampler":0,"source":7},{"extensions":{"S8S_v3d_texture_data":{"colorSpace":"srgb"}},"name":"odm_textured_model_geo_material0008_map_Kd.png","sampler":0,"source":8},{"extensions":{"S8S_v3d_texture_data":{"colorSpace":"srgb"}},"name":"odm_textured_model_geo_material0009_map_Kd.png","sampler":0,"source":9}]}
