<?xml version="1.0" encoding="UTF-8"?>
<!DOCTYPE svg PUBLIC "-//W3C//DTD SVG 1.1//EN" "http://www.w3.org/Graphics/SVG/1.1/DTD/svg11.dtd">
<!-- Creator: CorelDRAW 2017 -->
<svg xmlns="http://www.w3.org/2000/svg" xml:space="preserve" width="309px" height="311px" version="1.1" shape-rendering="geometricPrecision" text-rendering="geometricPrecision" image-rendering="optimizeQuality" fill-rule="evenodd" clip-rule="evenodd"
viewBox="0 0 315.9 317.36"
 xmlns:xlink="http://www.w3.org/1999/xlink">
 <g id="Layer_x0020_1">
  <metadata id="CorelCorpID_0Corel-Layer"/>
  <path fill="#211F1F" d="M284.88 103.69l-19.53 20.68c6.89,18.38 9.19,32.16 8.04,52.84 13.79,3.45 27.57,9.19 41.45,13.78 1.06,1.15 1.06,2.3 1.06,3.45 -1.06,1.15 -2.3,2.3 -2.3,3.45 -3.45,1.15 -19.53,2.3 -22.98,2.3 0,0 0,0 -1.15,0 -2.29,1.15 -19.53,2.3 -20.67,3.44 -5.75,19.53 -17.24,37.92 -32.17,52.85 5.74,11.49 11.49,21.82 17.23,32.16 -1.15,3.44 1.15,3.44 -2.3,5.74 -4.59,1.15 -29.87,-19.53 -34.46,-22.97 -14.93,11.5 -34.46,16.08 -53.99,19.53 -18.37,1.14 0,0 -18.37,1.14 -12.64,-2.3 -22.98,-3.44 -34.47,-8.04 -2.3,1.15 -13.78,22.98 -20.68,33.32l-9.19 0c1.15,-9.19 2.31,-32.17 3.45,-35.62l0 -1.14c0,-2.3 0,-6.9 0,-8.04 -14.94,-10.34 -27.47,-22.98 -36.75,-37.91 -1.15,-1.15 -3.45,-4.59 -3.45,-4.59 -12.64,0 -26.42,0 -39.06,-1.15l-1.15 -1.15c0,0 0,-2.3 0,-3.45 9.19,-6.9 20.68,-10.34 29.87,-16.09 -6.89,-22.97 -8.04,-48.24 -1.15,-71.22 -4.5,-6.88 -31.01,-21.82 -32.16,-27.56 0,-2.3 1.15,-4.6 2.29,-4.6 2.3,-1.15 34.47,6.89 37.91,8.04 2.3,-2.29 3.45,-5.74 4.6,-8.04 1.15,0 1.15,-1.15 1.15,-1.15l238.93 0.01 0 -0.01z"/>
  <line fill="#211F1F" x1="83.85" y1="273.7" x2="83.85" y2= "273.7" />
  <path fill="#211F1F" d="M82.7 65.79l8.05 -4.6 -8.05 -49.39c0,-2.3 2.4,-2.3 3.45,-3.45l2.29 0c10.34,13.79 20.68,26.42 31.02,40.21 16.08,-2.3 33.32,-3.45 50.55,-2.3 8.04,-14.94 16.08,-31.01 25.27,-45.95 2.3,-1.15 4.69,1.15 5.75,2.3 0,17.23 -1.06,35.61 -2.3,52.84 8.04,2.3 13.77,6.89 20.67,11.49 12.63,9.19 0,0 12.63,9.19 8.05,6.88 14.94,14.93 20.68,24.12 14.94,-5.74 28.72,-9.19 42.5,-13.78 2.13,-0.01 3.44,2.65 3.44,4.59l-13.77 12.63 -238.94 0c4.59,-8.04 17.23,-22.97 22.97,-27.57l0 -1.15c8.02,-6.02 0,1.15 13.79,-9.18z"/>
  <path fill="#66B148" d="M192.97 68.08c1.15,1.15 4.6,1.15 4.6,-1.14 17.23,8.04 33.32,19.52 44.8,35.6 -3.44,1.15 -12.63,3.45 -8.04,9.19 1.15,1.15 2.3,1.15 4.6,1.15 11.48,-2.29 27.57,-9.19 39.05,-12.63 -2.3,2.29 -31.02,31.01 -31.02,32.16 1.15,8.04 6.89,2.3 10.44,0 4.5,13.79 6.8,27.57 5.65,41.36 -4.59,-2.3 -13.78,-5.74 -11.49,3.45 12.63,5.74 27.57,9.19 42.5,14.93 -11.49,1.15 -22.98,3.45 -35.61,4.59l-9.19 1.15c-2.3,1.15 -2.3,4.6 -1.14,5.74 1.14,3.45 6.88,2.31 9.28,1.15 -5.85,16.09 -15.03,29.87 -25.37,41.35 -4.59,-3.44 -3.35,-13.78 -12.63,-12.63 -4.6,8.05 13.78,34.46 18.38,43.65 -3.45,-3.45 -35.61,-26.42 -36.76,-27.57 -3.45,0 -4.6,4.6 -3.45,6.89 3.45,3.45 8.04,5.75 10.34,8.05 -26.42,18.38 -63.18,20.67 -93.04,10.33 1.15,-2.29 4.58,-8.04 4.58,-10.33 0,0 -1.14,-2.3 -2.3,-2.3 -2.29,0 -3.34,1.14 -4.58,2.3 -9.19,11.48 -14.94,25.26 -22.98,36.76 1.15,-4.6 3.45,-43.66 3.45,-44.81 -1.15,-3.45 -6.89,-2.29 -7.95,3.45 -11.58,-8.04 -21.92,-18.38 -28.72,-29.87 3.35,-1.14 14.84,1.15 14.84,-4.59 0,-8.04 -40.21,-4.6 -47.1,-3.45 9.19,-4.6 33.31,-14.93 40.21,-20.67 1.15,-1.15 1.15,-4.6 -1.15,-5.75 -4.59,-2.29 -16.08,5.75 -19.53,6.9 -6.89,-17.24 -6.89,-39.06 -3.45,-58.59 4.6,2.3 6.9,8.04 11.49,5.75 1.15,-1.15 2.3,-2.3 2.3,-4.6 -11.49,-10.34 -22.98,-19.53 -33.31,-28.72 13.78,3.45 27.57,6.89 42.5,10.34 1.15,-2.3 4.6,-2.3 2.3,-5.74 -2.3,-4.6 -9.09,-4.6 -13.79,-5.75 8.05,-17.22 24.13,-33.31 42.51,-43.65 -1.15,4.6 6.89,4.6 6.89,0 0,-9.19 -4.59,-32.16 -6.89,-42.5 2.3,3.45 26.42,35.61 26.42,35.61 2.3,1.15 8.04,-2.3 5.74,-5.74 12.64,-3.45 25.27,-3.45 37.91,-2.3 0,2.3 1.14,3.44 3.44,4.59l2.31 -1.15c8.04,-12.63 14.93,-25.27 22.96,-37.91 -1.14,9.19 -3.44,35.62 -2.29,43.65 0,1.16 1.16,2.3 2.29,2.3z"/>
  <path fill="#211F1F" d="M234.33 85.31c-6.89,91.9 -80.4,159.68 -171.16,159.68l-6.79 0c-2.39,0 -4.7,-3.45 -4.7,-6.9 0,-2.29 2.31,-5.74 5.75,-5.74l5.74 0c86.16,0 155.08,-63.18 160.82,-148.19 0,-3.44 2.3,-5.74 5.75,-4.59 2.29,0 4.59,2.3 4.59,5.74z"/>
  <path fill="#211F1F" d="M235.48 86.46c-5.74,102.24 -56.29,160.82 -173.45,159.67l-3.44 0c-3.45,0 -5.75,-2.29 -5.75,-5.74 0,-3.45 2.3,-5.74 5.75,-5.74l3.44 0c114.87,-1.15 156.22,-51.69 161.96,-148.19 0,-3.45 3.45,-6.89 5.75,-5.74 3.44,0 5.74,2.29 5.74,5.74z"/>
 </g>
</svg>
