<?xml version="1.0" encoding="UTF-8"?>
<svg class="st16" width="5.7005in" height="5.9034in" color-interpolation-filters="sRGB" viewBox="0 0 410.44 425.04" xml:space="preserve" xmlns="http://www.w3.org/2000/svg" xmlns:xlink="http://www.w3.org/1999/xlink">
	<style type="text/css">
		.st1 {fill:#f2fbff;stroke:#40709c;stroke-width:0.75}
		.st2 {visibility:visible}
		.st3 {fill:#41719c;font-family:Calibri;font-size:0.75em;font-stretch:semi-expanded;font-weight:bold}
		.st4 {font-size:1em}
		.st5 {fill:#f2fbff;stroke:#41719c;stroke-width:0.75}
		.st6 {fill:#deebf6;stroke:#9cc3e5;stroke-width:0.75}
		.st7 {fill:#1e4e79;font-family:Calibri;font-size:0.666664em;font-weight:bold}
		.st8 {marker-end:url(#c);marker-start:url(#d);stroke:#5b9bd5;stroke-linecap:round;stroke-linejoin:round;stroke-width:1}
		.st9 {fill:#5b9bd5;fill-opacity:1;stroke:#5b9bd5;stroke-opacity:1;stroke-width:0.28409090909091}
		.st10 {marker-end:url(#b);stroke:#5b9bd5;stroke-linecap:round;stroke-linejoin:round;stroke-width:1}
		.st11 {fill:none;stroke:none;stroke-width:0.25}
		.st12 {fill:#5b9bd5;font-family:Calibri;font-size:1.33333em;font-weight:bold}
		.st13 {fill:none;filter:url(#f);stroke:#5b9bd5;stroke-dasharray:3.5,2.5;stroke-opacity:0.22}
		.st14 {fill:none;stroke:#c8c8c8;stroke-dasharray:3.5,2.5;stroke-width:0.5}
		.st15 {fill:#5b9bd5;font-family:Calibri;font-size:1.00001em;font-style:italic;font-weight:bold}
		.st16 {fill:none;fill-rule:evenodd;font-size:12px;overflow:visible;stroke-linecap:square;stroke-miterlimit:3}
	</style>

	<defs>
		<g id="a">
			<path d="m3 1-3-1 3-1v2"/>
		</g>
		<marker id="d" class="st9" overflow="visible" orient="auto" refX="10.2">
			<use transform="scale(3.52)" xlink:href="#a"/>
		</marker>
		<marker id="c" class="st9" overflow="visible" orient="auto" refX="-10.56">
			<use transform="scale(-3.52)" xlink:href="#a"/>
		</marker>
		<g id="e">
			<path d="m2 1-2-1 2-1v2"/>
		</g>
		<marker id="b" class="st9" overflow="visible" orient="auto" refX="-7.04">
			<use transform="scale(-3.52)" xlink:href="#e"/>
		</marker>
	</defs>
	<defs>
		<filter id="f">
			<feGaussianBlur stdDeviation="2"/>
		</filter>
	</defs>
	<g>
		<g transform="translate(24.164 -114.87)">
			<g>
				<g transform="translate(2.8346 2.8346)">
				</g>
					<path class="st1" d="m0 425.04h49.61 49.6v-166.58h-49.6-49.61v166.58z"/>
			</g>
			<g transform="translate(0 -136.82)">
				<g>
				</g>
					<text class="st3" x="6" y="407.46">МОДУЛЬ КОНТРОЛЮ <tspan class="st4" x="6" dy="1.2em">ДОСТУПУ</tspan></text>				
			</g>
		</g>
		<g transform="translate(158.81 -114.26)">
			<g>
				<g transform="translate(2.8346 2.8346)">
				</g>
					<path class="st5" d="m0 425.04h48.87 48.87v-168.14h-48.87-48.87v168.14z"/>
			</g>
			<g transform="translate(0 -138.38)">
				<g>
				</g>
					<text class="st3" x="6" y="407.46">МОДУЛЬ <tspan class="st4" x="6" dy="1.2em">ВИМІРЮВАНЬ</tspan></text>				
			</g>
		</g>
		<g transform="translate(291.61 -114.87)">
			<g>
				<g transform="translate(2.8346 2.8346)">
				</g>
					<path class="st5" d="m0 425.04h48.87 48.87v-166.58h-48.87-48.87v166.58z"/>
			</g>
			<g transform="translate(0 -136.82)">
				<g>
				</g>
					<text class="st3" x="6" y="407.46">МОДУЛЬ<tspan class="st4" x="6" dy="1.2em">БАЗИ ДАНИХ</tspan></text>				
			</g>
		</g>
		<g transform="translate(73.646 -17.698)">
			<g>
				<g transform="translate(2.8346 2.8346)">
				</g>
					<path class="st5" d="m0 425.04h158.09 158.1v-83.7h-158.1-158.09v83.7z"/>
			</g>
			<g transform="translate(0 -62.448)">
				<g>
				</g>
					<text class="st3" x="6" y="417.11">МОДУЛЬ ПРЕДСТАВЛЕННЯ</text>				
			</g>
		</g>
		<g transform="translate(161.51 -302.86)">
			<g>
				<g transform="translate(2.8346 2.8346)">
				</g>
					<path class="st5" d="m0 425.04h112.74 112.75v-87.96h-112.75-112.74v87.96z"/>
			</g>
			<g transform="translate(0 -66.7)">
				<g>
				</g>
					<text class="st3" x="6" y="417.11">ЗОВНІШНІ ГЕО-СЕРВІСИ</text>				
			</g>
		</g>
		<g transform="translate(38.338 -333.04)">
			<path class="st6" d="m14.17 425.04h42.52a14.173 14.173-180 0 0 0-28.34h-42.52a14.173 14.173-180 1 0 0 28.34z"/>
			<text class="st7" x="15.62" y="408.47">Користувач <tspan class="st4" x="16.84" dy="1.2em">(</tspan>за роллю)</text>		</g>
		<g transform="translate(32.668 -195.06)">
			<rect class="st6" y="379.6" width="80.731" height="45.44" rx="14.173" ry="14.173"/>
			<text class="st7" x="20.94" y="395.12">Процедура <tspan class="st4" x="15.02" dy="1.2em">автентифікації </tspan><tspan class="st4" x="16" dy="1.2em">та авторизації</tspan></text>		</g>
		<g transform="translate(32.668 -123.37)">
			<rect class="st6" y="379.6" width="80.731" height="45.44" rx="14.173" ry="14.173"/>
			<text class="st7" x="21.03" y="399.92">База даних <tspan class="st4" x="17.87" dy="1.2em">користувачів</tspan></text>		</g>
		<g transform="translate(65.947 -195.06)">
			<path class="st8" d="m7.09 435.24v0.36 5.13"/>
		</g>
		<g transform="translate(167.31 -193.49)">
			<rect class="st6" y="379.6" width="80.731" height="45.44" rx="14.173" ry="14.173"/>
			<text class="st7" x="22.78" y="399.92">Інтерфейс <tspan class="st4" x="18.86" dy="1.2em">користувача</tspan></text>		</g>
		<g transform="translate(300.6 -26.202)">
			<rect class="st6" y="379.6" width="80.731" height="45.44" rx="14.173" ry="14.173"/>
			<text class="st7" x="20.5" y="395.12">Управління <tspan class="st4" x="16.07" dy="1.2em">виробничими </tspan><tspan class="st4" x="20.94" dy="1.2em">процесами</tspan></text>		</g>
		<g transform="translate(167.31 -123.37)">
			<rect class="st6" y="379.6" width="80.731" height="45.44" rx="14.173" ry="14.173"/>
			<text class="st7" x="20.14" y="395.12">Розрахунки <tspan class="st4" x="19.75" dy="1.2em">сферичного </tspan><tspan class="st4" x="20.64" dy="1.2em">трикутника</tspan></text>		</g>
		<g transform="translate(200.59 -168.82)">
			<path class="st10" d="m7.09 425.04v-17.63"/>
		</g>
		<g transform="translate(248.04 -209.12)">
			<path class="st10" d="m0 417.96h45.03"/>
		</g>
		<g transform="translate(300.12 -123.37)">
			<rect class="st6" y="379.6" width="80.731" height="45.44" rx="14.173" ry="14.173"/>
			<text class="st7" x="22.78" y="399.92">Інтерфейс <tspan class="st4" x="18.86" dy="1.2em">користувача</tspan></text>		</g>
		<g transform="translate(300.12 -193.49)">
			<rect class="st6" y="379.6" width="80.731" height="45.44" rx="14.173" ry="14.173"/>
			<text class="st7" x="21.03" y="399.92">База даних <tspan class="st4" x="26.81" dy="1.2em">об</tspan>’єктів</text>		</g>
		<g transform="translate(333.39 -168.82)">
			<path class="st8" d="m7.09 414.84v-0.36-3.55"/>
		</g>
		<g transform="translate(191.38 -26.202)">
			<rect class="st6" y="379.6" width="80.731" height="45.44" rx="14.173" ry="14.173"/>
			<text class="st7" x="22.96" y="399.92">Аналітика <tspan class="st4" x="23.88" dy="1.2em">і звітність</tspan></text>		</g>
		<g transform="translate(82.15 -26.202)">
			<rect class="st6" y="379.6" width="80.731" height="45.44" rx="14.173" ry="14.173"/>
			<text class="st7" x="14.91" y="399.92">Картографічне <tspan class="st4" x="14.08" dy="1.2em">представлення</tspan></text>		</g>
		<g transform="translate(123.38 -198.16)">
			<path class="st10" d="m0 425.04v-18.05h36.9"/>
		</g>
		<g transform="translate(291.61 -166.8)">
			<path class="st10" d="m0 425.04h-17.73v58.36"/>
		</g>
		<g transform="translate(9.991 -379.35)">
			<rect class="st11" y="379.6" width="164.41" height="45.44"/>
			<text class="st12" x="2" y="397.52">Блок-схема застосунку <tspan class="st4" x="2" dy="1.2em">TREEMAP</tspan></text>		</g>
		<g transform="translate(184.38 -311.36)">
			<rect class="st6" y="379.6" width="80.731" height="45.44" rx="14.173" ry="14.173"/>
			<text class="st7" x="21.74" y="395.12">Сервіс гео-<tspan class="st4" x="12.23" dy="1.2em">позиціонованих </tspan><tspan class="st4" x="21.14" dy="1.2em">зображень</tspan></text>		</g>
		<g transform="translate(286.43 -311.36)">
			<rect class="st6" y="379.6" width="80.731" height="45.44" rx="14.173" ry="14.173"/>
			<text class="st7" x="12.47" y="399.92">Картографічний <tspan class="st4" x="29.9" dy="1.2em">сервіс</tspan></text>		</g>
		<g transform="translate(210.88 -302.86)">
			<path class="st10" d="m7 425.04 0.11 13.41"/>
		</g>
		<g transform="translate(323.66 -302.86)">
			<path class="st10" d="m6.96 425.04 0.17 14.38"/>
		</g>
		<g transform="translate(48.967 -114.87)">
			<path class="st10" d="m0 425.04v55.32h17.64"/>
		</g>
		<g transform="translate(66.684 -333.04)">
			<path class="st10" d="m7.09 425.04v44.56"/>
		</g>
		<g transform="translate(109.2 -354.11)">
			<path class="st10" d="m0 431.94 45.27 0.33"/>
		</g>
		<g transform="translate(2.9044,-5.2228)">
			<g class="st2" transform="translate(.3456 1.9728)">
				<path class="st13" d="m0 425.04h403.94v-290.55h-403.94v290.55z"/>
			</g>
			<path class="st14" d="m0 425.04h403.94v-290.55h-403.94v290.55z"/>
		</g>
		<g transform="translate(2.9044,-5.2228)">
			<rect class="st11" y="413.04" width="54.05" height="12"/>
			<text class="st15" x="2" y="422.64">TREEMAP</text>		</g>
	</g>
</svg>
