<?xml version="1.0" encoding="UTF-8"?>
<svg xmlns="http://www.w3.org/2000/svg" xml:space="preserve" width="800px" height="666px" version="1.1" shape-rendering="geometricPrecision" text-rendering="geometricPrecision" image-rendering="optimizeQuality" fill-rule="evenodd" clip-rule="evenodd"
viewBox="0 0 852.26 708.96"
 xmlns:xlink="http://www.w3.org/1999/xlink">
 <g id="Layer_x0020_1">
  <metadata id="CorelCorpID_0Corel-Layer"/>
  <polygon fill="white" points="59.83,655.27 842.17,655.27 842.17,38.23 59.83,38.23 "/>
  <g>
   <polygon fill="#262626" fill-rule="nonzero" fill-opacity="0.149020" points="113.03,38.23 113.03,655.27 112.12,655.27 112.12,38.23 "/>
  </g>
  <g>
   <polygon fill="#262626" fill-rule="nonzero" fill-opacity="0.149020" points="282.24,38.23 282.24,655.27 281.33,655.27 281.33,38.23 "/>
  </g>
  <g>
   <polygon fill="#262626" fill-rule="nonzero" fill-opacity="0.149020" points="451.45,38.23 451.45,655.27 450.54,655.27 450.54,38.23 "/>
  </g>
  <g>
   <polygon fill="#262626" fill-rule="nonzero" fill-opacity="0.149020" points="620.67,38.23 620.67,655.27 619.76,655.27 619.76,38.23 "/>
  </g>
  <g>
   <polygon fill="#262626" fill-rule="nonzero" fill-opacity="0.149020" points="789.88,38.23 789.88,655.27 788.97,655.27 788.97,38.23 "/>
  </g>
  <line fill="none" stroke="#262626" stroke-width="0.91" stroke-miterlimit="22.9256" x1="112.58" y1="655.27" x2="112.58" y2= "642.94" />
  <line fill="none" stroke="#262626" stroke-width="0.91" stroke-miterlimit="22.9256" x1="112.58" y1="38.23" x2="112.58" y2= "50.56" />
  <line fill="none" stroke="#262626" stroke-width="0.91" stroke-miterlimit="22.9256" x1="281.79" y1="655.27" x2="281.79" y2= "642.94" />
  <line fill="none" stroke="#262626" stroke-width="0.91" stroke-miterlimit="22.9256" x1="281.79" y1="38.23" x2="281.79" y2= "50.56" />
  <line fill="none" stroke="#262626" stroke-width="0.91" stroke-miterlimit="22.9256" x1="451" y1="655.27" x2="451" y2= "642.94" />
  <line fill="none" stroke="#262626" stroke-width="0.91" stroke-miterlimit="22.9256" x1="451" y1="38.23" x2="451" y2= "50.56" />
  <line fill="none" stroke="#262626" stroke-width="0.91" stroke-miterlimit="22.9256" x1="620.21" y1="655.27" x2="620.21" y2= "642.94" />
  <line fill="none" stroke="#262626" stroke-width="0.91" stroke-miterlimit="22.9256" x1="620.21" y1="38.23" x2="620.21" y2= "50.56" />
  <line fill="none" stroke="#262626" stroke-width="0.91" stroke-miterlimit="22.9256" x1="789.42" y1="655.27" x2="789.42" y2= "642.94" />
  <line fill="none" stroke="#262626" stroke-width="0.91" stroke-miterlimit="22.9256" x1="789.42" y1="38.23" x2="789.42" y2= "50.56" />
  <g transform="matrix(1 0 0 1 -301.074 332.253)">
   <text x="400" y="351.23"  fill="#262626" font-weight="normal" font-size="18.2px" font-family="Arial">-</text>
   <text x="405.51" y="351.23"  fill="#262626" font-weight="normal" font-size="18.2px" font-family="Arial">2</text>
   <text x="416.36" y="351.23"  fill="#262626" font-weight="normal" font-size="18.2px" font-family="Arial">0</text>
  </g>
  <g transform="matrix(1 0 0 1 -131.862 332.253)">
   <text x="400" y="351.23"  fill="#262626" font-weight="normal" font-size="18.2px" font-family="Arial">-</text>
   <text x="405.51" y="351.23"  fill="#262626" font-weight="normal" font-size="18.2px" font-family="Arial">1</text>
   <text x="416.36" y="351.23"  fill="#262626" font-weight="normal" font-size="18.2px" font-family="Arial">0</text>
  </g>
  <g transform="matrix(1 0 0 1 45.5382 332.253)">
   <text x="400" y="351.23"  fill="#262626" font-weight="normal" font-size="18.2px" font-family="Arial">0</text>
  </g>
  <g transform="matrix(1 0 0 1 209.29 332.253)">
   <text x="400" y="351.23"  fill="#262626" font-weight="normal" font-size="18.2px" font-family="Arial">1</text>
   <text x="410.85" y="351.23"  fill="#262626" font-weight="normal" font-size="18.2px" font-family="Arial">0</text>
  </g>
  <g transform="matrix(1 0 0 1 378.501 332.253)">
   <text x="400" y="351.23"  fill="#262626" font-weight="normal" font-size="18.2px" font-family="Arial">2</text>
   <text x="410.85" y="351.23"  fill="#262626" font-weight="normal" font-size="18.2px" font-family="Arial">0</text>
  </g>
  <g>
   <polygon fill="#262626" fill-rule="nonzero" fill-opacity="0.149020" points="842.17,519.88 59.83,519.88 59.83,518.97 842.17,518.97 "/>
  </g>
  <g>
   <polygon fill="#262626" fill-rule="nonzero" fill-opacity="0.149020" points="842.17,350.67 59.83,350.67 59.83,349.76 842.17,349.76 "/>
  </g>
  <g>
   <polygon fill="#262626" fill-rule="nonzero" fill-opacity="0.149020" points="842.17,181.46 59.83,181.46 59.83,180.55 842.17,180.55 "/>
  </g>
  <line fill="none" stroke="#262626" stroke-width="0.91" stroke-miterlimit="22.9256" x1="59.83" y1="519.42" x2="72.15" y2= "519.42" />
  <line fill="none" stroke="#262626" stroke-width="0.91" stroke-miterlimit="22.9256" x1="842.17" y1="519.42" x2="829.85" y2= "519.42" />
  <line fill="none" stroke="#262626" stroke-width="0.91" stroke-miterlimit="22.9256" x1="59.83" y1="350.21" x2="72.15" y2= "350.21" />
  <line fill="none" stroke="#262626" stroke-width="0.91" stroke-miterlimit="22.9256" x1="842.17" y1="350.21" x2="829.85" y2= "350.21" />
  <line fill="none" stroke="#262626" stroke-width="0.91" stroke-miterlimit="22.9256" x1="59.83" y1="181" x2="72.15" y2= "181" />
  <line fill="none" stroke="#262626" stroke-width="0.91" stroke-miterlimit="22.9256" x1="842.17" y1="181" x2="829.85" y2= "181" />
  <g transform="matrix(1 0 0 1 -376.566 175.478)">
   <text x="400" y="351.23"  fill="#262626" font-weight="normal" font-size="18.2px" font-family="Arial">-</text>
   <text x="405.51" y="351.23"  fill="#262626" font-weight="normal" font-size="18.2px" font-family="Arial">2</text>
   <text x="416.36" y="351.23"  fill="#262626" font-weight="normal" font-size="18.2px" font-family="Arial">0</text>
  </g>
  <text x="23.43" y="357.49"  fill="#262626" font-weight="normal" font-size="18.2px" font-family="Arial">-</text>
  <text x="28.95" y="357.49"  fill="#262626" font-weight="normal" font-size="18.2px" font-family="Arial">1</text>
  <text x="39.8" y="357.49"  fill="#262626" font-weight="normal" font-size="18.2px" font-family="Arial">0</text>
  <g transform="matrix(1 0 0 1 -360.186 -162.945)">
   <text x="400" y="351.23"  fill="#262626" font-weight="normal" font-size="18.2px" font-family="Arial">0</text>
  </g>
  <g>
   <path fill="#262626" fill-rule="nonzero" d="M59.83 654.81l0 0.91 -0.45 0 0 -0.91 0.45 0zm782.34 0.91l-782.34 0 0 -0.91 782.34 0 0 0.91zm0 0l0 -0.91 0.45 0 0 0.91 -0.45 0z"/>
  </g>
  <g>
   <path fill="#262626" fill-rule="nonzero" d="M59.83 37.78l0 0.91 -0.45 0 0 -0.91 0.45 0zm782.34 0.91l-782.34 0 0 -0.91 782.34 0 0 0.91zm0 0l0 -0.91 0.45 0 0 0.91 -0.45 0z"/>
  </g>
  <g>
   <path fill="#262626" fill-rule="nonzero" d="M59.38 655.27l0.91 0 0 0.45 -0.91 0 0 -0.45zm0.91 -617.04l0 617.04 -0.91 0 0 -617.04 0.91 0zm0 0l-0.91 0 0 -0.45 0.91 0 0 0.45z"/>
  </g>
  <g>
   <path fill="#262626" fill-rule="nonzero" d="M841.71 655.27l0.91 0 0 0.45 -0.91 0 0 -0.45zm0.91 -617.04l0 617.04 -0.91 0 0 -617.04 0.91 0zm0 0l-0.91 0 0 -0.45 0.91 0 0 0.45z"/>
  </g>
  <g transform="matrix(1 0 0 1 44.6281 357.733)">
   <text x="400" y="351.23"  fill="#262626" font-weight="normal" font-size="20.02px" font-family="Arial">X</text>
  </g>
  <g transform="matrix(2.64845E-14 -1 1 2.64845E-14 -336.891 753.121)">
   <text x="400" y="351.23"  fill="#262626" font-weight="normal" font-size="20.02px" font-family="Arial">Y</text>
  </g>
  <g transform="matrix(1 0 0 1 -132.82 -336.651)">
   <text x="400" y="351.23"  fill="black" font-weight="normal" font-size="20.02px" font-family="Arial">Camera's frame of view on the ground</text>
  </g>
  <polyline fill="none" stroke="red" stroke-width="0.91" stroke-linejoin="round" stroke-miterlimit="22.9256" points="617.39,76.05 284.61,76.05 248.15,355.06 653.85,355.06 617.39,76.05 "/>
  <polyline fill="none" stroke="red" stroke-width="0.91" stroke-linecap="round" stroke-linejoin="round" stroke-miterlimit="22.9256" points="622.85,76.05 621.8,79.26 619.07,81.24 615.7,81.24 612.97,79.26 611.93,76.05 612.97,72.84 615.7,70.86 619.07,70.86 621.8,72.84 622.85,76.05 "/>
  <polyline fill="none" stroke="red" stroke-width="0.91" stroke-linecap="round" stroke-linejoin="round" stroke-miterlimit="22.9256" points="290.07,76.05 289.03,79.26 286.3,81.24 282.92,81.24 280.19,79.26 279.15,76.05 280.19,72.84 282.92,70.86 286.3,70.86 289.03,72.84 290.07,76.05 "/>
  <polyline fill="none" stroke="red" stroke-width="0.91" stroke-linecap="round" stroke-linejoin="round" stroke-miterlimit="22.9256" points="253.61,355.06 252.56,358.27 249.83,360.25 246.46,360.25 243.73,358.27 242.69,355.06 243.73,351.85 246.46,349.87 249.83,349.87 252.56,351.85 253.61,355.06 "/>
  <polyline fill="none" stroke="red" stroke-width="0.91" stroke-linecap="round" stroke-linejoin="round" stroke-miterlimit="22.9256" points="659.31,355.06 658.27,358.27 655.54,360.25 652.16,360.25 649.43,358.27 648.39,355.06 649.43,351.85 652.16,349.87 655.54,349.87 658.27,351.85 659.31,355.06 "/>
  <polyline fill="none" stroke="red" stroke-width="0.91" stroke-linecap="round" stroke-linejoin="round" stroke-miterlimit="22.9256" points="622.85,76.05 621.8,79.26 619.07,81.24 615.7,81.24 612.97,79.26 611.93,76.05 612.97,72.84 615.7,70.86 619.07,70.86 621.8,72.84 622.85,76.05 "/>
  <polyline fill="none" stroke="blue" stroke-width="0.91" stroke-linecap="round" stroke-linejoin="round" stroke-miterlimit="22.9256" points="456.46,181 455.42,184.21 452.69,186.19 449.31,186.19 446.58,184.21 445.54,181 446.58,177.79 449.31,175.81 452.69,175.81 455.42,177.79 456.46,181 "/>
  <text x="451" y="344.51"  fill="black" font-weight="normal" font-size="18.2px" font-family="Arial">beta = 7.0 deg</text>
  <g transform="matrix(1 0 0 1 254.052 -231.54)">
   <text x="400" y="351.23"  fill="black" font-weight="normal" font-size="18.2px" font-family="Arial">Height = 10 m</text>
  </g>
  <g transform="matrix(1 0 0 1 254.052 -214.619)">
   <text x="400" y="351.23"  fill="black" font-weight="normal" font-size="18.2px" font-family="Arial">Field of view = 94 deg</text>
  </g>
  <g transform="matrix(1 0 0 1 254.052 -197.698)">
   <text x="400" y="351.23"  fill="black" font-weight="normal" font-size="18.2px" font-family="Arial">Aspect ratio = 3/4</text>
  </g>
  <polyline fill="none" stroke="red" stroke-width="0.91" stroke-linejoin="round" stroke-miterlimit="22.9256" points="605.55,106.34 296.45,106.34 211.53,412.27 690.46,412.27 605.55,106.34 "/>
  <polyline fill="none" stroke="red" stroke-width="0.91" stroke-linecap="round" stroke-linejoin="round" stroke-miterlimit="22.9256" points="611.01,106.34 609.97,109.55 607.24,111.53 603.86,111.53 601.13,109.55 600.09,106.34 601.13,103.13 603.86,101.14 607.24,101.14 609.97,103.13 611.01,106.34 "/>
  <polyline fill="none" stroke="red" stroke-width="0.91" stroke-linecap="round" stroke-linejoin="round" stroke-miterlimit="22.9256" points="301.91,106.34 300.86,109.55 298.13,111.53 294.76,111.53 292.03,109.55 290.99,106.34 292.03,103.13 294.76,101.14 298.13,101.14 300.86,103.13 301.91,106.34 "/>
  <polyline fill="none" stroke="red" stroke-width="0.91" stroke-linecap="round" stroke-linejoin="round" stroke-miterlimit="22.9256" points="216.99,412.27 215.95,415.48 213.22,417.47 209.85,417.47 207.12,415.48 206.07,412.27 207.12,409.07 209.85,407.08 213.22,407.08 215.95,409.07 216.99,412.27 "/>
  <polyline fill="none" stroke="red" stroke-width="0.91" stroke-linecap="round" stroke-linejoin="round" stroke-miterlimit="22.9256" points="695.92,412.27 694.88,415.48 692.15,417.47 688.78,417.47 686.05,415.48 685,412.27 686.05,409.07 688.78,407.08 692.15,407.08 694.88,409.07 695.92,412.27 "/>
  <polyline fill="none" stroke="red" stroke-width="0.91" stroke-linecap="round" stroke-linejoin="round" stroke-miterlimit="22.9256" points="611.01,106.34 609.97,109.55 607.24,111.53 603.86,111.53 601.13,109.55 600.09,106.34 601.13,103.13 603.86,101.14 607.24,101.14 609.97,103.13 611.01,106.34 "/>
  <polyline fill="none" stroke="blue" stroke-width="0.91" stroke-linecap="round" stroke-linejoin="round" stroke-miterlimit="22.9256" points="456.46,181 455.42,184.21 452.69,186.19 449.31,186.19 446.58,184.21 445.54,181 446.58,177.79 449.31,175.81 452.69,175.81 455.42,177.79 456.46,181 "/>
  <g transform="matrix(1 0 0 1 50.9985 50.4975)">
   <text x="400" y="351.23"  fill="black" font-weight="normal" font-size="18.2px" font-family="Arial">beta = 15.0 deg</text>
  </g>
  <polyline fill="none" stroke="red" stroke-width="0.91" stroke-linejoin="round" stroke-miterlimit="22.9256" points="597.26,136.26 304.74,136.26 141.56,510.38 760.43,510.38 597.26,136.26 "/>
  <polyline fill="none" stroke="red" stroke-width="0.91" stroke-linecap="round" stroke-linejoin="round" stroke-miterlimit="22.9256" points="602.72,136.26 601.67,139.47 598.94,141.46 595.57,141.46 592.84,139.47 591.8,136.26 592.84,133.05 595.57,131.07 598.94,131.07 601.67,133.05 602.72,136.26 "/>
  <polyline fill="none" stroke="red" stroke-width="0.91" stroke-linecap="round" stroke-linejoin="round" stroke-miterlimit="22.9256" points="310.2,136.26 309.16,139.47 306.43,141.46 303.06,141.46 300.33,139.47 299.28,136.26 300.33,133.05 303.06,131.07 306.43,131.07 309.16,133.05 310.2,136.26 "/>
  <polyline fill="none" stroke="red" stroke-width="0.91" stroke-linecap="round" stroke-linejoin="round" stroke-miterlimit="22.9256" points="147.02,510.38 145.98,513.59 143.25,515.57 139.88,515.57 137.15,513.59 136.1,510.38 137.15,507.17 139.88,505.18 143.25,505.18 145.98,507.17 147.02,510.38 "/>
  <polyline fill="none" stroke="red" stroke-width="0.91" stroke-linecap="round" stroke-linejoin="round" stroke-miterlimit="22.9256" points="765.89,510.38 764.85,513.59 762.12,515.57 758.75,515.57 756.02,513.59 754.97,510.38 756.02,507.17 758.75,505.18 762.12,505.18 764.85,507.17 765.89,510.38 "/>
  <polyline fill="none" stroke="red" stroke-width="0.91" stroke-linecap="round" stroke-linejoin="round" stroke-miterlimit="22.9256" points="602.72,136.26 601.67,139.47 598.94,141.46 595.57,141.46 592.84,139.47 591.8,136.26 592.84,133.05 595.57,131.07 598.94,131.07 601.67,133.05 602.72,136.26 "/>
  <polyline fill="none" stroke="blue" stroke-width="0.91" stroke-linecap="round" stroke-linejoin="round" stroke-miterlimit="22.9256" points="456.46,181 455.42,184.21 452.69,186.19 449.31,186.19 446.58,184.21 445.54,181 446.58,177.79 449.31,175.81 452.69,175.81 455.42,177.79 456.46,181 "/>
  <g transform="matrix(1 0 0 1 50.9985 148.598)">
   <text x="400" y="351.23"  fill="black" font-weight="normal" font-size="18.2px" font-family="Arial">beta = 24.0 deg</text>
  </g>
  <polyline fill="none" stroke="red" stroke-width="0.91" stroke-linejoin="round" stroke-miterlimit="22.9256" points="594.09,154.78 307.91,154.78 59.83,617.46 842.17,617.46 594.09,154.78 "/>
  <polyline fill="none" stroke="red" stroke-width="0.91" stroke-linecap="round" stroke-linejoin="round" stroke-miterlimit="22.9256" points="599.55,154.78 598.5,157.99 595.77,159.97 592.4,159.97 589.67,157.99 588.63,154.78 589.67,151.57 592.4,149.59 595.77,149.59 598.5,151.57 599.55,154.78 "/>
  <polyline fill="none" stroke="red" stroke-width="0.91" stroke-linecap="round" stroke-linejoin="round" stroke-miterlimit="22.9256" points="313.37,154.78 312.33,157.99 309.6,159.97 306.22,159.97 303.49,157.99 302.45,154.78 303.49,151.57 306.22,149.59 309.6,149.59 312.33,151.57 313.37,154.78 "/>
  <polyline fill="none" stroke="red" stroke-width="0.91" stroke-linecap="round" stroke-linejoin="round" stroke-miterlimit="22.9256" points="65.29,617.46 64.25,620.66 61.52,622.65 58.15,622.65 55.42,620.66 54.37,617.46 55.42,614.25 58.15,612.26 61.52,612.26 64.25,614.25 65.29,617.46 "/>
  <polyline fill="none" stroke="red" stroke-width="0.91" stroke-linecap="round" stroke-linejoin="round" stroke-miterlimit="22.9256" points="847.63,617.46 846.58,620.66 843.85,622.65 840.48,622.65 837.75,620.66 836.71,617.46 837.75,614.25 840.48,612.26 843.85,612.26 846.58,614.25 847.63,617.46 "/>
  <polyline fill="none" stroke="red" stroke-width="0.91" stroke-linecap="round" stroke-linejoin="round" stroke-miterlimit="22.9256" points="599.55,154.78 598.5,157.99 595.77,159.97 592.4,159.97 589.67,157.99 588.63,154.78 589.67,151.57 592.4,149.59 595.77,149.59 598.5,151.57 599.55,154.78 "/>
  <polyline fill="none" stroke="blue" stroke-width="0.91" stroke-linecap="round" stroke-linejoin="round" stroke-miterlimit="22.9256" points="456.46,181 455.42,184.21 452.69,186.19 449.31,186.19 446.58,184.21 445.54,181 446.58,177.79 449.31,175.81 452.69,175.81 455.42,177.79 456.46,181 "/>
  <g transform="matrix(1 0 0 1 50.9985 255.677)">
   <text x="400" y="351.23"  fill="black" font-weight="normal" font-size="18.2px" font-family="Arial">beta = 30.0 deg</text>
  </g>
 </g>
</svg>
