<?xml version="1.0" encoding="UTF-8"?>
<svg xmlns="http://www.w3.org/2000/svg" viewBox="0 0 10395.24 6021.1">
 <g>
  <rect fill="none" stroke="#2B2A29" stroke-width="20" stroke-miterlimit="22.9256" x="41.36" y="9.99" width="10341.19" height="6001.11"/>
  <polyline fill="none" stroke="#E4C05C" stroke-width="200" stroke-miterlimit="22.9256" points="41.36,2099.66 2964.1,3427.54 10382.55,4376.87 "/>
  <circle fill="#E31E24" cx="4091.74" cy="3571.84" r="154.04"/>
  <circle fill="#008DD2" cx="2022.65" cy="2999.81" r="154.04"/>
  <circle fill="#71C285" cx="1206.75" cy="974.45" r="154.04"/>
  <circle fill="#71C285" cx="4140.33" cy="1952.31" r="154.04"/>
  <text x="4509.53" y="2078.24"  fill="#71C285" font-weight="bold" font-size="535.81px" font-family="Arial">1</text>
  <text x="575.55" y="1093.66"  fill="#71C285" font-weight="bold" font-size="535.81px" font-family="Arial">2</text>
  <text x="3879.92" y="4382.22"  fill="#2B2A29" font-weight="bold" font-size="535.81px" font-family="Arial">1</text>
  <text x="1593.63" y="3772.75"  fill="#2B2A29" font-weight="bold" font-size="535.81px" font-family="Arial">2</text>
  <g>
   <path fill="#E31E24" fill-rule="nonzero" d="M4166.26 2419.36l-37.05 999.83 -74.94 -2.78 37.05 -999.83 74.94 2.78zm-184.45 -20.75l69.19 28.91 -33.2 -51.93 112.4 4.17 -2.77 74.94 -112.41 -4.17 -33.21 -51.92zm0 0l33.21 51.92 -54.07 -2 20.86 -49.92zm193.68 -292.99l-71.14 23.71 70.17 2.6 -123.52 295.59 -69.19 -28.91 123.52 -295.59 70.16 2.6zm0 0l-70.16 -2.6 38.55 -92.26 31.61 94.86zm64.35 353.24l2.77 -74.94 -36.96 49.33 -101.3 -303.92 71.14 -23.71 101.3 303.92 -36.95 49.32zm0 0l36.95 -49.32 17.11 51.33 -54.06 -2.01zm-111.02 -41.63l1.38 -37.47 112.41 4.16 -2.77 74.94 -112.41 -4.16 1.39 -37.47z"/>
  </g>
  <g>
   <path fill="#E31E24" fill-rule="nonzero" d="M3890.54 3453.43l50.16 -55.76 55.75 50.15 -50.16 55.76 -55.75 -50.15zm-111.5 -100.31l50.16 -55.76 55.75 50.16 -50.16 55.76 -55.75 -50.16zm-111.5 -100.32l50.16 -55.76 55.75 50.16 -50.16 55.76 -55.75 -50.16zm-111.5 -100.32l50.16 -55.76 55.75 50.16 -50.16 55.76 -55.75 -50.16zm-111.52 -100.32l50.16 -55.76 55.76 50.16 -50.16 55.76 -55.76 -50.16zm-111.52 -100.32l50.16 -55.76 55.76 50.16 -50.16 55.76 -55.76 -50.16zm-111.52 -100.32l50.16 -55.76 55.76 50.16 -50.16 55.76 -55.76 -50.16zm-111.52 -100.32l50.16 -55.76 55.76 50.16 -50.16 55.76 -55.76 -50.16zm-111.52 -100.32l50.16 -55.76 55.76 50.16 -50.16 55.76 -55.76 -50.16zm-111.52 -100.32l50.16 -55.76 55.76 50.16 -50.16 55.76 -55.76 -50.16zm-111.52 -100.32l50.16 -55.76 55.76 50.16 -50.16 55.76 -55.76 -50.16zm-111.52 -100.32l50.16 -55.76 55.76 50.16 -50.16 55.76 -55.76 -50.16zm-111.52 -100.32l50.16 -55.76 55.76 50.16 -50.16 55.76 -55.76 -50.16zm-111.52 -100.32l50.16 -55.76 55.76 50.16 -50.16 55.76 -55.76 -50.16zm-111.52 -100.32l50.16 -55.76 55.76 50.16 -50.16 55.76 -55.76 -50.16zm-111.52 -100.32l50.16 -55.76 55.76 50.16 -50.16 55.76 -55.76 -50.16zm-111.52 -100.32l50.16 -55.76 55.76 50.16 -50.16 55.76 -55.76 -50.16zm-111.52 -100.32l50.16 -55.76 55.76 50.16 -50.16 55.76 -55.76 -50.16zm-111.52 -100.32l50.16 -55.76 55.76 50.16 -50.16 55.76 -55.76 -50.16zm-111.52 -100.32l50.16 -55.76 55.76 50.16 -50.16 55.76 -55.76 -50.16zm-111.52 -100.32l50.16 -55.76 55.76 50.16 -50.16 55.76 -55.76 -50.16zm-111.52 -100.32l50.16 -55.76 55.76 50.16 -50.16 55.76 -55.76 -50.16zm-111.87 47.46l66.54 -34.59 -61.15 -7.78 75.24 -83.64 55.76 50.16 -75.24 83.64 -61.15 -7.79zm0 0l61.15 7.79 -36.19 40.23 -24.96 -48.02zm-100.83 -336.48l-27.39 69.82 46.96 -52.21 147.8 284.28 -66.54 34.59 -147.8 -284.27 46.97 -52.21zm0 0l-46.97 52.21 -46.13 -88.73 93.1 36.52zm312.46 176.99l-55.76 -50.16 14.18 59.99 -298.27 -117 27.39 -69.82 298.27 117 14.19 59.99zm0 0l-14.19 -59.99 50.38 19.76 -36.19 40.23zm-103.12 58.56l-27.88 -25.08 75.24 -83.64 55.76 50.16 -75.24 83.64 -27.88 -25.08z"/>
  </g>
  <g>
   <path fill="#008DD2" fill-rule="nonzero" d="M3735.53 2201.09l-1549.71 783.66 -33.84 -66.92 1549.71 -783.66 33.84 66.92zm-71.11 -171.44l8.19 74.54 29.37 -54.19 50.76 100.38 -66.92 33.84 -50.76 -100.38 29.36 -54.19zm0 0l-29.36 54.19 -24.42 -48.28 53.78 -5.91zm350.13 27.68l-55.18 -50.78 31.68 62.66 -318.44 34.98 -8.19 -74.54 318.45 -34.98 31.68 62.66zm0 0l-31.68 -62.66 99.38 -10.92 -67.7 73.58zm-277.97 227.27l66.92 -33.84 -61.05 -8.47 216.92 -235.74 55.18 50.78 -216.92 235.74 -61.05 -8.47zm0 0l61.05 8.47 -36.64 39.81 -24.41 -48.28zm-17.3 -117.3l33.46 -16.92 50.76 100.38 -66.92 33.84 -50.76 -100.38 33.46 -16.92z"/>
  </g>
  <g>
   <path fill="#008DD2" fill-rule="nonzero" d="M1883.5 2810.32l69.68 -27.74 27.73 69.68 -69.68 27.74 -27.73 -69.68zm-55.46 -139.36l69.68 -27.74 27.73 69.68 -69.68 27.74 -27.73 -69.68zm-55.46 -139.36l69.68 -27.74 27.73 69.68 -69.68 27.74 -27.73 -69.68zm-55.46 -139.36l69.68 -27.74 27.73 69.68 -69.68 27.74 -27.73 -69.68zm-55.48 -139.36l69.68 -27.74 27.74 69.68 -69.68 27.74 -27.74 -69.68zm-55.48 -139.36l69.68 -27.74 27.74 69.68 -69.68 27.74 -27.74 -69.68zm-55.48 -139.36l69.68 -27.74 27.74 69.68 -69.68 27.74 -27.74 -69.68zm-55.48 -139.36l69.68 -27.74 27.74 69.68 -69.68 27.74 -27.74 -69.68zm-55.48 -139.37l69.68 -27.74 27.74 69.69 -69.68 27.74 -27.74 -69.69zm-55.48 -139.38l69.68 -27.74 27.74 69.69 -69.68 27.74 -27.74 -69.69zm25.75 -138.11l16.19 40.68 -69.68 27.74 -16.19 -40.68 69.68 -27.74zm-177.13 55.53l74.98 -1.5 -51.36 -34.09 104.53 -41.61 27.73 69.69 -104.52 41.6 -51.36 -34.09zm0 0l51.36 34.09 -50.28 20.01 -1.08 -54.1zm58.82 -346.3l-55.51 50.43 65.25 -25.97 6.42 320.34 -74.98 1.5 -6.43 -320.33 65.25 -25.97zm0 0l-65.25 25.97 -2 -99.98 67.25 74.01zm201.59 297.18l-27.74 -69.68 -13.89 60.06 -215.47 -237.13 55.51 -50.43 215.47 237.12 -13.88 60.06zm0 0l13.88 -60.06 36.39 40.05 -50.27 20.01zm-118.4 6.77l-13.86 -34.85 104.52 -41.6 27.74 69.68 -104.53 41.61 -13.87 -34.84z"/>
  </g>
  <circle fill="none" stroke="#2B2A29" stroke-width="75" stroke-miterlimit="22.9256" cx="4028.56" cy="4173.27" r="416.72"/>
  <circle fill="none" stroke="#2B2A29" stroke-width="75" stroke-miterlimit="22.9256" cx="1735.89" cy="3579.86" r="416.72"/>
 </g>
</svg>
