<?xml version="1.0" encoding="UTF-8"?>
<svg xmlns="http://www.w3.org/2000/svg" xml:space="preserve" width="2456px" height="1563px" version="1.1" viewBox="0 0 2486.72 1582.85" xmlns:xlink="http://www.w3.org/1999/xlink">
 <g id="Layer_x0020_1">
  <polyline fill="none" stroke="black" stroke-width="6.33" stroke-miterlimit="22.9256" stroke-dasharray="31.640000 18.980000" points="364.41,1543.48 520.9,1295.7 1810.19,733.59 2296.46,764.82 "/>
  <g>
   <path fill="red" fill-rule="nonzero" d="M487.51 1318.22l0 0 -1.11 -1.74 -1.01 -1.77 -0.9 -1.81 -0.81 -1.83 -0.71 -1.86 -0.62 -1.88 -0.51 -1.9 -0.42 -1.91 -0.33 -1.93 -0.23 -1.93 -0.13 -1.93 -0.05 -1.93 0.06 -1.93 0.14 -1.92 0.23 -1.91 0.32 -1.89 0.42 -1.88 0.5 -1.86 0.59 -1.83 0.68 -1.81 0.77 -1.77 0.85 -1.74 0.94 -1.7 1.02 -1.66 1.11 -1.61 1.19 -1.57 1.27 -1.51 1.36 -1.45 1.44 -1.4 1.52 -1.33 1.59 -1.26 1.68 -1.19 4.71 7 -1.32 0.94 -1.27 1 -1.19 1.05 -1.14 1.1 -1.06 1.14 -1.01 1.19 -0.94 1.24 -0.87 1.27 -0.81 1.31 -0.74 1.34 -0.67 1.37 -0.61 1.4 -0.53 1.43 -0.47 1.45 -0.4 1.47 -0.32 1.48 -0.26 1.5 -0.18 1.51 -0.12 1.52 -0.04 1.53 0.04 1.52 0.1 1.53 0.18 1.52 0.26 1.52 0.33 1.51 0.41 1.49 0.48 1.48 0.56 1.47 0.64 1.44 0.71 1.43 0.8 1.4 0.88 1.37 0 0 -7 4.72zm55.63 10.83l0 0 -1.74 1.11 -1.77 1 -1.8 0.91 -1.83 0.81 -1.86 0.71 -1.88 0.61 -1.9 0.52 -1.91 0.42 -1.92 0.33 -1.93 0.23 -1.93 0.13 -1.93 0.05 -1.93 -0.05 -1.92 -0.14 -1.91 -0.24 -1.89 -0.32 -1.88 -0.41 -1.86 -0.5 -1.83 -0.59 -1.81 -0.68 -1.77 -0.76 -1.74 -0.85 -1.7 -0.94 -1.66 -1.02 -1.62 -1.11 -1.56 -1.19 -1.51 -1.28 -1.46 -1.35 -1.4 -1.44 -1.33 -1.52 -1.26 -1.6 -1.19 -1.67 7 -4.72 0.94 1.33 1 1.26 1.05 1.2 1.1 1.13 1.14 1.07 1.19 1 1.24 0.94 1.27 0.87 1.31 0.81 1.34 0.74 1.37 0.67 1.4 0.61 1.43 0.53 1.45 0.47 1.47 0.39 1.49 0.33 1.5 0.25 1.51 0.19 1.52 0.11 1.52 0.04 1.53 -0.04 1.52 -0.11 1.52 -0.18 1.52 -0.25 1.51 -0.33 1.49 -0.41 1.48 -0.49 1.46 -0.55 1.45 -0.64 1.42 -0.72 1.4 -0.79 1.37 -0.88 0 0 4.72 7zm10.84 -55.61l0 0 1.11 1.73 1 1.77 0.91 1.81 0.81 1.83 0.71 1.86 0.61 1.88 0.52 1.9 0.42 1.91 0.32 1.92 0.23 1.93 0.14 1.94 0.04 1.93 -0.05 1.92 -0.15 1.92 -0.23 1.91 -0.32 1.9 -0.42 1.87 -0.5 1.86 -0.59 1.83 -0.68 1.81 -0.76 1.77 -0.85 1.74 -0.94 1.7 -1.02 1.66 -1.11 1.61 -1.19 1.56 -1.28 1.51 -1.35 1.46 -1.44 1.39 -1.52 1.33 -1.59 1.26 -1.67 1.19 -4.72 -7 1.33 -0.94 1.26 -0.99 1.19 -1.05 1.13 -1.1 1.07 -1.15 1 -1.19 0.94 -1.23 0.87 -1.27 0.81 -1.31 0.74 -1.34 0.67 -1.37 0.61 -1.4 0.53 -1.43 0.47 -1.45 0.4 -1.46 0.33 -1.49 0.25 -1.5 0.19 -1.51 0.11 -1.52 0.04 -1.52 -0.03 -1.53 -0.11 -1.52 -0.18 -1.52 -0.26 -1.52 -0.33 -1.51 -0.4 -1.49 -0.49 -1.48 -0.56 -1.47 -0.63 -1.44 -0.72 -1.42 -0.79 -1.4 -0.88 -1.38 0 0 7 -4.71zm-55.62 -10.86l1.73 -1.1 1.77 -1.01 1.8 -0.91 1.83 -0.8 1.86 -0.71 1.88 -0.62 1.89 -0.51 1.92 -0.42 1.92 -0.33 1.92 -0.23 1.94 -0.13 1.93 -0.05 1.92 0.06 1.92 0.14 1.91 0.23 1.9 0.32 1.87 0.41 1.86 0.5 1.84 0.6 1.8 0.67 1.77 0.77 1.74 0.85 1.71 0.94 1.66 1.02 1.61 1.11 1.57 1.19 1.51 1.28 1.46 1.35 1.39 1.44 1.33 1.52 1.27 1.6 1.19 1.68 -7 4.71 -0.94 -1.32 -1 -1.27 -1.05 -1.2 -1.1 -1.13 -1.15 -1.07 -1.19 -1 -1.23 -0.94 -1.28 -0.88 -1.31 -0.8 -1.34 -0.74 -1.37 -0.68 -1.4 -0.6 -1.43 -0.54 -1.45 -0.46 -1.47 -0.4 -1.49 -0.33 -1.5 -0.25 -1.51 -0.19 -1.52 -0.11 -1.52 -0.04 -1.53 0.04 -1.52 0.1 -1.52 0.19 -1.52 0.25 -1.5 0.33 -1.49 0.41 -1.48 0.48 -1.47 0.56 -1.44 0.64 -1.42 0.71 -1.4 0.79 -1.37 0.88 -4.71 -7zm451.27 -250.59l-396.8 267.29 -4.72 -7 396.81 -267.29 4.71 7zm22.27 -20.09l-34.85 54 -0.25 -1.74 -0.29 -1.71 -0.33 -1.69 -0.37 -1.65 -0.41 -1.63 -0.46 -1.61 -0.49 -1.57 -0.53 -1.55 -0.58 -1.52 -0.62 -1.49 -0.66 -1.46 -0.7 -1.44 -0.74 -1.41 -0.78 -1.38 -0.82 -1.35 -0.86 -1.33 -0.91 -1.3 -0.94 -1.27 -0.99 -1.24 -1.03 -1.22 -1.07 -1.19 -1.11 -1.16 -1.15 -1.13 -1.19 -1.1 -1.23 -1.08 -1.27 -1.05 -1.32 -1.02 -1.35 -1 -1.4 -0.97 -1.44 -0.93 -1.48 -0.92 -1.52 -0.88 0 0 63.14 -12.01z"/>
  </g>
  <g>
   <path fill="red" fill-rule="nonzero" d="M1771.64 737.72l0 0 -0.17 -2.05 -0.06 -2.03 0.04 -2.03 0.14 -1.99 0.24 -1.98 0.34 -1.95 0.43 -1.92 0.52 -1.89 0.62 -1.85 0.7 -1.81 0.78 -1.77 0.86 -1.73 0.95 -1.68 1.02 -1.63 1.1 -1.58 1.18 -1.53 1.24 -1.47 1.31 -1.4 1.38 -1.34 1.44 -1.28 1.51 -1.21 1.57 -1.14 1.62 -1.07 1.68 -0.98 1.73 -0.91 1.79 -0.83 1.83 -0.74 1.88 -0.65 1.92 -0.56 1.97 -0.47 2 -0.37 2.04 -0.27 0.89 8.39 -1.61 0.22 -1.58 0.29 -1.55 0.37 -1.52 0.44 -1.48 0.51 -1.44 0.59 -1.41 0.65 -1.36 0.71 -1.33 0.78 -1.28 0.84 -1.24 0.9 -1.19 0.96 -1.14 1.01 -1.09 1.06 -1.04 1.11 -0.98 1.16 -0.93 1.21 -0.87 1.25 -0.81 1.29 -0.74 1.33 -0.69 1.36 -0.62 1.4 -0.55 1.43 -0.48 1.46 -0.41 1.49 -0.34 1.51 -0.27 1.54 -0.19 1.55 -0.11 1.58 -0.03 1.6 0.04 1.6 0.14 1.63 0 0 -8.39 0.89zm44.1 35.59l0 0 -2.04 0.17 -2.04 0.06 -2.02 -0.04 -1.99 -0.15 -1.98 -0.24 -1.95 -0.33 -1.92 -0.43 -1.88 -0.52 -1.85 -0.62 -1.82 -0.69 -1.77 -0.78 -1.72 -0.87 -1.68 -0.94 -1.64 -1.03 -1.58 -1.09 -1.52 -1.17 -1.47 -1.25 -1.41 -1.31 -1.34 -1.38 -1.28 -1.44 -1.21 -1.5 -1.14 -1.57 -1.07 -1.62 -0.99 -1.68 -0.91 -1.74 -0.82 -1.78 -0.74 -1.83 -0.66 -1.88 -0.56 -1.93 -0.46 -1.96 -0.38 -2.01 -0.26 -2.04 8.39 -0.89 0.21 1.61 0.29 1.58 0.37 1.55 0.44 1.52 0.52 1.48 0.58 1.44 0.65 1.41 0.72 1.37 0.78 1.32 0.84 1.28 0.9 1.24 0.96 1.19 1.01 1.14 1.06 1.09 1.11 1.03 1.17 0.99 1.2 0.92 1.25 0.87 1.29 0.81 1.33 0.75 1.37 0.68 1.4 0.62 1.43 0.55 1.45 0.48 1.49 0.41 1.51 0.34 1.54 0.26 1.55 0.19 1.58 0.12 1.59 0.03 1.61 -0.05 1.62 -0.13 0 0 0.89 8.39zm35.59 -44.09l0 0 0.17 2.05 0.06 2.03 -0.04 2.02 -0.15 2 -0.24 1.98 -0.33 1.95 -0.44 1.91 -0.52 1.89 -0.61 1.85 -0.7 1.81 -0.78 1.78 -0.87 1.72 -0.94 1.68 -1.03 1.63 -1.1 1.58 -1.17 1.52 -1.24 1.47 -1.31 1.41 -1.38 1.34 -1.45 1.28 -1.5 1.21 -1.57 1.14 -1.62 1.06 -1.68 0.99 -1.73 0.91 -1.78 0.82 -1.84 0.74 -1.88 0.65 -1.92 0.56 -1.96 0.47 -2 0.37 -2.04 0.27 -0.89 -8.39 1.61 -0.21 1.58 -0.3 1.55 -0.36 1.51 -0.45 1.48 -0.51 1.44 -0.58 1.41 -0.65 1.36 -0.72 1.33 -0.78 1.28 -0.84 1.23 -0.9 1.19 -0.95 1.15 -1.01 1.08 -1.06 1.04 -1.12 0.99 -1.16 0.92 -1.2 0.87 -1.25 0.81 -1.29 0.75 -1.33 0.68 -1.36 0.62 -1.4 0.55 -1.43 0.49 -1.46 0.41 -1.49 0.34 -1.51 0.27 -1.53 0.19 -1.56 0.11 -1.57 0.03 -1.6 -0.05 -1.6 -0.13 -1.63 0 0 8.39 -0.89zm-44.09 -35.61l2.04 -0.16 2.04 -0.06 2.01 0.04 2 0.14 1.97 0.24 1.95 0.34 1.92 0.43 1.88 0.52 1.85 0.61 1.82 0.7 1.77 0.78 1.72 0.87 1.68 0.94 1.64 1.02 1.57 1.1 1.53 1.17 1.47 1.25 1.4 1.31 1.35 1.38 1.28 1.44 1.21 1.5 1.14 1.57 1.06 1.62 0.99 1.69 0.91 1.73 0.83 1.79 0.74 1.83 0.65 1.88 0.56 1.93 0.47 1.96 0.37 2.01 0.27 2.04 -8.39 0.89 -0.21 -1.61 -0.3 -1.59 -0.36 -1.55 -0.45 -1.51 -0.51 -1.49 -0.59 -1.44 -0.65 -1.41 -0.71 -1.36 -0.78 -1.33 -0.84 -1.28 -0.9 -1.24 -0.96 -1.19 -1.01 -1.14 -1.06 -1.09 -1.12 -1.04 -1.16 -0.98 -1.21 -0.93 -1.25 -0.87 -1.29 -0.8 -1.32 -0.75 -1.37 -0.68 -1.4 -0.62 -1.43 -0.55 -1.45 -0.48 -1.49 -0.42 -1.51 -0.34 -1.53 -0.26 -1.56 -0.19 -1.57 -0.11 -1.59 -0.03 -1.61 0.04 -1.62 0.13 -0.89 -8.39zm499.63 -8.79l-459.29 49.03 -0.89 -8.4 459.29 -49.02 0.89 8.39zm29.07 -7.35l-56.04 31.44 0.59 -1.65 0.54 -1.65 0.5 -1.64 0.45 -1.64 0.39 -1.64 0.35 -1.63 0.3 -1.62 0.25 -1.62 0.2 -1.61 0.15 -1.61 0.11 -1.6 0.05 -1.59 0 -1.6 -0.04 -1.58 -0.1 -1.58 -0.14 -1.58 -0.19 -1.57 -0.24 -1.57 -0.29 -1.56 -0.34 -1.55 -0.39 -1.55 -0.44 -1.54 -0.49 -1.54 -0.54 -1.54 -0.58 -1.53 -0.64 -1.52 -0.68 -1.52 -0.73 -1.51 -0.79 -1.51 -0.83 -1.5 -0.88 -1.5 -0.93 -1.49 0 0 61.42 18.9z"/>
  </g>
  <g>
   <path fill="blue" fill-rule="nonzero" d="M522.09 641.67l0 654.03 -2.39 0 0 -654.03 2.39 0zm-9.7 -4.61l0 -8.51 8.51 -8.51 8.5 8.51 0 8.51 -8.5 -8.51 -8.51 8.51zm0 17.01l0 -8.51 8.51 -8.5 8.5 8.5 0 8.51 -8.5 -8.51 -8.51 8.51z"/>
  </g>
  <g>
   <path fill="blue" fill-rule="nonzero" d="M1811.38 79.56l0 654.03 -2.39 0 0 -654.03 2.39 0zm-9.7 -4.62l0 -8.5 8.51 -8.51 8.5 8.51 0 8.5 -8.5 -8.5 -8.51 8.5zm0 17.01l0 -8.5 8.51 -8.51 8.5 8.51 0 8.5 -8.5 -8.5 -8.51 8.5z"/>
  </g>
  <g>
   <path fill="blue" fill-rule="nonzero" d="M1496.6 1368.42l-341.97 1.79 -0.02 -2.39 341.98 -1.79 0.01 2.39zm4.57 -9.72l8.5 -0.05 8.55 8.46 -8.46 8.55 -8.5 0.05 8.46 -8.55 -8.55 -8.46zm-17.01 0.08l8.5 -0.04 8.55 8.46 -8.46 8.55 -8.5 0.04 8.46 -8.55 -8.55 -8.46z"/>
  </g>
  <g>
   <path fill="red" fill-rule="nonzero" d="M1127.91 1465.55l0 0 0.03 -2.06 0.14 -2.03 0.25 -2.01 0.34 -1.98 0.43 -1.94 0.53 -1.91 0.62 -1.86 0.71 -1.83 0.79 -1.78 0.88 -1.74 0.95 -1.68 1.04 -1.64 1.1 -1.57 1.18 -1.53 1.25 -1.46 1.32 -1.4 1.38 -1.33 1.45 -1.27 1.51 -1.2 1.56 -1.13 1.62 -1.06 1.67 -0.97 1.72 -0.9 1.77 -0.82 1.82 -0.73 1.85 -0.64 1.9 -0.56 1.94 -0.46 1.97 -0.37 2 -0.27 2.03 -0.17 2.05 -0.06 0.06 8.44 -1.63 0.05 -1.6 0.13 -1.58 0.21 -1.55 0.29 -1.52 0.37 -1.5 0.43 -1.46 0.51 -1.43 0.58 -1.4 0.64 -1.36 0.71 -1.32 0.77 -1.28 0.84 -1.23 0.89 -1.19 0.95 -1.15 1 -1.09 1.06 -1.04 1.11 -0.99 1.16 -0.94 1.2 -0.87 1.25 -0.82 1.29 -0.75 1.33 -0.69 1.37 -0.63 1.4 -0.56 1.44 -0.49 1.47 -0.41 1.5 -0.35 1.53 -0.26 1.56 -0.2 1.58 -0.11 1.61 -0.03 1.63 0 0 -8.43 0.06zm40.35 39.78l0 0 -2.05 -0.03 -2.03 -0.14 -2.01 -0.25 -1.97 -0.34 -1.94 -0.43 -1.9 -0.53 -1.87 -0.62 -1.83 -0.7 -1.78 -0.8 -1.73 -0.87 -1.69 -0.95 -1.63 -1.04 -1.58 -1.1 -1.52 -1.18 -1.46 -1.25 -1.4 -1.32 -1.34 -1.38 -1.27 -1.44 -1.2 -1.51 -1.13 -1.56 -1.06 -1.62 -0.98 -1.67 -0.9 -1.72 -0.82 -1.77 -0.73 -1.81 -0.64 -1.86 -0.56 -1.9 -0.46 -1.94 -0.37 -1.97 -0.27 -2 -0.17 -2.03 -0.06 -2.05 8.43 -0.06 0.06 1.62 0.13 1.61 0.21 1.58 0.29 1.55 0.37 1.52 0.43 1.5 0.51 1.46 0.58 1.43 0.64 1.4 0.71 1.35 0.78 1.32 0.83 1.28 0.89 1.24 0.95 1.19 1.01 1.14 1.06 1.09 1.11 1.05 1.15 0.98 1.21 0.94 1.25 0.87 1.29 0.82 1.33 0.75 1.37 0.69 1.4 0.62 1.44 0.56 1.47 0.49 1.5 0.41 1.53 0.35 1.55 0.26 1.59 0.19 1.6 0.12 1.63 0.03 0 0 0.05 8.43zm39.79 -40.34l0 0 -0.04 2.06 -0.14 2.03 -0.24 2.01 -0.34 1.97 -0.44 1.94 -0.53 1.91 -0.61 1.86 -0.71 1.83 -0.79 1.78 -0.88 1.73 -0.96 1.69 -1.03 1.63 -1.11 1.58 -1.18 1.52 -1.25 1.46 -1.31 1.4 -1.39 1.34 -1.44 1.27 -1.51 1.2 -1.56 1.12 -1.62 1.06 -1.67 0.98 -1.72 0.89 -1.77 0.82 -1.81 0.73 -1.86 0.65 -1.89 0.55 -1.94 0.46 -1.97 0.37 -2 0.27 -2.02 0.17 -2.06 0.06 -0.05 -8.43 1.62 -0.06 1.6 -0.13 1.58 -0.21 1.55 -0.29 1.52 -0.37 1.49 -0.43 1.47 -0.51 1.43 -0.58 1.39 -0.64 1.36 -0.71 1.32 -0.77 1.28 -0.83 1.23 -0.9 1.19 -0.94 1.15 -1.01 1.09 -1.06 1.04 -1.1 0.99 -1.16 0.94 -1.2 0.87 -1.25 0.82 -1.29 0.75 -1.33 0.69 -1.37 0.63 -1.4 0.55 -1.44 0.49 -1.47 0.42 -1.5 0.34 -1.53 0.27 -1.56 0.19 -1.58 0.11 -1.6 0.03 -1.63 0 0 8.44 -0.06zm-40.34 -39.8l2.05 0.03 2.03 0.15 2.01 0.24 1.97 0.34 1.94 0.43 1.9 0.53 1.87 0.62 1.82 0.71 1.78 0.79 1.74 0.87 1.68 0.96 1.63 1.03 1.58 1.1 1.52 1.18 1.46 1.25 1.4 1.32 1.34 1.38 1.27 1.45 1.2 1.5 1.13 1.57 1.06 1.61 0.98 1.68 0.9 1.72 0.81 1.77 0.74 1.81 0.64 1.86 0.56 1.9 0.46 1.94 0.37 1.97 0.27 2 0.17 2.04 0.06 2.05 -8.44 0.06 -0.05 -1.63 -0.13 -1.6 -0.22 -1.58 -0.29 -1.56 -0.36 -1.52 -0.44 -1.5 -0.51 -1.46 -0.57 -1.43 -0.65 -1.4 -0.71 -1.36 -0.77 -1.32 -0.83 -1.28 -0.9 -1.23 -0.95 -1.19 -1 -1.15 -1.06 -1.09 -1.11 -1.04 -1.15 -0.99 -1.21 -0.93 -1.25 -0.88 -1.29 -0.81 -1.33 -0.76 -1.36 -0.69 -1.41 -0.62 -1.44 -0.56 -1.46 -0.49 -1.5 -0.41 -1.53 -0.35 -1.56 -0.26 -1.57 -0.19 -1.61 -0.11 -1.62 -0.03 -0.06 -8.44zm322.71 42.05l-286.56 1.98 -0.06 -8.44 286.56 -1.98 0.06 8.44zm29.65 -4.43l-58.89 25.73 0.76 -1.59 0.7 -1.59 0.66 -1.58 0.61 -1.59 0.55 -1.59 0.51 -1.58 0.46 -1.59 0.41 -1.58 0.36 -1.59 0.31 -1.58 0.26 -1.59 0.21 -1.58 0.16 -1.58 0.12 -1.59 0.06 -1.58 0.01 -1.58 -0.03 -1.58 -0.09 -1.59 -0.13 -1.58 -0.18 -1.58 -0.24 -1.58 -0.28 -1.58 -0.33 -1.58 -0.38 -1.58 -0.44 -1.58 -0.48 -1.58 -0.53 -1.57 -0.58 -1.58 -0.63 -1.58 -0.67 -1.58 -0.73 -1.58 -0.78 -1.57 0 0 59.24 24.9z"/>
  </g>
  <polyline fill="none" stroke="black" stroke-width="2.39" stroke-miterlimit="22.9256" points="520.9,1295.7 144.79,54.23 1810.19,733.59 "/>
  <line fill="none" stroke="black" stroke-width="6.33" stroke-miterlimit="22.9256" stroke-dasharray="31.640000 18.980000" x1="1151.51" y1="1278.78" x2="1510.65" y2= "1278.78" />
  <text x="581.81" y="1424.19"  fill="black" font-style="italic" font-weight="normal" font-size="101.26px" font-family="Arial">C</text>
  <text x="2.09" y="72.5"  fill="black" font-style="italic" font-weight="normal" font-size="101.26px" font-family="Arial">A</text>
  <text x="1803.21" y="873.61"  fill="black" font-style="italic" font-weight="normal" font-size="101.26px" font-family="Arial">B</text>
  <text x="174.88" y="734.74"  fill="black" font-style="italic" font-weight="normal" font-size="101.26px" font-family="Arial">b</text>
  <text x="920.38" y="221.78"  fill="black" font-style="italic" font-weight="normal" font-size="101.26px" font-family="Arial">c</text>
  <text x="1275.41" y="1134.04"  fill="black" font-style="italic" font-weight="normal" font-size="101.26px" font-family="Arial">a</text>
  <g>
   <path fill="black" fill-rule="nonzero" d="M672.52 1187.94l2.08 -1.19 2.44 4.11 -2.07 1.19 -2.45 -4.11zm-6.3 -10.08l2 -1.31 0.4 0.59 2.2 3.47 -2.04 1.25 -2.16 -3.41 -0.4 -0.59zm-6.82 -9.77l1.95 -1.38 2.82 3.87 -1.96 1.38 -2.81 -3.87zm-7.3 -9.37l1.86 -1.51 1.24 1.48 1.78 2.28 -1.91 1.44 -1.73 -2.22 -1.24 -1.47zm-7.87 -8.94l1.8 -1.58 3.22 3.54 -1.8 1.57 -3.22 -3.53zm-8.45 -8.32l1.67 -1.72 3.29 3.07 0.23 0.24 -1.73 1.64 -0.17 -0.17 -3.29 -3.06zm-9.04 -7.66l1.51 -1.86 2.23 1.73 1.53 1.31 -1.59 1.78 -1.45 -1.24 -2.23 -1.72zm-9.62 -6.9l1.32 -1.99 1.25 0.79 2.75 1.93 -1.42 1.93 -2.66 -1.87 -1.24 -0.79zm-10.19 -6.04l1.13 -2.1 0.29 0.14 3.93 2.23 -1.23 2.05 -3.82 -2.17 -0.3 -0.15zm-10.76 -5.07l1.02 -2.16 4.38 1.92 -1.02 2.17 -4.38 -1.93zm-11.12 -4.03l0.79 -2.25 4.41 1.43 0.19 0.07 -0.9 2.22 -0.08 -0.03 -4.41 -1.44zm-11.45 -3.01l0.57 -2.33 3.26 0.71 1.45 0.4 -0.68 2.29 -1.34 -0.36 -3.26 -0.71zm-11.66 -2.05l0.34 -2.37 1.69 0.2 3.1 0.53 -0.46 2.35 -2.98 -0.51 -1.69 -0.2zm-11.85 -1.13l0.24 -2.38 4.77 0.36 -0.24 2.38 -4.77 -0.36zm-11.85 -0.22l0.03 -2.39 4.28 -0.04 0.55 0.01 -0.12 2.39 -0.46 -0.01 -4.28 0.04zm-11.85 0.5l-0.16 -2.38 1.18 -0.11 3.64 -0.18 0.07 2.4 -3.55 0.17 -1.18 0.1zm-11.85 1.23l-0.25 -2.38 4.75 -0.59 0.25 2.38 -4.75 0.59zm-11.74 1.8l-0.41 -2.36 0.95 -0.18 3.81 -0.61 0.33 2.37 -3.73 0.59 -0.95 0.19zm-11.68 2.37l-0.48 -2.34 4.3 -0.96 0.4 -0.08 0.42 2.36 -0.34 0.06 -4.3 0.96zm-11.59 2.81l-0.55 -2.33 4.64 -1.17 0.55 2.32 -4.64 1.18zm-16.11 3.06l25.45 -20.03 -0.17 0.87 -0.14 0.86 -0.12 0.86 -0.09 0.85 -0.07 0.84 -0.05 0.84 -0.02 0.83 0 0.83 0.03 0.82 0.05 0.81 0.07 0.81 0.1 0.8 0.12 0.79 0.15 0.78 0.17 0.78 0.19 0.78 0.22 0.76 0.25 0.76 0.26 0.76 0.29 0.75 0.32 0.74 0.34 0.73 0.36 0.73 0.39 0.72 0.41 0.72 0.43 0.71 0.46 0.7 0.49 0.69 0.5 0.69 0.54 0.69 0.55 0.67 0.58 0.67 0 0 -32.06 -4.61z"/>
  </g>
  <g>
   <path fill="black" fill-rule="nonzero" d="M768.74 1129.98l-26.45 -18.69 0 0 0.88 -0.09 0.87 -0.11 0.86 -0.13 0.84 -0.15 0.83 -0.18 0.82 -0.19 0.8 -0.22 0.79 -0.23 0.78 -0.26 0.76 -0.28 0.75 -0.3 0.74 -0.32 0.72 -0.35 0.72 -0.36 0.7 -0.39 0.68 -0.4 0.67 -0.43 0.66 -0.45 0.65 -0.47 0.64 -0.49 0.62 -0.51 0.6 -0.54 0.6 -0.55 0.58 -0.58 0.57 -0.6 0.55 -0.62 0.55 -0.64 0.53 -0.66 0.51 -0.68 0.51 -0.71 0.49 -0.72 0.47 -0.75 4.71 32.05zm-11.42 -16.16l2.04 -1.25 2.57 4.03 -2.04 1.25 -2.57 -4.03zm-6.62 -9.91l2 -1.32 2.71 3.94 -2 1.32 -2.71 -3.94zm-7.04 -9.56l1.9 -1.46 0.61 0.76 2.29 3.1 -1.95 1.39 -2.24 -3.03 -0.61 -0.76zm-7.52 -9.24l1.84 -1.52 2.56 2.99 0.55 0.7 -1.89 1.45 -0.51 -0.63 -2.55 -2.99zm-7.94 -8.88l1.78 -1.59 3.25 3.52 -1.79 1.59 -3.24 -3.52zm-8.35 -8.44l1.67 -1.71 1.05 0.99 2.38 2.4 -1.73 1.65 -2.32 -2.34 -1.05 -0.99zm-8.81 -8.01l1.6 -1.78 3.59 3.13 0.05 0.04 -1.67 1.72 0.02 0.01 -3.59 -3.12zm-9.19 -7.6l1.54 -1.83 3.72 3.01 -1.53 1.83 -3.73 -3.01zm-9.56 -7.02l1.39 -1.94 2.54 1.75 1.4 1.05 -1.47 1.89 -1.32 -0.99 -2.54 -1.76zm-9.94 -6.57l1.32 -1.99 4.04 2.57 -1.33 1.99 -4.03 -2.57zm-10.23 -6.02l1.17 -2.08 1.5 0.8 2.7 1.59 -1.25 2.04 -2.62 -1.54 -1.5 -0.81zm-10.57 -5.49l1.1 -2.13 4.28 2.12 -1.09 2.13 -4.29 -2.12zm-10.78 -4.97l0.94 -2.2 0.32 0.13 4.08 1.84 -1.02 2.16 -4.01 -1.8 -0.31 -0.13zm-11.08 -4.39l0.87 -2.23 3.6 1.33 0.91 0.37 -0.95 2.2 -0.83 -0.34 -3.6 -1.33zm-11.26 -3.9l0.79 -2.26 4.54 1.51 -0.79 2.25 -4.54 -1.5zm-11.4 -3.33l0.63 -2.31 2.11 0.55 2.54 0.75 -0.72 2.28 -2.46 -0.73 -2.1 -0.54zm-11.58 -2.83l0.56 -2.32 4.67 1.05 -0.57 2.32 -4.66 -1.05zm-11.65 -2.35l0.42 -2.36 0.05 0.01 4.68 0.91 -0.49 2.34 -4.61 -0.9 -0.05 0zm-11.78 -1.82l0.34 -2.36 3.18 0.41 1.59 0.26 -0.41 2.36 -1.53 -0.25 -3.17 -0.42zm-11.85 -1.38l0.28 -2.37 4.76 0.49 -0.28 2.37 -4.76 -0.49zm-11.85 -0.94l0.14 -2.39 0.23 0.01 4.58 0.34 -0.21 2.38 -4.51 -0.33 -0.23 -0.01zm-11.92 -0.47l0.08 -2.39 3.06 0.06 1.75 0.08 -0.14 2.39 -1.69 -0.08 -3.06 -0.06zm-11.92 -0.08l0.01 -2.39 4.78 -0.04 -0.01 2.4 -4.78 0.03zm-11.93 0.29l-0.05 -2.39 4.79 -0.15 0.04 2.39 -4.78 0.15z"/>
  </g>
  <g>
   <path fill="black" fill-rule="nonzero" d="M895.19 1131.99l-23.61 -22.17 0 0 0.89 0.03 0.87 0.02 0.87 -0.02 0.85 -0.03 0.85 -0.06 0.84 -0.07 0.82 -0.11 0.82 -0.12 0.8 -0.15 0.8 -0.17 0.78 -0.2 0.78 -0.21 0.76 -0.24 0.76 -0.26 0.75 -0.29 0.73 -0.3 0.73 -0.34 0.71 -0.35 0.71 -0.38 0.69 -0.39 0.69 -0.43 0.68 -0.44 0.66 -0.47 0.66 -0.49 0.64 -0.51 0.64 -0.54 0.63 -0.56 0.61 -0.58 0.61 -0.6 0.59 -0.63 0.59 -0.65 0.58 -0.68 0.22 32.39zm-9.04 -17.59l2.19 -0.96 1.96 4.36 -2.19 0.96 -1.96 -4.36zm-5.06 -10.79l2.16 -1.04 0.86 1.75 1.22 2.58 -2.18 1 -1.19 -2.55 -0.87 -1.74zm-5.39 -10.65l2.13 -1.08 2.2 4.25 -2.13 1.08 -2.2 -4.25zm-5.75 -10.43l2.09 -1.16 2.08 3.65 0.29 0.53 -2.11 1.12 -0.27 -0.49 -2.08 -3.65zm-6.09 -10.24l2.05 -1.24 1.05 1.69 1.44 2.41 -2.06 1.21 -1.42 -2.38 -1.06 -1.69zm-6.44 -10.04l2.02 -1.29 2.61 4 -2.01 1.29 -2.62 -4zm-6.81 -9.77l1.96 -1.37 2.78 3.89 -1.96 1.37 -2.78 -3.89zm-7.15 -9.52l1.9 -1.45 1.87 2.4 1.06 1.41 -1.93 1.41 -1.03 -1.37 -1.87 -2.4zm-7.49 -9.26l1.84 -1.53 0.76 0.89 2.3 2.82 -1.87 1.49 -2.27 -2.78 -0.76 -0.89zm-7.84 -9l1.8 -1.57 3.18 3.58 -1.8 1.57 -3.18 -3.58zm-8.15 -8.69l1.74 -1.64 2.97 3.07 0.36 0.4 -1.77 1.6 -0.33 -0.35 -2.97 -3.08zm-8.43 -8.41l1.67 -1.71 1.61 1.54 1.83 1.82 -1.7 1.68 -1.8 -1.79 -1.61 -1.54zm-8.7 -8.13l1.6 -1.78 0.02 0.02 3.52 3.24 -1.64 1.74 -3.49 -3.21 -0.01 -0.01zm-8.99 -7.85l1.57 -1.81 3.64 3.11 -1.57 1.8 -3.64 -3.1zm-9.2 -7.57l1.5 -1.86 1.79 1.42 1.95 1.6 -1.54 1.83 -1.91 -1.57 -1.79 -1.42zm-9.43 -7.33l1.47 -1.89 3.8 2.91 -1.47 1.89 -3.8 -2.91zm-9.61 -7.05l1.41 -1.94 3.19 2.29 0.71 0.52 -1.44 1.91 -0.68 -0.5 -3.19 -2.28zm-9.77 -6.83l1.35 -1.98 0.5 0.34 3.45 2.39 -1.38 1.95 -3.42 -2.37 -0.5 -0.33zm-9.95 -6.6l1.32 -2 4.01 2.61 -1.32 2 -4.01 -2.61zm-9.33 -5.94l1.27 -2.03 0 0 3.32 2.09 -1.29 2.02 -3.3 -2.08 0 0zm-0.74 -0.46l1.26 -2.03 0.75 0.46 -1.27 2.03 -0.74 -0.46zm-10.24 -6.13l1.23 -2.05 4.13 2.41 -1.23 2.06 -4.13 -2.42zm-10.39 -5.83l1.15 -2.1 2.16 1.16 2.05 1.16 -1.19 2.07 -2.01 -1.13 -2.16 -1.16zm-10.57 -5.55l1.12 -2.12 4.25 2.19 -1.12 2.12 -4.25 -2.19zm-10.72 -5.21l1.04 -2.16 3.87 1.83 0.47 0.23 -1.07 2.14 -0.43 -0.22 -3.88 -1.82zm-10.86 -4.91l0.97 -2.19 1.5 0.65 2.89 1.3 -1 2.17 -2.85 -1.28 -1.51 -0.65zm-11.01 -4.59l0.92 -2.21 4.43 1.8 -0.92 2.21 -4.43 -1.8zm-11.13 -4.26l0.84 -2.23 3.58 1.31 0.92 0.36 -0.88 2.22 -0.88 -0.34 -3.58 -1.32zm-11.25 -3.93l0.76 -2.27 1.31 0.43 3.24 1.12 -0.81 2.26 -3.19 -1.11 -1.31 -0.43zm-11.38 -3.61l0.72 -2.28 4.57 1.41 -0.72 2.28 -4.57 -1.41zm-11.47 -3.25l0.65 -2.3 3.7 0.99 0.93 0.27 -0.68 2.29 -0.89 -0.25 -3.71 -1zm-11.55 -2.93l0.56 -2.32 1.53 0.35 3.14 0.79 -0.6 2.32 -3.11 -0.78 -1.52 -0.36zm-11.65 -2.58l0.52 -2.34 4.68 1 -0.52 2.34 -4.68 -1zm-11.71 -2.23l0.44 -2.35 4.17 0.74 0.56 0.11 -0.48 2.34 -0.52 -0.1 -4.17 -0.74zm-11.77 -1.89l0.36 -2.37 2.06 0.3 2.69 0.43 -0.4 2.35 -2.64 -0.42 -2.07 -0.29zm-11.83 -1.56l0.31 -2.37 4.75 0.59 -0.31 2.37 -4.75 -0.59zm-11.86 -1.18l0.23 -2.38 4.77 0.42 -0.24 2.38 -4.76 -0.42zm-11.89 -0.84l0.15 -2.39 2.85 0.15 1.95 0.14 -0.19 2.39 -1.91 -0.14 -2.85 -0.15zm-11.91 -0.51l0.07 -2.39 0.83 0.01 3.98 0.16 -0.11 2.39 -3.94 -0.15 -0.83 -0.02zm-11.93 -0.15l0.03 -2.39 4.78 0.02 -0.03 2.39 -4.78 -0.02z"/>
  </g>
  <g>
   <path fill="black" fill-rule="nonzero" d="M1994.28 709.52l2.38 -0.25 0.57 4.75 -2.38 0.25 -0.57 -4.75zm-1.92 -11.7l2.35 -0.45 0.21 1.05 0.65 3.69 -2.36 0.38 -0.64 -3.63 -0.21 -1.04zm-2.67 -11.59l2.32 -0.58 0.66 2.5 0.51 2.17 -2.34 0.52 -0.49 -2.11 -0.66 -2.5zm-3.39 -11.4l2.28 -0.7 1.27 3.9 0.2 0.69 -2.3 0.64 -0.19 -0.63 -1.26 -3.9zm-4.1 -11.12l2.22 -0.9 0.15 0.35 1.6 4.14 -2.24 0.83 -1.58 -4.08 -0.15 -0.34zm-4.82 -10.87l2.16 -1.02 0.81 1.68 1.22 2.69 -2.19 0.96 -1.19 -2.64 -0.81 -1.67zm-5.51 -10.54l2.11 -1.14 1.62 2.9 0.69 1.33 -2.14 1.08 -0.66 -1.27 -1.62 -2.9zm-6.15 -10.17l2.03 -1.25 2.55 4.01 0.04 0.05 -2.08 1.2 0 0 -2.54 -4.01zm-6.79 -9.72l1.92 -1.42 0.51 0.66 2.32 3.24 -1.96 1.36 -2.29 -3.17 -0.5 -0.67zm-7.43 -9.28l1.84 -1.53 1.4 1.62 1.68 2.08 -1.88 1.48 -1.64 -2.02 -1.4 -1.63zm-8 -8.8l1.75 -1.63 2.35 2.44 0.96 1.06 -1.79 1.58 -0.92 -1.01 -2.35 -2.44zm-8.55 -8.26l1.65 -1.73 3.35 3.09 0.19 0.18 -1.7 1.69 -0.14 -0.14 -3.35 -3.09zm-9.03 -7.67l1.49 -1.87 0.12 0.08 3.61 2.97 -1.54 1.83 -3.56 -2.93 -0.12 -0.08zm-9.54 -7.09l1.38 -1.96 0.86 0.59 3.05 2.22 -1.43 1.91 -3 -2.17 -0.86 -0.59zm-8.41 -5.55l1.26 -2.03 0 0 2.53 1.62 -1.32 2 -2.47 -1.59 0 0zm-1.57 -0.91l1.26 -2.03 1.57 0.91 -1.26 2.03 -1.57 -0.91zm-10.37 -5.82l1.16 -2.1 3.68 1.91 0.6 0.35 -1.26 2.04 -0.49 -0.29 -3.69 -1.91zm-10.7 -5.19l1.04 -2.15 4.35 1.99 -1.04 2.15 -4.35 -1.99zm-11.01 -4.52l0.94 -2.2 4.44 1.77 -0.93 2.2 -4.45 -1.77zm-11.24 -3.7l0.71 -2.28 2.37 0.67 2.25 0.77 -0.82 2.25 -2.15 -0.73 -2.36 -0.68zm-11.51 -3.01l0.6 -2.32 4.66 1.08 -0.6 2.32 -4.66 -1.08zm-11.67 -2.31l0.48 -2.34 4.71 0.85 -0.48 2.34 -4.71 -0.85zm-11.74 -1.51l0.25 -2.37 1.74 0.14 3.07 0.4 -0.37 2.36 -2.95 -0.38 -1.74 -0.15zm-11.88 -0.74l0.14 -2.38 4.65 0.15 0.19 0.01 -0.26 2.38 -0.06 0 -4.66 -0.16zm-11.9 -0.02l0.02 -2.39 4.79 -0.08 -0.02 2.39 -4.79 0.08zm-11.81 0.76l-0.21 -2.38 1.54 -0.18 3.28 -0.21 0.1 2.39 -3.17 0.21 -1.54 0.17zm-11.8 1.54l-0.33 -2.37 4.48 -0.72 0.31 -0.04 0.2 2.39 -0.18 0.02 -4.48 0.72zm-11.69 2.24l-0.43 -2.36 4.68 -0.98 0.43 2.35 -4.68 0.99zm-11.46 2.99l-0.66 -2.3 1.49 -0.46 3.18 -0.83 0.55 2.32 -3.07 0.8 -1.49 0.47zm-11.29 3.74l-0.77 -2.26 4.27 -1.56 0.28 -0.09 0.66 2.3 -0.17 0.06 -4.27 1.55zm-11.05 4.42l-0.87 -2.22 4.41 -1.86 0.87 2.23 -4.41 1.85zm-10.68 5.11l-1.08 -2.13 1.31 -0.7 3.02 -1.45 0.98 2.18 -2.92 1.4 -1.31 0.7zm-10.37 5.84l-1.19 -2.08 3.79 -2.28 0.37 -0.2 1.08 2.13 -0.26 0.14 -3.79 2.29zm-10 6.45l-1.28 -2.02 3.97 -2.67 1.28 2.02 -3.97 2.67zm-9.51 7.05l-1.47 -1.88 0.83 -0.69 3.01 -2.25 1.39 1.95 -2.92 2.18 -0.84 0.69zm-9.05 7.72l-1.57 -1.81 2.87 -2.61 0.74 -0.62 1.48 1.88 -0.66 0.54 -2.86 2.62zm-8.56 8.25l-1.66 -1.72 3.37 -3.4 1.65 1.73 -3.36 3.39zm-8.05 8.77l-1.74 -1.64 3.2 -3.56 1.74 1.64 -3.2 3.56zm-7.35 9.28l-1.9 -1.46 1.47 -2.01 1.48 -1.83 1.82 1.55 -1.4 1.74 -1.47 2.01zm-6.81 9.75l-1.97 -1.36 2.62 -4 1.97 1.36 -2.62 4zm-6.23 10.08l-2.07 -1.18 0.05 -0.09 0.23 -0.41 0.24 -0.42 0.24 -0.41 0.24 -0.42 0.24 -0.41 0.25 -0.42 0.24 -0.41 0.25 -0.42 0.24 -0.41 0.21 -0.33 2.04 1.23 -0.19 0.33 -0.25 0.41 -0.24 0.41 -0.24 0.41 -0.24 0.4 -0.24 0.41 -0.24 0.41 -0.23 0.41 -0.24 0.41 -0.24 0.42 -0.05 0.08zm-3.75 6.95l-2.13 -1.09 0.22 -0.42 0.14 -0.27 2.12 1.1 -0.13 0.26 -0.22 0.42zm-7.89 12.76l2.24 -32.31 0.53 0.71 0.55 0.69 0.55 0.66 0.57 0.64 0.58 0.62 0.59 0.6 0.6 0.57 0.61 0.55 0.63 0.54 0.63 0.5 0.65 0.49 0.66 0.46 0.66 0.44 0.69 0.42 0.69 0.4 0.7 0.38 0.72 0.35 0.72 0.33 0.74 0.31 0.75 0.29 0.76 0.26 0.77 0.24 0.79 0.22 0.79 0.2 0.81 0.18 0.82 0.15 0.82 0.13 0.84 0.11 0.86 0.09 0.86 0.06 0.87 0.04 0.89 0.02 0 0 -24.94 20.66z"/>
  </g>
  <g>
   <path fill="black" fill-rule="nonzero" d="M2100.79 701.24l-16.09 -28.11 0 0 0.84 0.29 0.84 0.27 0.83 0.24 0.82 0.22 0.83 0.19 0.82 0.17 0.82 0.14 0.82 0.12 0.81 0.1 0.81 0.07 0.81 0.04 0.8 0.02 0.81 0 0.79 -0.03 0.8 -0.06 0.79 -0.08 0.8 -0.1 0.78 -0.13 0.79 -0.15 0.78 -0.18 0.78 -0.2 0.78 -0.23 0.77 -0.25 0.77 -0.28 0.77 -0.3 0.76 -0.33 0.77 -0.35 0.75 -0.37 0.76 -0.4 0.76 -0.43 0.75 -0.45 0.74 -0.48 -9.26 31.04zm-3.51 -19.47l2.37 -0.27 0.61 4.74 -2.37 0.27 -0.61 -4.74zm-1.78 -11.76l2.36 -0.4 0.21 1.17 0.56 3.58 -2.37 0.34 -0.55 -3.52 -0.21 -1.17zm-2.27 -11.71l2.34 -0.46 0.98 4.68 -2.34 0.46 -0.98 -4.68zm-2.73 -11.58l2.32 -0.58 0.47 1.8 0.68 2.87 -2.33 0.53 -0.67 -2.82 -0.47 -1.8zm-3.21 -11.48l2.3 -0.65 1.35 4.59 -2.3 0.65 -1.35 -4.59zm-3.68 -11.32l2.27 -0.76 0.86 2.44 0.68 2.12 -2.28 0.7 -0.67 -2.05 -0.86 -2.45zm-4.13 -11.18l2.25 -0.83 1.71 4.47 -2.25 0.82 -1.71 -4.46zm-4.61 -10.97l2.2 -0.94 1.37 3.07 0.56 1.34 -2.23 0.89 -0.53 -1.28 -1.37 -3.08zm-5.04 -10.81l2.17 -1 2.07 4.31 -2.17 1.01 -2.07 -4.32zm-5.52 -10.53l2.11 -1.12 2 3.64 0.3 0.59 -2.14 1.06 -0.28 -0.53 -1.99 -3.64zm-5.93 -10.31l2.05 -1.24 0.35 0.57 2.1 3.59 -2.08 1.17 -2.07 -3.52 -0.35 -0.57zm-6.41 -10.06l2.02 -1.29 2.63 3.99 -2.01 1.29 -2.64 -3.99zm-6.79 -9.75l1.94 -1.41 0.81 1.1 1.98 2.83 -1.97 1.34 -1.95 -2.77 -0.81 -1.09zm-7.25 -9.47l1.9 -1.46 2.96 3.76 -1.9 1.45 -2.96 -3.75zm-7.62 -9.13l1.81 -1.56 1.29 1.45 1.84 2.21 -1.85 1.51 -1.81 -2.16 -1.28 -1.45zm-8.04 -8.81l1.77 -1.61 3.27 3.49 -1.76 1.61 -3.28 -3.49zm-8.39 -8.42l1.67 -1.71 1.69 1.6 1.75 1.77 -1.72 1.66 -1.7 -1.72 -1.69 -1.6zm-8.77 -8.08l1.62 -1.75 3.56 3.19 -1.62 1.76 -3.56 -3.2zm-9.1 -7.65l1.52 -1.85 1.92 1.54 1.8 1.52 -1.57 1.8 -1.75 -1.48 -1.92 -1.53zm-9.44 -7.28l1.46 -1.89 3.83 2.87 -1.47 1.89 -3.82 -2.87zm-9.73 -6.83l1.35 -1.98 1.87 1.24 2.11 1.48 -1.41 1.94 -2.05 -1.44 -1.87 -1.24zm-10.01 -6.44l1.25 -2.04 0.43 0.25 3.65 2.3 -1.29 2.01 -3.61 -2.27 -0.43 -0.25zm-10.29 -5.98l1.16 -2.09 1.22 0.66 2.97 1.7 -1.21 2.07 -2.93 -1.68 -1.21 -0.66zm-10.55 -5.54l1.08 -2.13 2.11 1.04 2.18 1.14 -1.13 2.11 -2.13 -1.12 -2.11 -1.04zm-10.78 -5.07l1 -2.18 3.11 1.39 1.27 0.6 -1.04 2.15 -1.23 -0.58 -3.11 -1.38zm-10.98 -4.61l0.91 -2.21 4.19 1.68 0.27 0.11 -0.96 2.2 -0.22 -0.1 -4.19 -1.68zm-11.16 -4.11l0.78 -2.26 0.3 0.1 4.23 1.51 -0.82 2.24 -4.18 -1.49 -0.31 -0.1zm-11.35 -3.61l0.69 -2.29 1.51 0.44 3.09 0.96 -0.73 2.28 -3.05 -0.95 -1.51 -0.44zm-11.49 -3.12l0.6 -2.32 2.77 0.69 1.88 0.51 -0.64 2.31 -1.84 -0.5 -2.77 -0.69zm-11.62 -2.62l0.51 -2.34 4.09 0.85 0.61 0.14 -0.55 2.33 -0.58 -0.13 -4.08 -0.85zm-11.7 -2.12l0.37 -2.36 0.23 0.03 4.51 0.76 -0.42 2.36 -4.47 -0.76 -0.22 -0.03zm-11.81 -1.6l0.29 -2.37 1.59 0.17 3.18 0.42 -0.33 2.36 -3.13 -0.4 -1.6 -0.18zm-11.86 -1.1l0.2 -2.38 2.99 0.22 1.8 0.16 -0.24 2.38 -1.76 -0.16 -2.99 -0.22zm-11.9 -0.6l0.11 -2.39 4.4 0.16 0.4 0.02 -0.15 2.39 -0.35 -0.02 -4.41 -0.16zm-11.89 -0.09l-0.03 -2.39 0.55 -0.01 4.26 -0.01 -0.02 2.39 -4.21 0.01 -0.55 0.01zm-9.95 0.3l-0.12 -2.39 2.85 -0.11 0.07 2.39 -2.8 0.11z"/>
  </g>
  <g>
   <path fill="black" fill-rule="nonzero" d="M2184.74 569.27l-24.42 -21.28 0 0 0.89 0 0.87 -0.02 0.87 -0.04 0.85 -0.06 0.84 -0.09 0.84 -0.11 0.82 -0.14 0.81 -0.15 0.8 -0.18 0.78 -0.2 0.78 -0.22 0.77 -0.25 0.76 -0.27 0.74 -0.29 0.74 -0.31 0.72 -0.33 0.71 -0.36 0.7 -0.38 0.7 -0.4 0.68 -0.43 0.67 -0.44 0.66 -0.47 0.64 -0.5 0.64 -0.51 0.63 -0.54 0.61 -0.56 0.61 -0.58 0.59 -0.6 0.58 -0.63 0.58 -0.65 0.56 -0.67 0.55 -0.69 1.43 32.35zm-9.69 -17.25l2.16 -1.04 2.11 4.3 -2.15 1.03 -2.12 -4.29zm-5.45 -10.59l2.11 -1.11 1.28 2.38 0.96 1.87 -2.13 1.07 -0.95 -1.83 -1.27 -2.38zm-5.76 -10.44l2.08 -1.18 0.3 0.51 2.05 3.68 -2.09 1.14 -2.04 -3.63 -0.3 -0.52zm-6.08 -10.27l2.06 -1.22 2.47 4.09 -2.05 1.22 -2.48 -4.09zm-6.37 -10.07l2.02 -1.29 1.83 2.81 0.77 1.22 -2.03 1.26 -0.75 -1.19 -1.84 -2.81zm-6.65 -9.89l1.97 -1.36 0.67 0.96 2.04 3 -1.99 1.33 -2.02 -2.97 -0.67 -0.96zm-6.96 -9.7l1.95 -1.4 2.82 3.87 -1.95 1.39 -2.82 -3.86zm-7.23 -9.47l1.89 -1.46 2.35 2.98 0.61 0.81 -1.92 1.42 -0.59 -0.77 -2.34 -2.98zm-7.5 -9.26l1.84 -1.53 0.97 1.15 2.08 2.56 -1.86 1.49 -2.07 -2.53 -0.96 -1.14zm-7.79 -9.05l1.82 -1.56 3.15 3.6 -1.82 1.56 -3.15 -3.6zm-8.04 -8.8l1.76 -1.62 2.69 2.86 0.59 0.66 -1.79 1.59 -0.56 -0.62 -2.69 -2.87zm-8.29 -8.56l1.7 -1.68 1.05 1.04 2.32 2.39 -1.73 1.65 -2.29 -2.35 -1.05 -1.05zm-8.55 -8.32l1.67 -1.71 3.45 3.3 -1.67 1.71 -3.45 -3.3zm-8.79 -8.05l1.61 -1.77 2.73 2.43 0.84 0.78 -1.64 1.74 -0.81 -0.75 -2.73 -2.43zm-9.01 -7.8l1.54 -1.83 0.79 0.66 2.87 2.46 -1.57 1.8 -2.84 -2.44 -0.79 -0.65zm-9.26 -7.54l1.51 -1.85 3.74 2.98 -1.51 1.86 -3.74 -2.99zm-9.45 -7.25l1.44 -1.9 2.31 1.71 1.53 1.17 -1.48 1.89 -1.49 -1.15 -2.31 -1.72zm-9.65 -6.98l1.37 -1.96 0 0 3.91 2.79 -1.41 1.93 -3.87 -2.76 0 0zm-9.89 -6.7l1.34 -1.98 3.76 2.49 0.24 0.16 -1.37 1.96 -0.21 -0.14 -3.76 -2.49zm-8.8 -5.65l1.27 -2.03 0 0 2.82 1.8 -1.3 2 -2.79 -1.77 0 0zm-1.24 -0.76l1.26 -2.03 1.25 0.76 -1.27 2.03 -1.24 -0.76zm-10.25 -6.12l1.23 -2.06 4.13 2.42 -1.23 2.06 -4.13 -2.42zm-10.4 -5.82l1.15 -2.09 3.1 1.67 1.12 0.63 -1.19 2.08 -1.08 -0.61 -3.1 -1.68zm-10.56 -5.52l1.08 -2.13 0.94 0.46 3.33 1.73 -1.12 2.12 -3.3 -1.71 -0.93 -0.47zm-10.74 -5.21l1.04 -2.15 4.32 2.05 -1.04 2.15 -4.32 -2.05zm-10.87 -4.88l0.97 -2.19 3.2 1.39 1.2 0.54 -1.01 2.17 -1.16 -0.53 -3.2 -1.38zm-11.01 -4.58l0.89 -2.22 1.16 0.46 3.29 1.35 -0.93 2.21 -3.25 -1.34 -1.16 -0.46zm-11.15 -4.25l0.85 -2.24 4.48 1.67 -0.85 2.24 -4.48 -1.67zm-11.26 -3.91l0.77 -2.26 3.8 1.26 0.76 0.27 -0.82 2.25 -0.72 -0.26 -3.79 -1.26zm-11.37 -3.58l0.7 -2.29 1.85 0.55 2.74 0.86 -0.73 2.27 -2.7 -0.84 -1.86 -0.55zm-11.48 -3.26l0.65 -2.3 4.62 1.27 -0.66 2.3 -4.61 -1.27zm-11.56 -2.89l0.57 -2.32 4.66 1.11 -0.58 2.32 -4.65 -1.11zm-11.64 -2.56l0.5 -2.34 2.94 0.6 1.76 0.39 -0.54 2.33 -1.72 -0.38 -2.94 -0.6zm-11.71 -2.23l0.42 -2.35 1.11 0.18 3.61 0.67 -0.45 2.35 -3.57 -0.66 -1.12 -0.19zm-11.79 -1.88l0.38 -2.36 4.73 0.72 -0.38 2.36 -4.73 -0.72zm-11.82 -1.51l0.29 -2.38 4.35 0.51 0.43 0.05 -0.34 2.37 -0.38 -0.05 -4.35 -0.5zm-11.86 -1.18l0.21 -2.38 2.6 0.21 2.19 0.22 -0.26 2.38 -2.15 -0.22 -2.59 -0.21zm-11.89 -0.84l0.13 -2.38 0.86 0.04 3.94 0.25 -0.18 2.39 -3.9 -0.26 -0.85 -0.04zm-11.93 -0.48l0.1 -2.39 4.78 0.16 -0.1 2.38 -4.78 -0.15zm-7.66 -0.13l0.02 -2.39 0.54 0.01 -0.06 2.39 -0.5 -0.01z"/>
  </g>
  <text x="261.27" y="1141.75"  fill="black" font-style="italic" font-weight="normal" font-size="101.26px" font-family="Arial">m</text>
  <text x="345.62" y="1162"  fill="black" font-style="italic" font-weight="normal" font-size="50.63px" font-family="Arial" baseline-shift="sub">CA</text>
  <text x="554.87" y="982.49"  fill="black" font-style="italic" font-weight="normal" font-size="101.26px" font-family="Arial">h</text>
  <text x="611.18" y="1002.74"  fill="black" font-style="italic" font-weight="normal" font-size="50.63px" font-family="Arial" baseline-shift="sub">C</text>
  <text x="716.34" y="881.57"  fill="black" font-style="italic" font-weight="normal" font-size="101.26px" font-family="Arial">h</text>
  <text x="772.66" y="901.82"  fill="black" font-style="italic" font-weight="normal" font-size="50.63px" font-family="Arial" baseline-shift="sub">CB</text>
  <line fill="none" stroke="black" stroke-width="2.39" stroke-miterlimit="22.9256" stroke-dasharray="2.390000 11.960000" x1="1803.82" y1="734.27" x2="2294.67" y2= "520.08" />
  <text x="2051.49" y="342.58"  fill="black" font-style="italic" font-weight="normal" font-size="101.26px" font-family="Arial">h</text>
  <text x="2107.8" y="362.83"  fill="black" font-style="italic" font-weight="normal" font-size="50.63px" font-family="Arial" baseline-shift="sub">CB</text>
  <text x="1690.01" y="461.55"  fill="black" font-style="italic" font-weight="normal" font-size="101.26px" font-family="Arial">h</text>
  <text x="1746.33" y="481.8"  fill="black" font-style="italic" font-weight="normal" font-size="50.63px" font-family="Arial" baseline-shift="sub">B</text>
  <g>
   <g transform="matrix(0.999984 0 0 0.999984 261.53 -184.206)">
    <text x="1228" y="900.89"  fill="black" font-style="italic" font-weight="normal" font-size="101.26px" font-family="Arial">m</text>
    <text x="1312.35" y="921.14"  fill="black" font-style="italic" font-weight="normal" font-size="50.63px" font-family="Arial" baseline-shift="sub">BA</text>
   </g>
  </g>
  <text x="1630.84" y="1298.26"  fill="black" font-weight="normal" font-size="75.94px" font-family="Arial">траєкторія руху камери</text>
  <text x="1631.14" y="1482.07"  fill="black" font-weight="normal" font-size="75.94px" font-family="Arial">місце зйомки і напрямок</text>
  <text x="1631.14" y="1566.91"  fill="black" font-weight="normal" font-size="75.94px" font-family="Arial">погляду камери</text>
  <text x="1628.11" y="1394.89"  fill="black" font-weight="normal" font-size="75.94px" font-family="Arial">напрямок на Північ</text>
 </g>
</svg>
