<?xml version="1.0" encoding="UTF-8"?>
<svg xmlns="http://www.w3.org/2000/svg" viewBox="0 0 12284.5 5934.88">
 <g>
  <rect fill="none" stroke="#2B2A29" stroke-width="20" stroke-miterlimit="22.9256" x="847.11" y="254.47" width="10341.19" height="4332.35"/>
  <g>
   <path fill="#71C285" d="M8925.88 2854.35c0,185.17 -150.12,335.29 -335.29,335.29 -185.17,0 -335.3,-150.12 -335.3,-335.29 0,185.17 -150.12,335.29 -335.3,335.29 -185.17,0 -335.29,-150.12 -335.29,-335.29 0,-185.18 150.12,-335.3 335.29,-335.3 12.07,0 25.48,1.34 37.56,1.34 -146.11,-160.76 -138.24,-408.47 17.79,-559.63 156.04,-151.15 403.88,-151.15 559.92,0 156.03,151.16 163.9,398.87 17.79,559.63 12.06,0 25.48,-1.34 37.56,-1.34 185.12,0.06 335.19,150.14 335.27,335.3z"/>
   <path fill="#AF8066" d="M8255.29 3860.24c-35.57,0.01 -69.69,-14.12 -94.85,-39.28 -25.16,-25.16 -39.28,-59.27 -39.28,-94.85l0 -871.77c0,-74.06 60.04,-134.12 134.13,-134.12 74.08,0 134.12,60.04 134.12,134.12l0 871.77c0.02,35.57 -14.11,69.69 -39.27,94.85 -25.16,25.16 -59.29,39.29 -94.85,39.28z"/>
  </g>
  <g>
   <path fill="#71C285" d="M4241.76 2860.57c0,181.15 -146.86,328.01 -328.01,328.01 -181.14,0 -328.01,-146.86 -328.01,-328.01 0,181.15 -146.86,328.01 -328,328.01 -181.15,0 -328.01,-146.86 -328.01,-328.01 0,-181.15 146.86,-328 328.01,-328 11.8,0 24.92,1.3 36.74,1.3 -142.94,-157.26 -135.24,-399.59 17.4,-547.46 152.64,-147.87 395.1,-147.87 547.74,0 152.65,147.87 160.35,390.2 17.41,547.46 11.8,0 24.92,-1.3 36.74,-1.3 181.1,0.07 327.93,146.88 327.99,328z"/>
   <path fill="#AF8066" d="M3585.74 3844.6c-34.79,0.02 -68.18,-13.8 -92.79,-38.42 -24.61,-24.61 -38.42,-57.98 -38.42,-92.79l0 -852.82c0,-72.46 58.74,-131.21 131.21,-131.21 72.46,0 131.21,58.74 131.21,131.21l0 852.82c0.02,34.8 -13.81,68.18 -38.42,92.79 -24.61,24.62 -57.98,38.44 -92.79,38.42z"/>
  </g>
  <text x="7466.43" y="4091.79"  fill="#71C285" font-weight="bold" font-size="535.81px" font-family="Arial">1</text>
  <text x="2700.47" y="4123.23"  fill="#71C285" font-weight="bold" font-size="535.81px" font-family="Arial">2</text>
  <line fill="none" stroke="#2B2A29" stroke-width="20" stroke-miterlimit="22.9256" stroke-dasharray="20.000000 60.000000" x1="847.11" y1="3634.32" x2="11188.3" y2= "3634.32" />
  <text x="10284.27" y="1154.92"  fill="#2B2A29" font-weight="bold" font-size="535.81px" font-family="Arial">2</text>
  <circle fill="none" stroke="#2B2A29" stroke-width="75" stroke-miterlimit="22.9256" cx="10410.72" cy="962.03" r="416.72"/>
  <line fill="none" stroke="#008DD2" stroke-width="75" stroke-miterlimit="22.9256" x1="8267.55" y1="254.47" x2="8267.55" y2= "4586.82" />
  <line fill="none" stroke="#008DD2" stroke-width="75" stroke-miterlimit="22.9256" stroke-dasharray="75.000000 75.000000" x1="3589.16" y1="254.47" x2="3589.16" y2= "4586.82" />
  <g>
   <path fill="#2B2A29" fill-rule="nonzero" d="M832.19 4598.27l29.84 0 90.96 140.32 -29.84 19.34 -90.96 -140.32 29.84 0.01 -29.84 -19.35zm0 0l14.93 -23 14.91 23 -29.84 0zm-76.11 149.99l-14.92 -9.67 91.03 -140.32 29.84 19.35 -91.04 140.32 -14.91 -9.68zm81.03 526.48l0 -639.21 20 0 0 639.21 -20 0z"/>
  </g>
  <g>
   <path fill="#2B2A29" fill-rule="nonzero" d="M11173.38 4598.27l29.84 0 90.96 140.32 -29.84 19.34 -90.96 -140.32 29.84 0.01 -29.84 -19.35zm0 0l14.93 -23 14.91 23 -29.84 0zm-76.11 149.99l-14.92 -9.67 91.03 -140.32 29.84 19.35 -91.04 140.32 -14.91 -9.68zm81.03 526.48l0 -639.21 20 0 0 639.21 -20 0z"/>
  </g>
  <text x="1112.08" y="5352"  fill="#2B2A29" font-weight="normal" font-size="846.67px" font-family="Symbol">j</text>
  <text x="1664.95" y="5521.33"  fill="#2B2A29" font-weight="normal" font-size="423.34px" font-family="Tahoma" baseline-shift="sub">L</text>
  <text x="11351.47" y="5352"  fill="#2B2A29" font-weight="normal" font-size="846.67px" font-family="Symbol">j</text>
  <text x="11904.34" y="5521.33"  fill="#2B2A29" font-weight="normal" font-size="423.34px" font-family="Tahoma" baseline-shift="sub">R</text>
  <text x="1732.39" y="5017.3"  fill="#2B2A29" font-weight="bold" font-size="267.9px" font-family="Arial">2</text>
  <circle fill="none" stroke="#2B2A29" stroke-width="50" stroke-miterlimit="22.9256" cx="1795.61" cy="4920.86" r="208.36"/>
  <text x="11987.92" y="5017.3"  fill="#2B2A29" font-weight="bold" font-size="267.9px" font-family="Arial">2</text>
  <circle fill="none" stroke="#2B2A29" stroke-width="50" stroke-miterlimit="22.9256" cx="12051.14" cy="4920.86" r="208.36"/>
  <text x="-36.41" y="588.44"  fill="#2B2A29" font-weight="normal" font-size="846.67px" font-family="Symbol">q</text>
  <text x="-12.13" y="3933.62"  fill="#2B2A29" font-weight="normal" font-size="846.67px" font-family="Arial">0</text>
 </g>
</svg>
