<svg xmlns="http://www.w3.org/2000/svg" fill-rule="evenodd" clip-rule="evenodd" image-rendering="optimizeQuality" shape-rendering="geometricPrecision" text-rendering="geometricPrecision" viewBox="0 0 9970.81 10543.15">
	<defs/>
	<path fill="none" stroke="#000" stroke-miterlimit="22.926" stroke-width="50" d="M6358.9 704.92V9859.5"/>
	<circle cx="877.11" cy="2727.34" r="59.53" stroke="#000" stroke-miterlimit="22.926" stroke-width="20"/>
	<path fill="none" stroke="#000" stroke-miterlimit="22.926" stroke-width="20" d="M877.11 2727.34L6358.9 4817.55"/>
	<circle cx="6358.9" cy="4817.55" r="59.53" stroke="#000" stroke-miterlimit="22.926" stroke-width="20"/>
	<text x="-80.43" y="2984.13" font-family="Arial" font-size="846.67" font-style="italic" font-weight="bold">C</text>
	<text x="6534.16" y="5120.65" font-family="Arial" font-size="846.67" font-style="italic" font-weight="bold">A</text>
	<path fill="none" stroke="#000" stroke-miterlimit="22.926" stroke-width="20" d="M0 0h390.26v390.26H0z" transform="matrix(1 .37325 0 1 5968.64 4281.62)"/>
	<path fill="none" stroke="#000" stroke-miterlimit="22.926" stroke-width="20" d="M877.11 2727.34L6358.9 8230.69"/>
	<circle cx="6358.9" cy="8230.69" r="59.53" stroke="#000" stroke-miterlimit="22.926" stroke-width="20"/>
	<path fill="none" stroke="#000" stroke-miterlimit="22.926" stroke-width="20" d="M3231.1 9196.56l6308.49-1948.08"/>
	<path fill="none" stroke="#000" stroke-dasharray="50.000000 150.000000" stroke-miterlimit="22.926" stroke-width="50" d="M0 0h4291.61v8268.91H0z" transform="matrix(1 -.33986 0 1.0938 4213.1 1474.92)"/>
	<path fill-rule="nonzero" d="M2204.74 3269.23l70.82 201.99-39.97-18.62-41.84-126.52c-8.54 79.05-17.03 158.7-30.41 236.98-15.21 92.25-37.58 182.39-62.15 272.46l74.45-66.18 29.58 21.28-135.1 120.1-63.72-243.48 38.86 20.69 36.65 142.25c11.92-43.6 23.5-87.48 33.71-131.45 29.44-123.39 45.25-248.75 58.34-374.74l-64.3 79.47-27.65-22.37 110.31-136.3 12.42 24.44z"/>
	<path fill="none" stroke="#000" stroke-dasharray="100.000000 100.000000" stroke-miterlimit="22.926" stroke-width="20" d="M877.11 2727.34L4213.1 8893.32M877.11 2727.34l7627.6 4840.73"/>
	<path fill-rule="nonzero" d="M3253.9 4295.91l-97.08 151.93-32.31-20.64 70.57-110.43c-108.37 48.58-217.74 93.12-330.02 132.22-274.79 95.83-528.54 153.62-815.41 197.84l158.68 30.61-15.8 34.93-257.67-63.47 157.01-139.33 25.44 28.68-97.89 86.88c261.67-40.61 521.51-91.58 773.46-174.55 133.47-43.35 265.13-95.64 393.15-153.34l-184.73 2.28 5.66-37.93 262.86 9.41-15.92 24.91z"/>
	<circle cx="4213.1" cy="8893.32" r="59.53" stroke="#000" stroke-miterlimit="22.926" stroke-width="20"/>
	<circle cx="8504.71" cy="7568.07" r="59.53" stroke="#000" stroke-miterlimit="22.926" stroke-width="20"/>
	<text x="8878.26" y="8157.32" font-family="Arial" font-size="846.67" font-style="italic" font-weight="bold">W</text>
	<text x="9724.43" y="8326.65" baseline-shift="sub" font-family="Arial" font-size="423.34" font-style="italic" font-weight="bold">L</text>
	<text x="2598.81" y="8836.42" font-family="Arial" font-size="846.67" font-style="italic" font-weight="bold">W</text>
	<text x="3444.98" y="9005.75" baseline-shift="sub" font-family="Arial" font-size="423.34" font-style="italic" font-weight="bold">R</text>
	<g font-family="Arial" font-size="423.33">
		<text x="4576.44" y="13208.45" transform="rotate(-90 529.86 7660.08)">T</text>
		<text x="4842.81" y="13208.45" transform="rotate(-90 529.86 7660.08)">r</text>
		<text x="5007.3" y="13208.45" transform="rotate(-90 529.86 7660.08)">u</text>
		<text x="5266.26" y="13208.45" transform="rotate(-90 529.86 7660.08)">n</text>
		<text x="5525.22" y="13208.45" transform="rotate(-90 529.86 7660.08)">k a</text>
		<text x="6113.47" y="13208.45" transform="rotate(-90 529.86 7660.08)">x</text>
		<text x="6348.66" y="13208.45" transform="rotate(-90 529.86 7660.08)">i</text>
		<text x="6466.23" y="13208.45" transform="rotate(-90 529.86 7660.08)">s</text>
	</g>
	<text x="2101.36" y="2896.92" font-family="Arial" font-size="846.67" font-style="italic" font-weight="bold">p</text>
	<text x="2665.58" y="3066.25" baseline-shift="sub" font-family="Arial" font-size="423.34" font-style="italic" font-weight="bold">W</text>
	<g font-family="Arial" font-size="423.33">
		<text x="4576.44" y="13208.45" transform="rotate(-90 1974.505 6890.665)">T</text>
		<text x="4842.81" y="13208.45" transform="rotate(-90 1974.505 6890.665)">r</text>
		<text x="5007.3" y="13208.45" transform="rotate(-90 1974.505 6890.665)">u</text>
		<text x="5266.26" y="13208.45" transform="rotate(-90 1974.505 6890.665)">n</text>
		<text x="5525.22" y="13208.45" transform="rotate(-90 1974.505 6890.665)">k c</text>
		<text x="6089.7" y="13208.45" transform="rotate(-90 1974.505 6890.665)">o</text>
		<text x="6348.66" y="13208.45" transform="rotate(-90 1974.505 6890.665)">n</text>
		<text x="6607.62" y="13208.45" transform="rotate(-90 1974.505 6890.665)">t</text>
		<text x="6748.76" y="13208.45" transform="rotate(-90 1974.505 6890.665)">o</text>
		<text x="7007.72" y="13208.45" transform="rotate(-90 1974.505 6890.665)">u</text>
		<text x="7266.68" y="13208.45" transform="rotate(-90 1974.505 6890.665)">r</text>
	</g>
	<text x="954.78" y="4894.72" font-family="Arial" font-size="846.67" font-style="italic" font-weight="bold">w</text>
</svg>