<?xml version="1.0" encoding="UTF-8"?>
<svg xmlns="http://www.w3.org/2000/svg" viewBox="0 0 12284.5 5934.88">
 <g>
  <rect fill="none" stroke="#2B2A29" stroke-width="20" stroke-miterlimit="22.9256" x="847.11" y="254.47" width="10341.19" height="4332.35"/>
  <g>
   <path fill="#71C285" d="M7139.26 2774.44c0,217.85 -176.62,394.46 -394.46,394.46 -217.85,0 -394.47,-176.61 -394.47,-394.46 0,217.85 -176.62,394.46 -394.46,394.46 -217.86,0 -394.47,-176.61 -394.47,-394.46 0,-217.85 176.62,-394.47 394.47,-394.47 14.19,0 29.97,1.58 44.18,1.58 -171.9,-189.13 -162.64,-480.56 20.93,-658.39 183.57,-177.82 475.15,-177.82 658.72,0 183.57,177.83 192.83,469.26 20.93,658.39 14.2,0 29.98,-1.58 44.19,-1.58 217.79,0.07 394.35,176.63 394.44,394.47z"/>
   <path fill="#AF8066" d="M6350.33 3957.84c-41.85,0.02 -81.99,-16.6 -111.59,-46.21 -29.6,-29.6 -46.21,-69.72 -46.21,-111.59l0 -1025.61c0,-87.13 70.64,-157.79 157.8,-157.79 87.15,0 157.79,70.64 157.79,157.79l0 1025.61c0.02,41.85 -16.6,81.99 -46.2,111.59 -29.6,29.61 -69.75,46.23 -111.59,46.21z"/>
  </g>
  <g>
   <path fill="#71C285" d="M4070.09 3183.2c0,132.8 -107.67,240.47 -240.47,240.47 -132.8,0 -240.47,-107.67 -240.47,-240.47 0,132.8 -107.66,240.47 -240.46,240.47 -132.81,0 -240.47,-107.67 -240.47,-240.47 0,-132.8 107.66,-240.47 240.47,-240.47 8.65,0 18.27,0.96 26.93,0.96 -104.79,-115.29 -99.14,-292.94 12.76,-401.35 111.91,-108.41 289.66,-108.41 401.56,0 111.9,108.41 117.55,286.06 12.76,401.35 8.65,0 18.27,-0.96 26.94,-0.96 132.76,0.06 240.4,107.69 240.45,240.47z"/>
   <path fill="#AF8066" d="M3589.15 3904.61c-25.51,0.01 -49.98,-10.12 -68.02,-28.17 -18.05,-18.04 -28.17,-42.51 -28.17,-68.03l0 -625.21c0,-53.12 43.06,-96.2 96.19,-96.2 53.12,0 96.19,43.07 96.19,96.2l0 625.21c0.01,25.51 -10.12,49.99 -28.16,68.03 -18.05,18.05 -42.51,28.18 -68.03,28.17z"/>
  </g>
  <text x="5535" y="4091.79"  fill="#71C285" font-weight="bold" font-size="535.81px" font-family="Arial">1</text>
  <text x="2700.47" y="4123.23"  fill="#71C285" font-weight="bold" font-size="535.81px" font-family="Arial">2</text>
  <line fill="none" stroke="#2B2A29" stroke-width="20" stroke-miterlimit="22.9256" stroke-dasharray="20.000000 60.000000" x1="847.11" y1="3634.32" x2="11188.3" y2= "3634.32" />
  <text x="10284.27" y="1154.92"  fill="#2B2A29" font-weight="bold" font-size="535.81px" font-family="Arial">1</text>
  <circle fill="none" stroke="#2B2A29" stroke-width="75" stroke-miterlimit="22.9256" cx="10410.72" cy="962.03" r="416.72"/>
  <line fill="none" stroke="#E31E24" stroke-width="75" stroke-miterlimit="22.9256" x1="6362.59" y1="254.47" x2="6362.59" y2= "4586.82" />
  <line fill="none" stroke="#E31E24" stroke-width="75" stroke-miterlimit="22.9256" stroke-dasharray="75.000000 75.000000" x1="3589.16" y1="254.47" x2="3589.16" y2= "4586.82" />
  <g>
   <path fill="#2B2A29" fill-rule="nonzero" d="M832.19 4598.27l29.84 0 90.96 140.32 -29.84 19.34 -90.96 -140.32 29.84 0.01 -29.84 -19.35zm0 0l14.93 -23 14.91 23 -29.84 0zm-76.11 149.99l-14.92 -9.67 91.03 -140.32 29.84 19.35 -91.04 140.32 -14.91 -9.68zm81.03 526.48l0 -639.21 20 0 0 639.21 -20 0z"/>
  </g>
  <g>
   <path fill="#2B2A29" fill-rule="nonzero" d="M11173.38 4598.27l29.84 0 90.96 140.32 -29.84 19.34 -90.96 -140.32 29.84 0.01 -29.84 -19.35zm0 0l14.93 -23 14.91 23 -29.84 0zm-76.11 149.99l-14.92 -9.67 91.03 -140.32 29.84 19.35 -91.04 140.32 -14.91 -9.68zm81.03 526.48l0 -639.21 20 0 0 639.21 -20 0z"/>
  </g>
  <text x="1112.08" y="5352"  fill="#2B2A29" font-weight="normal" font-size="846.67px" font-family="Symbol">j</text>
  <text x="1664.95" y="5521.33"  fill="#2B2A29" font-weight="normal" font-size="423.34px" font-family="Tahoma" baseline-shift="sub">L</text>
  <text x="11351.47" y="5352"  fill="#2B2A29" font-weight="normal" font-size="846.67px" font-family="Symbol">j</text>
  <text x="11904.34" y="5521.33"  fill="#2B2A29" font-weight="normal" font-size="423.34px" font-family="Tahoma" baseline-shift="sub">R</text>
  <text x="1732.39" y="5017.3"  fill="#2B2A29" font-weight="bold" font-size="267.9px" font-family="Arial">1</text>
  <circle fill="none" stroke="#2B2A29" stroke-width="50" stroke-miterlimit="22.9256" cx="1795.61" cy="4920.86" r="208.36"/>
  <text x="11987.92" y="5017.3"  fill="#2B2A29" font-weight="bold" font-size="267.9px" font-family="Arial">1</text>
  <circle fill="none" stroke="#2B2A29" stroke-width="50" stroke-miterlimit="22.9256" cx="12051.14" cy="4920.86" r="208.36"/>
  <text x="-36.41" y="588.44"  fill="#2B2A29" font-weight="normal" font-size="846.67px" font-family="Symbol">q</text>
  <text x="-12.13" y="3933.62"  fill="#2B2A29" font-weight="normal" font-size="846.67px" font-family="Arial">0</text>
 </g>
</svg>
