<?xml version="1.0" encoding="UTF-8"?>
<svg xmlns="http://www.w3.org/2000/svg" xml:space="preserve" width="800px" height="661px" version="1.1" shape-rendering="geometricPrecision" text-rendering="geometricPrecision" image-rendering="optimizeQuality" fill-rule="evenodd" clip-rule="evenodd"
viewBox="0 0 783.74 647.38"
 xmlns:xlink="http://www.w3.org/1999/xlink">
 <g id="Layer_x0020_1">
  <polygon fill="white" points="59.15,596.69 773.09,596.69 773.09,33.6 59.15,33.6 "/>
  <g>
   <polygon fill="#262626" fill-rule="nonzero" fill-opacity="0.149020" points="59.55,33.6 59.55,596.69 58.75,596.69 58.75,33.6 "/>
  </g>
  <g>
   <polygon fill="#262626" fill-rule="nonzero" fill-opacity="0.149020" points="238.04,33.6 238.04,596.69 237.24,596.69 237.24,33.6 "/>
  </g>
  <g>
   <polygon fill="#262626" fill-rule="nonzero" fill-opacity="0.149020" points="416.52,33.6 416.52,596.69 415.72,596.69 415.72,33.6 "/>
  </g>
  <g>
   <polygon fill="#262626" fill-rule="nonzero" fill-opacity="0.149020" points="595.01,33.6 595.01,596.69 594.21,596.69 594.21,33.6 "/>
  </g>
  <g>
   <polygon fill="#262626" fill-rule="nonzero" fill-opacity="0.149020" points="773.49,33.6 773.49,596.69 772.69,596.69 772.69,33.6 "/>
  </g>
  <line fill="none" stroke="#262626" stroke-width="0.8" stroke-miterlimit="22.9256" x1="59.15" y1="596.69" x2="59.15" y2= "589.55" />
  <line fill="none" stroke="#262626" stroke-width="0.8" stroke-miterlimit="22.9256" x1="59.15" y1="33.6" x2="59.15" y2= "40.74" />
  <line fill="none" stroke="#262626" stroke-width="0.8" stroke-miterlimit="22.9256" x1="237.64" y1="596.69" x2="237.64" y2= "589.55" />
  <line fill="none" stroke="#262626" stroke-width="0.8" stroke-miterlimit="22.9256" x1="237.64" y1="33.6" x2="237.64" y2= "40.74" />
  <line fill="none" stroke="#262626" stroke-width="0.8" stroke-miterlimit="22.9256" x1="416.12" y1="596.69" x2="416.12" y2= "589.55" />
  <line fill="none" stroke="#262626" stroke-width="0.8" stroke-miterlimit="22.9256" x1="416.12" y1="33.6" x2="416.12" y2= "40.74" />
  <line fill="none" stroke="#262626" stroke-width="0.8" stroke-miterlimit="22.9256" x1="594.61" y1="596.69" x2="594.61" y2= "589.55" />
  <line fill="none" stroke="#262626" stroke-width="0.8" stroke-miterlimit="22.9256" x1="594.61" y1="33.6" x2="594.61" y2= "40.74" />
  <line fill="none" stroke="#262626" stroke-width="0.8" stroke-miterlimit="22.9256" x1="773.09" y1="596.69" x2="773.09" y2= "589.55" />
  <line fill="none" stroke="#262626" stroke-width="0.8" stroke-miterlimit="22.9256" x1="773.09" y1="33.6" x2="773.09" y2= "40.74" />
  <g transform="matrix(1 0 0 1 -345.648 294.248)">
   <text x="400" y="327.24"  fill="#262626" font-weight="normal" font-size="15.99px" font-family="Arial">0</text>
  </g>
  <g transform="matrix(1 0 0 1 -174.359 294.248)">
   <text x="400" y="327.24"  fill="#262626" font-weight="normal" font-size="15.99px" font-family="Arial">0</text>
   <text x="409.53" y="327.24"  fill="#262626" font-weight="normal" font-size="15.99px" font-family="Arial">.</text>
   <text x="414.46" y="327.24"  fill="#262626" font-weight="normal" font-size="15.99px" font-family="Arial">2</text>
  </g>
  <g transform="matrix(1 0 0 1 4.12598 294.248)">
   <text x="400" y="327.24"  fill="#262626" font-weight="normal" font-size="15.99px" font-family="Arial">0</text>
   <text x="409.53" y="327.24"  fill="#262626" font-weight="normal" font-size="15.99px" font-family="Arial">.</text>
   <text x="414.46" y="327.24"  fill="#262626" font-weight="normal" font-size="15.99px" font-family="Arial">4</text>
  </g>
  <g transform="matrix(1 0 0 1 182.612 294.248)">
   <text x="400" y="327.24"  fill="#262626" font-weight="normal" font-size="15.99px" font-family="Arial">0</text>
   <text x="409.53" y="327.24"  fill="#262626" font-weight="normal" font-size="15.99px" font-family="Arial">.</text>
   <text x="414.46" y="327.24"  fill="#262626" font-weight="normal" font-size="15.99px" font-family="Arial">6</text>
  </g>
  <g transform="matrix(1 0 0 1 361.097 294.248)">
   <text x="400" y="327.24"  fill="#262626" font-weight="normal" font-size="15.99px" font-family="Arial">0</text>
   <text x="409.53" y="327.24"  fill="#262626" font-weight="normal" font-size="15.99px" font-family="Arial">.</text>
   <text x="414.46" y="327.24"  fill="#262626" font-weight="normal" font-size="15.99px" font-family="Arial">8</text>
  </g>
  <g>
   <polygon fill="#262626" fill-rule="nonzero" fill-opacity="0.149020" points="773.09,597.09 59.15,597.09 59.15,596.29 773.09,596.29 "/>
  </g>
  <g>
   <polygon fill="#262626" fill-rule="nonzero" fill-opacity="0.149020" points="773.09,484.47 59.15,484.47 59.15,483.67 773.09,483.67 "/>
  </g>
  <g>
   <polygon fill="#262626" fill-rule="nonzero" fill-opacity="0.149020" points="773.09,371.85 59.15,371.85 59.15,371.06 773.09,371.06 "/>
  </g>
  <g>
   <polygon fill="#262626" fill-rule="nonzero" fill-opacity="0.149020" points="773.09,259.24 59.15,259.24 59.15,258.44 773.09,258.44 "/>
  </g>
  <g>
   <polygon fill="#262626" fill-rule="nonzero" fill-opacity="0.149020" points="773.09,146.62 59.15,146.62 59.15,145.82 773.09,145.82 "/>
  </g>
  <g>
   <polygon fill="#262626" fill-rule="nonzero" fill-opacity="0.149020" points="773.09,34 59.15,34 59.15,33.2 773.09,33.2 "/>
  </g>
  <line fill="none" stroke="#262626" stroke-width="0.8" stroke-miterlimit="22.9256" x1="59.15" y1="596.69" x2="66.3" y2= "596.69" />
  <line fill="none" stroke="#262626" stroke-width="0.8" stroke-miterlimit="22.9256" x1="773.09" y1="596.69" x2="765.95" y2= "596.69" />
  <line fill="none" stroke="#262626" stroke-width="0.8" stroke-miterlimit="22.9256" x1="59.15" y1="484.07" x2="66.3" y2= "484.07" />
  <line fill="none" stroke="#262626" stroke-width="0.8" stroke-miterlimit="22.9256" x1="773.09" y1="484.07" x2="765.95" y2= "484.07" />
  <line fill="none" stroke="#262626" stroke-width="0.8" stroke-miterlimit="22.9256" x1="59.15" y1="371.45" x2="66.3" y2= "371.45" />
  <line fill="none" stroke="#262626" stroke-width="0.8" stroke-miterlimit="22.9256" x1="773.09" y1="371.45" x2="765.95" y2= "371.45" />
  <line fill="none" stroke="#262626" stroke-width="0.8" stroke-miterlimit="22.9256" x1="59.15" y1="258.84" x2="66.3" y2= "258.84" />
  <line fill="none" stroke="#262626" stroke-width="0.8" stroke-miterlimit="22.9256" x1="773.09" y1="258.84" x2="765.95" y2= "258.84" />
  <line fill="none" stroke="#262626" stroke-width="0.8" stroke-miterlimit="22.9256" x1="59.15" y1="146.22" x2="66.3" y2= "146.22" />
  <line fill="none" stroke="#262626" stroke-width="0.8" stroke-miterlimit="22.9256" x1="773.09" y1="146.22" x2="765.95" y2= "146.22" />
  <line fill="none" stroke="#262626" stroke-width="0.8" stroke-miterlimit="22.9256" x1="59.15" y1="33.6" x2="66.3" y2= "33.6" />
  <line fill="none" stroke="#262626" stroke-width="0.8" stroke-miterlimit="22.9256" x1="773.09" y1="33.6" x2="765.95" y2= "33.6" />
  <g transform="matrix(1 0 0 1 -358.45 275.853)">
   <text x="400" y="327.24"  fill="#262626" font-weight="normal" font-size="15.99px" font-family="Arial">0</text>
  </g>
  <g transform="matrix(1 0 0 1 -372.844 163.234)">
   <text x="400" y="327.24"  fill="#262626" font-weight="normal" font-size="15.99px" font-family="Arial">0</text>
   <text x="409.53" y="327.24"  fill="#262626" font-weight="normal" font-size="15.99px" font-family="Arial">.</text>
   <text x="414.46" y="327.24"  fill="#262626" font-weight="normal" font-size="15.99px" font-family="Arial">2</text>
  </g>
  <g transform="matrix(1 0 0 1 -372.844 50.6157)">
   <text x="400" y="327.24"  fill="#262626" font-weight="normal" font-size="15.99px" font-family="Arial">0</text>
   <text x="409.53" y="327.24"  fill="#262626" font-weight="normal" font-size="15.99px" font-family="Arial">.</text>
   <text x="414.46" y="327.24"  fill="#262626" font-weight="normal" font-size="15.99px" font-family="Arial">4</text>
  </g>
  <g transform="matrix(1 0 0 1 -372.844 -62.0026)">
   <text x="400" y="327.24"  fill="#262626" font-weight="normal" font-size="15.99px" font-family="Arial">0</text>
   <text x="409.53" y="327.24"  fill="#262626" font-weight="normal" font-size="15.99px" font-family="Arial">.</text>
   <text x="414.46" y="327.24"  fill="#262626" font-weight="normal" font-size="15.99px" font-family="Arial">6</text>
  </g>
  <g transform="matrix(1 0 0 1 -372.844 -174.621)">
   <text x="400" y="327.24"  fill="#262626" font-weight="normal" font-size="15.99px" font-family="Arial">0</text>
   <text x="409.53" y="327.24"  fill="#262626" font-weight="normal" font-size="15.99px" font-family="Arial">.</text>
   <text x="414.46" y="327.24"  fill="#262626" font-weight="normal" font-size="15.99px" font-family="Arial">8</text>
  </g>
  <g transform="matrix(1 0 0 1 -358.45 -287.24)">
   <text x="400" y="327.24"  fill="#262626" font-weight="normal" font-size="15.99px" font-family="Arial">1</text>
  </g>
  <g>
   <path fill="#262626" fill-rule="nonzero" d="M59.15 596.29l0 0.8 -0.4 0 0 -0.8 0.4 0zm713.94 0.8l-713.94 0 0 -0.8 713.94 0 0 0.8zm0 0l0 -0.8 0.4 0 0 0.8 -0.4 0z"/>
  </g>
  <g>
   <path fill="#262626" fill-rule="nonzero" d="M59.15 33.2l0 0.8 -0.4 0 0 -0.8 0.4 0zm713.94 0.8l-713.94 0 0 -0.8 713.94 0 0 0.8zm0 0l0 -0.8 0.4 0 0 0.8 -0.4 0z"/>
  </g>
  <g>
   <path fill="#262626" fill-rule="nonzero" d="M58.75 596.69l0.8 0 0 0.4 -0.8 0 0 -0.4zm0.8 -563.09l0 563.09 -0.8 0 0 -563.09 0.8 0zm0 0l-0.8 0 0 -0.4 0.8 0 0 0.4z"/>
  </g>
  <g>
   <path fill="#262626" fill-rule="nonzero" d="M772.69 596.69l0.8 0 0 0.4 -0.8 0 0 -0.4zm0.8 -563.09l0 563.09 -0.8 0 0 -563.09 0.8 0zm0 0l-0.8 0 0 -0.4 0.8 0 0 0.4z"/>
  </g>
  <g transform="matrix(1 0 0 1 -35.8567 316.639)">
   <text x="400" y="327.24"  fill="#262626" font-weight="normal" font-size="17.59px" font-family="Arial">Dispersion, m</text>
  </g>
  <g transform="matrix(1 0 0 1 -55.049 -314.429)">
   <text x="400" y="327.24"  fill="black" font-weight="normal" font-size="17.59px" font-family="Arial">After adjustment</text>
  </g>
  <polyline fill="none" stroke="#0071BC" stroke-width="0.8" stroke-linejoin="round" stroke-miterlimit="22.9256" points="96.77,579.63 108.15,562.57 126.92,545.5 142.9,528.44 158.4,511.38 174.45,494.31 181.26,477.25 192.88,460.18 200.53,443.12 206.96,426.06 213.38,408.99 222.85,391.93 231.6,374.87 238.3,357.8 249.59,340.74 249.59,323.68 266.09,306.61 282.73,289.55 282.76,272.49 299.25,255.42 307.93,238.36 309.79,221.3 316.43,204.23 357.33,187.17 365.56,170.11 391.95,153.04 400.53,135.98 454.43,118.92 456.02,101.85 556.51,84.79 583.99,67.73 699.82,50.66 722.51,33.6 "/>
  <polyline fill="none" stroke="#D85218" stroke-width="0.8" stroke-linejoin="round" stroke-miterlimit="22.9256" stroke-dasharray="0.800000 2.400000" points="59.15,315.15 257.84,315.15 257.84,596.69 "/>
  <polygon fill="#D85218" points="59.95,316.53 58.35,316.53 57.55,315.15 58.35,313.76 59.95,313.76 60.75,315.15 60.75,315.15 "/>
  <polygon fill="#D85218" points="258.64,316.53 257.04,316.53 256.24,315.15 257.04,313.76 258.64,313.76 259.44,315.15 259.44,315.15 "/>
  <polygon fill="#D85218" points="258.64,598.08 257.04,598.08 256.24,596.69 257.04,595.31 258.64,595.31 259.44,596.69 259.44,596.69 "/>
  <polygon fill="red" points="261.72,317.97 259.33,319.71 256.36,319.71 253.96,317.97 253.05,315.15 253.96,312.33 256.36,310.58 259.33,310.58 261.72,312.33 262.64,315.15 "/>
  <polyline fill="none" stroke="yellow" stroke-width="0.8" stroke-linecap="round" stroke-linejoin="round" stroke-miterlimit="22.9256" points="262.64,315.15 261.72,317.97 259.33,319.71 256.36,319.71 253.96,317.97 253.05,315.15 253.96,312.33 256.36,310.58 259.33,310.58 261.72,312.33 262.64,315.15 "/>
  <g transform="matrix(2.64845E-14 -1 1 2.64845E-14 -314.64 768.28)">
   <text x="400" y="327.24"  fill="#262626" font-weight="normal" font-size="17.59px" font-family="Arial">D</text>
   <text x="412.88" y="327.24"  fill="#262626" font-weight="normal" font-size="17.59px" font-family="Arial">i</text>
   <text x="415.91" y="327.24"  fill="#262626" font-weight="normal" font-size="17.59px" font-family="Arial">s</text>
   <text x="462.41" y="327.24"  fill="#262626" font-weight="normal" font-size="17.59px" font-family="Arial">i</text>
   <text x="465.62" y="327.24"  fill="#262626" font-weight="normal" font-size="17.59px" font-family="Arial">o</text>
   <text x="475.22" y="327.24"  fill="#262626" font-weight="normal" font-size="17.59px" font-family="Arial">n</text>
   <text x="484.83" y="327.24"  fill="#262626" font-weight="normal" font-size="17.59px" font-family="Arial">, </text>
   <text x="494.43" y="327.24"  fill="#262626" font-weight="normal" font-size="17.59px" font-family="Arial">m</text>
   <text x="423.3" y="327.24"  fill="#262626" font-weight="normal" font-size="17.59px" font-family="Arial">tribut</text>
  </g>
 </g>
</svg>
