<?xml version="1.0" encoding="UTF-8"?>
<svg xmlns="http://www.w3.org/2000/svg" viewBox="0 0 9151.63 5050.42">
 <g>
  <polygon fill="#4C8056" points="6942.61,474.61 5995.89,474.61 2209.01,474.61 1647.29,1478.13 825.22,2943.98 -0,4419.28 2209.01,4419.28 9151.63,4419.28 "/>
  <polygon fill="#71C285" points="9151.63,4419.28 3278.53,4419.28 4746.22,2975.53 5995.89,474.61 6942.61,474.61 "/>
  <path fill="#AF8066" d="M-0 4419.28l9151.63 0 0 315.57c0,174.29 -141.3,315.57 -315.57,315.57l-8520.49 0.01c-174.29,0 -315.57,-141.28 -315.57,-315.57l0 -315.58z"/>
  <path fill="#E4C05C" d="M6153.68 474.61c-0.5,24.65 -6.43,48.91 -17.35,71 -416.56,833.11 -833.12,1666.23 -1249.69,2499.34l-1444.13 1374.33 -397.61 0 1559.31 -1514.75 1214.95 -2429.92 334.52 0z"/>
  <g>
   <path fill="#71C285" d="M4260.24 1184.65c0,217.85 -176.62,394.46 -394.46,394.46 -217.85,0 -394.47,-176.61 -394.47,-394.46 0,217.85 -176.62,394.46 -394.46,394.46 -217.86,0 -394.47,-176.61 -394.47,-394.46 0,-217.85 176.62,-394.47 394.47,-394.47 14.19,0 29.97,1.58 44.18,1.58 -171.9,-189.13 -162.64,-480.56 20.93,-658.39 183.57,-177.82 475.15,-177.82 658.72,0 183.57,177.83 192.83,469.26 20.93,658.39 14.2,0 29.98,-1.58 44.19,-1.58 217.79,0.07 394.35,176.63 394.44,394.47z"/>
   <path fill="#AF8066" d="M3471.31 2368.05c-41.85,0.02 -81.99,-16.6 -111.59,-46.21 -29.6,-29.6 -46.21,-69.72 -46.21,-111.59l0 -1025.61c0,-87.13 70.64,-157.79 157.8,-157.79 87.15,0 157.79,70.64 157.79,157.79l0 1025.61c0.02,41.85 -16.6,81.99 -46.2,111.59 -29.6,29.61 -69.75,46.23 -111.59,46.21z"/>
  </g>
  <g>
   <path fill="#71C285" d="M2209.01 2604.72c0,217.86 -176.62,394.47 -394.47,394.47 -217.84,0 -394.46,-176.62 -394.46,-394.47 0,217.86 -176.62,394.47 -394.47,394.47 -217.85,0 -394.46,-176.62 -394.46,-394.47 0,-217.85 176.61,-394.46 394.46,-394.46 14.2,0 29.98,1.57 44.19,1.57 -171.9,-189.13 -162.64,-480.55 20.93,-658.38 183.57,-177.83 475.15,-177.83 658.72,0 183.57,177.83 192.83,469.25 20.93,658.38 14.19,0 29.97,-1.57 44.19,-1.57 217.79,0.09 394.37,176.65 394.44,394.46z"/>
   <path fill="#AF8066" d="M1420.07 3788.12c-41.84,0.02 -81.99,-16.6 -111.59,-46.2 -29.59,-29.6 -46.2,-69.73 -46.2,-111.59l0 -1025.61c0,-87.14 70.64,-157.8 157.79,-157.8 87.14,0 157.8,70.64 157.8,157.8l0 1025.61c0.02,41.84 -16.6,81.99 -46.21,111.59 -29.6,29.6 -69.72,46.22 -111.59,46.2z"/>
  </g>
  <circle fill="#E31E24" cx="5018.33" cy="2430.99" r="154.04"/>
  <circle fill="#008DD2" cx="4233.74" cy="3468.28" r="154.04"/>
  <g>
   <path fill="#E31E24" fill-rule="nonzero" d="M3823.46 2300.9l1030.8 71.31 -5.18 74.82 -1030.8 -71.31 5.18 -74.82zm-26.66 183.71l31.12 -68.24 -52.97 31.54 7.76 -112.24 74.82 5.18 -7.76 112.23 -52.97 31.53zm0 0l52.97 -31.53 -3.74 53.98 -49.23 -22.45zm-286.67 -202.99l21.42 71.88 4.85 -70.06 291.52 132.93 -31.12 68.24 -291.52 -132.93 4.85 -70.06zm0 0l-4.85 70.06 -90.99 -41.49 95.84 -28.57zm355.17 -53l-74.82 -5.18 48.12 38.53 -307.05 91.53 -21.42 -71.88 307.04 -91.53 48.13 38.53zm0 0l-48.13 -38.53 51.86 -15.45 -3.73 53.98zm-45.18 109.64l-37.41 -2.59 7.77 -112.23 74.82 5.18 -7.77 112.23 -37.41 -2.59z"/>
  </g>
  <g>
   <path fill="#E31E24" fill-rule="nonzero" d="M4818 2550.26l-25.48 -70.54 70.54 -25.47 25.48 70.54 -70.54 25.47zm-141.08 50.94l-25.48 -70.54 70.54 -25.47 25.48 70.54 -70.54 25.47zm-141.08 50.94l-25.48 -70.54 70.54 -25.47 25.48 70.54 -70.54 25.47zm-141.08 50.94l-25.48 -70.54 70.54 -25.47 25.48 70.54 -70.54 25.47zm-141.08 50.94l-25.48 -70.54 70.54 -25.47 25.48 70.54 -70.54 25.47zm-141.08 50.94l-25.48 -70.54 70.54 -25.47 25.48 70.54 -70.54 25.47zm-141.08 50.94l-25.48 -70.54 70.54 -25.47 25.48 70.54 -70.54 25.47zm-141.08 50.94l-25.48 -70.54 70.54 -25.47 25.48 70.54 -70.54 25.47zm-141.08 50.94l-25.48 -70.54 70.54 -25.47 25.48 70.54 -70.54 25.47zm-141.08 50.95l-25.48 -70.54 70.54 -25.48 25.48 70.54 -70.54 25.48zm-141.08 50.96l-25.48 -70.54 70.54 -25.48 25.48 70.54 -70.54 25.48zm-141.08 50.96l-25.48 -70.54 70.54 -25.48 25.48 70.54 -70.54 25.48zm-141.08 50.96l-25.48 -70.54 70.54 -25.48 25.48 70.54 -70.54 25.48zm-141.08 50.96l-25.48 -70.54 70.54 -25.48 25.48 70.54 -70.54 25.48zm-141.08 50.96l-25.48 -70.54 70.54 -25.48 25.48 70.54 -70.54 25.48zm-141.08 50.96l-25.48 -70.54 70.54 -25.48 25.48 70.54 -70.54 25.48zm-141.08 50.96l-25.48 -70.54 70.54 -25.48 25.48 70.54 -70.54 25.48zm-141.08 50.96l-25.48 -70.54 70.54 -25.48 25.48 70.54 -70.54 25.48zm-141.08 50.96l-25.48 -70.54 70.54 -25.48 25.48 70.54 -70.54 25.48zm-141.08 50.96l-25.48 -70.54 70.54 -25.48 25.48 70.54 -70.54 25.48zm-141.08 50.96l-25.48 -70.54 70.54 -25.48 25.48 70.54 -70.54 25.48zm-141.1 50.96l-25.48 -70.54 70.55 -25.48 25.48 70.54 -70.55 25.48zm21.97 109.14l0.91 -75 -35.73 50.24 -38.21 -105.81 70.54 -25.48 38.22 105.81 -35.73 50.24zm0 0l35.73 -50.24 18.38 50.9 -54.11 -0.66zm-344.23 -69.96l48.62 57.1 -23.85 -66.05 320.37 3.91 -0.91 75 -320.38 -3.91 -23.85 -66.05zm0 0l23.85 66.05 -99.99 -1.22 76.14 -64.83zm303.53 -191.9l-70.54 25.48 59.58 15.81 -243.95 207.71 -48.62 -57.1 243.95 -207.71 59.58 15.81zm0 0l-59.58 -15.81 41.2 -35.08 18.38 50.89zm2.94 118.55l-35.27 12.74 -38.21 -105.81 70.54 -25.48 38.21 105.81 -35.27 12.74z"/>
  </g>
  <g>
   <path fill="#008DD2" fill-rule="nonzero" d="M3699.29 2544.36l498.8 764.72 -62.82 40.98 -498.8 -764.72 62.82 -40.98zm-162.64 89.48l73.2 -16.31 -57.09 -23.25 94.23 -61.46 40.97 62.82 -94.22 61.46 -57.09 -23.26zm0 0l57.09 23.26 -45.33 29.56 -11.76 -52.82zm-10.85 -351.1l-44.43 60.42 58.81 -38.36 69.67 312.73 -73.2 16.31 -69.67 -312.73 58.82 -38.37zm0 0l-58.82 38.37 -21.74 -97.61 80.56 59.24zm256.39 251.44l-40.97 -62.82 -1.73 61.62 -258.12 -189.82 44.43 -60.42 258.12 189.82 -1.73 61.62zm0 0l1.73 -61.62 43.59 32.05 -45.32 29.57zm-114.71 30.05l-20.49 -31.41 94.23 -61.46 40.97 62.82 -94.23 61.46 -20.48 -31.41z"/>
  </g>
  <g>
   <path fill="#008DD2" fill-rule="nonzero" d="M4009.54 3514.18l-8.66 -74.5 74.49 -8.65 8.66 74.5 -74.49 8.65zm-148.98 17.3l-8.66 -74.5 74.49 -8.65 8.66 74.5 -74.49 8.65zm-148.98 17.31l-8.66 -74.5 74.49 -8.66 8.66 74.5 -74.49 8.66zm-149 17.32l-8.66 -74.5 74.5 -8.66 8.66 74.5 -74.5 8.66zm-149 17.32l-8.66 -74.5 74.5 -8.66 8.66 74.5 -74.5 8.66zm-149 17.32l-8.66 -74.5 74.5 -8.66 8.66 74.5 -74.5 8.66zm-149 17.32l-8.66 -74.5 74.5 -8.66 8.66 74.5 -74.5 8.66zm-149 17.32l-8.66 -74.5 74.5 -8.66 8.66 74.5 -74.5 8.66zm-149 17.32l-8.66 -74.5 74.5 -8.66 8.66 74.5 -74.5 8.66zm-149 17.32l-8.66 -74.5 74.5 -8.66 8.66 74.5 -74.5 8.66zm-149 17.32l-8.66 -74.5 74.5 -8.66 8.66 74.5 -74.5 8.66zm-149 17.32l-8.66 -74.5 74.5 -8.66 8.66 74.5 -74.5 8.66zm-149 17.32l-8.66 -74.5 74.5 -8.66 8.66 74.5 -74.5 8.66zm-149 17.32l-8.66 -74.5 74.5 -8.66 8.66 74.5 -74.5 8.66zm-149 17.32l-8.66 -74.5 74.5 -8.66 8.66 74.5 -74.5 8.66zm-115.12 -62.12l31.96 -3.72 8.66 74.5 -31.96 3.72 -8.66 -74.5zm7.55 185.48l18.05 -72.8 -46.27 40.73 -12.99 -111.75 74.5 -8.66 12.98 111.75 -46.27 40.73zm0 0l46.27 -40.73 6.25 53.75 -52.52 -13.02zm-319.09 -146.87l34.27 66.71 -8.11 -69.75 310.98 77.11 -18.05 72.8 -310.98 -77.12 -8.11 -69.75zm0 0l8.11 69.75 -97.06 -24.06 88.95 -45.69zm339.39 -117.35l-74.5 8.65 54.38 29.03 -285 146.38 -34.27 -66.71 285.01 -146.38 54.38 29.03zm0 0l-54.38 -29.03 48.13 -24.72 6.25 53.75zm-24.26 116.07l-37.25 4.33 -12.99 -111.75 74.5 -8.65 12.99 111.74 -37.25 4.33z"/>
  </g>
  <text x="5541.75" y="2785.75"  fill="#2B2A29" font-weight="bold" font-size="535.81px" font-family="Arial">1</text>
  <text x="4785.11" y="3989.6"  fill="#2B2A29" font-weight="bold" font-size="535.81px" font-family="Arial">2</text>
  <text x="2825.65" y="2379.41"  fill="#71C285" font-weight="bold" font-size="535.81px" font-family="Arial">1</text>
  <text x="839.39" y="3966.75"  fill="#71C285" font-weight="bold" font-size="535.81px" font-family="Arial">2</text>
  <circle fill="none" stroke="#2B2A29" stroke-width="75" stroke-miterlimit="22.9256" cx="4927.37" cy="3796.71" r="416.72"/>
  <circle fill="none" stroke="#2B2A29" stroke-width="75" stroke-miterlimit="22.9256" cx="5668.2" cy="2592.86" r="416.72"/>
 </g>
</svg>
