<?xml version="1.0" encoding="UTF-8"?>
<svg width="800px" height="468px" clip-rule="evenodd" viewBox="0 0 860.81 503.38" xmlns="http://www.w3.org/2000/svg">
  
  <rect transform="matrix(1 -0 -1.1448 1 310.37 43.668)" width="548.49" height="269.4" fill="none" stroke="#2B2A29" stroke-miterlimit="22.926" stroke-width="1.47"/>
  
   <path d="m422.72 342.09 0.01-0.4 0.03-0.38 0.05-0.39 0.07-0.38 0.08-0.37 0.11-0.36 0.12-0.36 0.14-0.35 0.15-0.34 0.17-0.33 0.19-0.32 0.2-0.31 0.21-0.3 0.23-0.29 0.24-0.28 0.25-0.27 0.27-0.25 0.28-0.25 0.29-0.23 0.3-0.21 0.31-0.2 0.33-0.19 0.33-0.17 0.34-0.15 0.35-0.14 0.35-0.12 0.37-0.1 0.37-0.09 0.38-0.07 0.38-0.05 0.39-0.03 0.4-0.01 0.39 0.01 0.39 0.03 0.39 0.05 0.37 0.07 0.38 0.09 0.36 0.1 0.36 0.12 0.35 0.14 0.34 0.15 0.33 0.17 0.32 0.19 0.31 0.2 0.3 0.21 0.29 0.23 0.28 0.25 0.27 0.25 0.25 0.27 0.25 0.28 0.22 0.29 0.22 0.3 0.2 0.31 0.18 0.32 0.17 0.33 0.16 0.34 0.13 0.35 0.13 0.36 0.1 0.36 0.09 0.37 0.06 0.38 0.05 0.39 0.03 0.38 0.01 0.4-0.01 0.39-0.03 0.39-0.05 0.39-0.06 0.37-0.09 0.37-0.1 0.37-0.13 0.36-0.13 0.34-0.16 0.34-0.17 0.34-0.18 0.32-0.2 0.31-0.22 0.3-0.22 0.29-0.25 0.28-0.25 0.27-0.27 0.25-0.28 0.24-0.29 0.23-0.3 0.22-0.31 0.2-0.32 0.18-0.33 0.17-0.34 0.16-0.35 0.14-0.36 0.12-0.36 0.1-0.38 0.09-0.37 0.06-0.39 0.05-0.39 0.03-0.39 0.01-0.4-0.01-0.39-0.03-0.38-0.05-0.38-0.06-0.37-0.09-0.37-0.1-0.35-0.12-0.35-0.14-0.34-0.16-0.33-0.17-0.33-0.18-0.31-0.2-0.3-0.22-0.29-0.23-0.28-0.24-0.27-0.25-0.25-0.27-0.24-0.28-0.23-0.29-0.21-0.3-0.2-0.31-0.19-0.32-0.17-0.34-0.15-0.34-0.14-0.34-0.12-0.36-0.11-0.37-0.08-0.37-0.07-0.37-0.05-0.39-0.03-0.39-0.01-0.39zm8.42-163.72v163.72h-1.47v-163.72h1.47zm-8.42 0 0.01-0.39 0.03-0.39 0.05-0.39 0.07-0.38 0.08-0.37 0.11-0.36 0.12-0.36 0.14-0.35 0.15-0.34 0.17-0.33 0.19-0.32 0.2-0.31 0.21-0.3 0.23-0.29 0.24-0.28 0.25-0.27 0.27-0.25 0.28-0.25 0.29-0.22 0.3-0.22 0.31-0.2 0.33-0.18 0.33-0.17 0.34-0.16 0.35-0.14 0.35-0.12 0.37-0.1 0.37-0.09 0.38-0.07 0.38-0.04 0.39-0.03 0.4-0.01 0.39 0.01 0.39 0.03 0.39 0.04 0.37 0.07 0.38 0.09 0.36 0.1 0.36 0.12 0.35 0.14 0.34 0.16 0.33 0.17 0.32 0.18 0.31 0.2 0.3 0.22 0.29 0.22 0.28 0.25 0.27 0.25 0.25 0.27 0.25 0.28 0.22 0.29 0.22 0.3 0.2 0.31 0.18 0.32 0.17 0.33 0.16 0.34 0.13 0.35 0.13 0.36 0.1 0.36 0.09 0.37 0.06 0.38 0.05 0.39 0.03 0.39 0.01 0.39-0.01 0.39-0.03 0.39-0.05 0.39-0.06 0.37-0.09 0.38-0.1 0.36-0.13 0.36-0.13 0.34-0.16 0.35-0.17 0.33-0.18 0.32-0.2 0.31-0.22 0.3-0.22 0.29-0.25 0.28-0.25 0.27-0.27 0.25-0.28 0.25-0.29 0.22-0.3 0.22-0.31 0.2-0.32 0.18-0.33 0.17-0.34 0.16-0.35 0.14-0.36 0.12-0.36 0.1-0.38 0.09-0.37 0.07-0.39 0.04-0.39 0.03-0.39 0.01-0.4-0.01-0.39-0.03-0.38-0.04-0.38-0.07-0.37-0.09-0.37-0.1-0.35-0.12-0.35-0.14-0.34-0.16-0.33-0.17-0.33-0.18-0.31-0.2-0.3-0.22-0.29-0.22-0.28-0.25-0.27-0.25-0.25-0.27-0.24-0.28-0.23-0.29-0.21-0.3-0.2-0.31-0.19-0.32-0.17-0.33-0.15-0.35-0.14-0.34-0.12-0.36-0.11-0.36-0.08-0.38-0.07-0.37-0.05-0.39-0.03-0.39-0.01-0.39z" fill="#2B2A29" fill-rule="nonzero"/>
  
  <rect transform="matrix(1 -0 -1.1448 1 310.37 207.39)" width="548.49" height="269.4" fill="none" stroke="#2B2A29" stroke-miterlimit="22.926" stroke-width="1.47"/>
  <polygon points="261.19 270.41 261.19 106.69 272.18 106.69 272.18 270.41" fill="#00A0E3" fill-rule="nonzero"/>
  <polyline points="430.41 178.37 430.41 342.09 266.69 270.41" fill="none" stroke="#2B2A29" stroke-miterlimit="22.926" stroke-width="1.47"/>
  
   <path d="m273.92 111.05 0.88-2 12.09-1.98 0.42 2.57-12.09 1.98 0.88-2-2.18 1.43zm0 0-1.1-1.68 1.98-0.32-0.88 2zm7.83 9.52-1.09 0.71-6.74-10.23 2.18-1.43 6.74 10.23-1.09 0.72zm138.98 54.37-144.16-63.12 0.58-1.35 144.17 63.12-0.59 1.35zm2.36 1.42-0.42-2.57-0.88 2-6.74-10.22 2.17-1.44 6.75 10.23-0.88 2zm0 0 0.88-2 1.1 1.67-1.98 0.33zm-12.3 0.7-0.21-1.28 12.09-1.99 0.42 2.57-12.09 1.99-0.21-1.29z" fill="#2B2A29" fill-rule="nonzero"/>
  
  <path d="m598.71 19.82-168.8 158.01 1 1.07 169.35-158.58c2.71 0.69 4.73 0.99 7.03 1.73l3.24-12.35-19.02 8.72c3.34 0.8 4.31 0.62 7.2 1.4z" fill="#00A0E3" fill-rule="nonzero"/>
  <path d="m508.66 178.37c-0.06-14.95-15.58-25.05-27.79-30.23-4.19-1.78-8.56-3.25-12.95-4.46l-0.39 1.41c13.35 3.72 31.26 11.33 37.65 24.62 1.31 2.78 2.01 5.58 2.02 8.66-0.09 14.6-15.89 24.32-27.76 29.23-15.31 6.28-32.56 8.78-49.03 8.8-20.46-0.03-45.03-4.12-62.27-15.82-7.48-5.16-14.47-12.56-14.53-22.21 0-10.09 3.45-14.74 11.87-20.06 0.63-0.39 1.26-0.76 1.9-1.13l-3.81 7.12 2.11 1.57 6.54-12.22-19.43 1.9 2.42 2.23 10.79-1.5c-6.3 3.61-11.46 7.65-13.17 15.14-0.53 2.25-0.68 4.64-0.68 6.95 0.07 11.84 9.8 20.5 19.27 26 17.17 9.84 39.43 13.47 58.99 13.49 20.97-0.03 46.07-4.27 63.64-16.45 7.69-5.44 14.56-13.1 14.61-23.04z" fill="#00A0E3" fill-rule="nonzero"/>
  <line x1="266.69" x2="430.41" y1="270.41" y2="178.37" fill="none" stroke="#2B2A29" stroke-miterlimit="22.926" stroke-width="1.47"/>
  <path d="m336.68 138.34 4.45 14.58-2.8-1.44-2.54-8.98c-1 8.05-1.58 16.02-1.76 24.14-0.06 3.02-0.09 6.03-0.09 9.06 0 12.27 0.38 24.49 2.07 36.66 0.54 3.95 1.29 8.48 2.03 12.39l2.32-7.35 3.35-1.66-5.35 14.35-9.59-8.24 3.2-1.12 4.78 4.33c-1.85-9.63-3.29-19.94-3.82-29.74-0.37-6.52-0.46-13.09-0.46-19.62 0-3.26 0.02-6.52 0.11-9.78 0.17-7.93 0.79-15.77 1.76-23.63l-5.25 6.17-2.51-1.07 9.24-10.86 0.86 1.81z" fill="#00A0E3" fill-rule="nonzero"/>
  <text x="615.03" y="29.6" fill="#00A0E3" font-family="Arial" font-size="41.35px" font-weight="bold">Пв.</text>
  <text x="324.28" y="34.19" fill="#2B2A29" font-family="Arial" font-size="31.01px">Площина</text>
  <text x="324.28" y="68.84" fill="#2B2A29" font-family="Arial" font-size="31.01px">горизонту</text>
  <text x="113.28" y="468.39" fill="#2B2A29" font-family="Arial" font-size="31.01px">Поверхня</text>
  <text x="113.28" y="503.04" fill="#2B2A29" font-family="Arial" font-size="31.01px">землі</text>
  <text x="516.61" y="164.76" fill="#2B2A29" font-family="Symbol" font-size="36.18px">j</text>
  <text x="302.44" y="195.89" fill="#2B2A29" font-family="Symbol" font-size="36.18px">q</text>
  <g transform="matrix(2.6484e-14 -1 1 2.6484e-14 -495.9 643.93)" fill="#2B2A29" font-family="Arial" font-size="31.01px">
   <text x="400" y="747.69">О</text>
   <text x="425.84" y="747.69">б</text>
   <text x="445.33" y="747.69">’</text>
   <text x="453.94" y="747.69">є</text>
   <text x="471.49" y="747.69">к</text>
   <text x="487.13" y="747.69">т</text>
  </g>
  <text x="348.23" y="132.72" fill="#2B2A29" font-family="Arial" font-size="36.18px" font-style="italic" font-weight="bold">d</text>
  <text x="443.96" y="277.71" fill="#2B2A29" font-family="Arial" font-size="36.18px" font-style="italic" font-weight="bold">h</text>
  <text x="448.11" y="196.3" fill="#2B2A29" font-family="Arial" font-size="36.18px" font-style="italic" font-weight="bold">C</text>
  <text x="209.84" y="103.84" fill="#2B2A29" font-family="Arial" font-size="36.18px" font-style="italic" font-weight="bold">A</text>
 
</svg>
