<svg xmlns="http://www.w3.org/2000/svg" xmlns:xlink="http://www.w3.org/1999/xlink" width="303.291" height="302.766" viewBox="209.624 76.055 284.336 283.843" >
	<style>
		<![CDATA[.B{overflow:visible}.C{stroke:none}]]>
	</style>
	<g fill="none">
		<circle cx="352.038" cy="217.976" r="141.421" stroke="#000"/>
		<g stroke="#82670e">
			<path d="M352.038 84.333v133.643" stroke-dasharray="6, 6"/>
			<path d="M440.88 161.408l-88.843 56.57M298.4 144.8l53.64 73.186"/>
		</g>
		<g stroke="#00f">
			<path d="M298.522 144.764a241.62 241.62 0 0 1 142.467 16.594M298.494 144.75a126.426 126.426 0 0 1 53.931-60.735"/>
			<path d="M351.978 84.22a144.982 144.982 0 0 1 89.138 77.677"/>
		</g>
	</g>
	<g fill="#00f">
		<g transform="matrix(1.5 0 0 1.5 -4.807612 -112.40054)">
			<defs>
				<symbol id="A" class="B">
					<path d="M8.11 0v-.187h-.187c-.5 0-.797-.25-.875-.828l-.922-6.89h-.22l-4.22 6.844c-.422.688-.86.828-1.266.875V0H3v-.187h-.344c-.312 0-.5-.125-.516-.344 0-.078.03-.22.125-.312L3.25-2.5h2.36l.14 1.344c.016.078.03.172.03.25 0 .47-.187.72-.86.72h-.187V0zM5.516-2.937H3.5l1.656-2.687h.063zm0 0" class="C"/>
				</symbol>
			</defs>
			<use y="134.765" x="223.432" xlink:href="#A"/>
		</g>
		<g transform="matrix(1.5 0 0 1.5 106.77312 -34.648232)">
			<defs>
				<symbol id="B" class="B">
					<path d="M2.344-7.734l-.062.188h.234c.688 0 .922.188.922.5 0 .078-.016.188-.03.25L1.953-.937c-.094.406-.312.75-1.22.75H.5L.453 0H4.28c2.453 0 3.422-1.11 3.422-2.28 0-1.016-.78-1.516-1.5-1.64l-.03-.047c.234-.062.578-.156.875-.312.563-.28 1.078-.812 1.078-1.734 0-1.61-1.797-1.72-2.797-1.72zm2.47.5c.156-.03.328-.03.5-.03.64 0 1.422.25 1.422 1.156 0 1.14-.672 1.922-2 1.922a3.24 3.24 0 0 1-.625-.062zM4-3.72c.188-.047.422-.047.61-.047.922 0 1.672.406 1.672 1.28 0 1.53-1.125 2.03-2.25 2.03-.297 0-.53-.016-.828-.11zm0 0" class="C"/>
				</symbol>
			</defs>
			<use xlink:href="#B" x="223.432" y="134.765"/>
		</g>
		<g transform="matrix(1.5 0 0 1.5 -53.033009 -48.083261)">
			<defs>
				<symbol id="C" class="B">
					<path d="M8.422-7.812h-.22c-.172.297-.36.328-.5.328-.61 0-1.22-.328-1.86-.328-2.875 0-5.25 1.938-5.25 4.656C.594-1.406 1.72.14 4 .14a3.84 3.84 0 0 0 2.281-.719 4.45 4.45 0 0 0 1.063-1.094l-.234-.156c-.062.094-.125.156-.203.234C6.375-1 5.5-.422 4.344-.422c-1.594 0-2.312-1.22-2.312-2.53 0-2.03 1.406-4.406 3.78-4.406 1.438 0 1.797.922 1.797 1.703v.5h.188zm0 0" class="C"/>
				</symbol>
			</defs>
			<use y="134.765" x="223.432" xlink:href="#C"/>
		</g>
	</g>
	<g fill="none">
		<path d="M303.8 133.325a12.5 12.5 0 0 1 7.474 9.225m48.668-55.646a8.312 8.312 0 0 1-15.055 1.713m81.378 66.59a15.5 15.5 0 0 1 7.244-7.683" stroke="#00f"/>
		<path d="M344.222 207.1a13.386 13.386 0 0 1 19.079 3.633m-11.246-12.23a19.462 19.462 0 0 1 16.297 8.85M336.877 196.9a25.962 25.962 0 0 1 15.175-4.887" stroke="#82670e"/>
	</g>
	<g fill="#82670e">
		<g transform="matrix(1.5 0 0 1.5 24 -49)">
			<defs>
				<symbol id="D" class="B">
					<path d="M5.594-5.062H4.64l-.11.39c-.03-.266-.28-.547-.78-.547C2.03-5.22.47-2.86.47-1.297.47-.53.78.125 1.53.125c.453 0 1.188-.156 2.047-1.25h.047c-.062.188-.125.438-.125.594 0 .375.094.656.484.656.578 0 1.22-.72 1.578-1.28l-.14-.14c-.453.625-.64.64-.75.64-.094 0-.172-.062-.172-.203 0-.094.016-.125.016-.125zm-1.25 1.03c0 .39-.078.875-.172 1.172C3.844-1.734 3.016-.61 2.188-.61c-.312 0-.687-.156-.687-.78 0-.406.125-.937.328-1.47.406-.984 1.125-2.016 1.922-2.016.453 0 .594.344.594.844zm0 0" class="C"/>
				</symbol>
			</defs>
			<use xlink:href="#D" x="223.432" y="134.765"/>
		</g>
		<g transform="matrix(1.5 0 0 1.5 -27 -91.5)">
			<defs>
				<symbol id="E" class="B">
					<path d="M2.53-4.53l.875-3.375-1.875.28.03.188c.094-.03.234-.047.36-.047.156 0 .328.094.344.25 0 .03-.016.078-.03.125L.53-.437c.53.36 1.016.563 1.64.563C4.03.125 5.328-2 5.328-3.437c0-.97-.484-1.78-1.312-1.78-.578 0-1.047.36-1.437.734zm-.406 1.547c.125-.53.53-1.594 1.375-1.594.39 0 .844.266.844 1.094 0 1.203-.78 3.266-2.22 3.266-.28 0-.656-.14-.656-.22zm0 0" class="C"/>
				</symbol>
			</defs>
			<use y="134.765" x="223.432" xlink:href="#E"/>
		</g>
		<g transform="matrix(1.5 0 0 1.5 68 -94.5)">
			<defs>
				<symbol id="F" class="B">
					<path d="M4.297-1.312c-.406.406-.953.797-1.672.797C2.078-.516 1.5-.78 1.5-1.812c0-.953.672-3.062 2.094-3.062.28 0 .39.11.39.25 0 .25-.344.39-.344.688a.45.45 0 0 0 .453.438c.453 0 .64-.375.64-.828 0-.578-.547-.89-1.14-.89C1.906-5.22.47-3.36.47-1.703.47-.797.953.125 2.094.125c1.016 0 1.75-.578 2.344-1.28zm0 0" class="C"/>
				</symbol>
			</defs>
			<use xlink:href="#F" x="223.432" y="134.765"/>
		</g>
	</g>
	<g transform="matrix(1.5 0 0 1.5 9.5 29.5)">
		<defs>
			<symbol id="G" class="B">
				<path d="M8.438-4.97c0-1.5-.97-2.953-2.953-2.953-3.016 0-4.89 2.89-4.89 5.297 0 1.625 1.234 2.75 3 2.75 2.984 0 4.844-2.75 4.844-5.094zm-1.375-.28c0 1.672-.875 4.938-3.375 4.938-.922 0-1.656-.64-1.656-1.78 0-1.687.61-5.39 3.36-5.39 1.188 0 1.672.97 1.672 2.234zm0 0" class="C"/>
			</symbol>
		</defs>
		<use y="134.765" x="223.432" xlink:href="#G"/>
	</g>
	<g fill="none" stroke="#000" stroke-width=".7">
		<path d="M209.974 218.1a141.562 27.847 0 0 1 141.556-27.845 141.562 27.847 0 0 1 141.567 27.843" stroke-dasharray="4.19999993,4.19999993"/>
		<path d="M209.974 218.1c.005 15.378 63.38 27.844 141.556 27.845s141.556-12.465 141.567-27.843"/>
	</g>
</svg>