<?xml version="1.0" encoding="UTF-8"?>
<svg xmlns="http://www.w3.org/2000/svg" xml:space="preserve" width="800px" height="832px" version="1.1" shape-rendering="geometricPrecision" text-rendering="geometricPrecision" image-rendering="optimizeQuality" fill-rule="evenodd" clip-rule="evenodd"
viewBox="0 0 768.85 799.86"
 xmlns:xlink="http://www.w3.org/1999/xlink">
 <g id="Layer_x0020_1">
  <circle fill="#D8E8C6" cx="683.53" cy="334.69" r="17.81"/>
  <circle fill="#D8E8C6" cx="517.32" cy="457.96" r="17.81"/>
  <circle fill="#D8E8C6" cx="340.95" cy="582.56" r="17.81"/>
  <circle fill="#D8E8C6" cx="150.07" cy="703.65" r="17.81"/>
  <g>
   <polygon fill="#262626" fill-rule="nonzero" fill-opacity="0.149020" points="89.05,41.58 89.05,738.38 88.06,738.38 88.06,41.58 "/>
  </g>
  <g>
   <polygon fill="#262626" fill-rule="nonzero" fill-opacity="0.149020" points="181.96,41.58 181.96,738.38 180.97,738.38 180.97,41.58 "/>
  </g>
  <g>
   <polygon fill="#262626" fill-rule="nonzero" fill-opacity="0.149020" points="274.87,41.58 274.87,738.38 273.88,738.38 273.88,41.58 "/>
  </g>
  <g>
   <polygon fill="#262626" fill-rule="nonzero" fill-opacity="0.149020" points="367.77,41.58 367.77,738.38 366.78,738.38 366.78,41.58 "/>
  </g>
  <g>
   <polygon fill="#262626" fill-rule="nonzero" fill-opacity="0.149020" points="460.68,41.58 460.68,738.38 459.69,738.38 459.69,41.58 "/>
  </g>
  <g>
   <polygon fill="#262626" fill-rule="nonzero" fill-opacity="0.149020" points="553.59,41.58 553.59,738.38 552.6,738.38 552.6,41.58 "/>
  </g>
  <g>
   <polygon fill="#262626" fill-rule="nonzero" fill-opacity="0.149020" points="646.5,41.58 646.5,738.38 645.51,738.38 645.51,41.58 "/>
  </g>
  <g>
   <polygon fill="#262626" fill-rule="nonzero" fill-opacity="0.149020" points="739.4,41.58 739.4,738.38 738.41,738.38 738.41,41.58 "/>
  </g>
  <line fill="none" stroke="#262626" stroke-width="0.99" stroke-miterlimit="22.9256" x1="88.56" y1="738.38" x2="88.56" y2= "729.55" />
  <line fill="none" stroke="#262626" stroke-width="0.99" stroke-miterlimit="22.9256" x1="88.56" y1="41.58" x2="88.56" y2= "50.41" />
  <line fill="none" stroke="#262626" stroke-width="0.99" stroke-miterlimit="22.9256" x1="181.46" y1="738.38" x2="181.46" y2= "729.55" />
  <line fill="none" stroke="#262626" stroke-width="0.99" stroke-miterlimit="22.9256" x1="181.46" y1="41.58" x2="181.46" y2= "50.41" />
  <line fill="none" stroke="#262626" stroke-width="0.99" stroke-miterlimit="22.9256" x1="274.37" y1="738.38" x2="274.37" y2= "729.55" />
  <line fill="none" stroke="#262626" stroke-width="0.99" stroke-miterlimit="22.9256" x1="274.37" y1="41.58" x2="274.37" y2= "50.41" />
  <line fill="none" stroke="#262626" stroke-width="0.99" stroke-miterlimit="22.9256" x1="367.28" y1="738.38" x2="367.28" y2= "729.55" />
  <line fill="none" stroke="#262626" stroke-width="0.99" stroke-miterlimit="22.9256" x1="367.28" y1="41.58" x2="367.28" y2= "50.41" />
  <line fill="none" stroke="#262626" stroke-width="0.99" stroke-miterlimit="22.9256" x1="460.19" y1="738.38" x2="460.19" y2= "729.55" />
  <line fill="none" stroke="#262626" stroke-width="0.99" stroke-miterlimit="22.9256" x1="460.19" y1="41.58" x2="460.19" y2= "50.41" />
  <line fill="none" stroke="#262626" stroke-width="0.99" stroke-miterlimit="22.9256" x1="553.09" y1="738.38" x2="553.09" y2= "729.55" />
  <line fill="none" stroke="#262626" stroke-width="0.99" stroke-miterlimit="22.9256" x1="553.09" y1="41.58" x2="553.09" y2= "50.41" />
  <line fill="none" stroke="#262626" stroke-width="0.99" stroke-miterlimit="22.9256" x1="646" y1="738.38" x2="646" y2= "729.55" />
  <line fill="none" stroke="#262626" stroke-width="0.99" stroke-miterlimit="22.9256" x1="646" y1="41.58" x2="646" y2= "50.41" />
  <line fill="none" stroke="#262626" stroke-width="0.99" stroke-miterlimit="22.9256" x1="738.91" y1="738.38" x2="738.91" y2= "729.55" />
  <line fill="none" stroke="#262626" stroke-width="0.99" stroke-miterlimit="22.9256" x1="738.91" y1="41.58" x2="738.91" y2= "50.41" />
  <g transform="matrix(1 0 0 1 -320.348 364.12)">
   <text x="400" y="404.94"  fill="#262626" font-weight="normal" font-size="19.79px" font-family="Arial">-</text>
   <text x="406" y="404.94"  fill="#262626" font-weight="normal" font-size="19.79px" font-family="Arial">2</text>
  </g>
  <g transform="matrix(1 0 0 1 -224.473 364.12)">
   <text x="400" y="404.94"  fill="#262626" font-weight="normal" font-size="19.79px" font-family="Arial">0</text>
  </g>
  <g transform="matrix(1 0 0 1 -131.565 364.12)">
   <text x="400" y="404.94"  fill="#262626" font-weight="normal" font-size="19.79px" font-family="Arial">2</text>
  </g>
  <g transform="matrix(1 0 0 1 -38.6579 364.12)">
   <text x="400" y="404.94"  fill="#262626" font-weight="normal" font-size="19.79px" font-family="Arial">4</text>
  </g>
  <g transform="matrix(1 0 0 1 54.2489 364.12)">
   <text x="400" y="404.94"  fill="#262626" font-weight="normal" font-size="19.79px" font-family="Arial">6</text>
  </g>
  <g transform="matrix(1 0 0 1 147.156 364.12)">
   <text x="400" y="404.94"  fill="#262626" font-weight="normal" font-size="19.79px" font-family="Arial">8</text>
  </g>
  <g transform="matrix(1 0 0 1 234.126 364.12)">
   <text x="400" y="404.94"  fill="#262626" font-weight="normal" font-size="19.79px" font-family="Arial">1</text>
   <text x="411.8" y="404.94"  fill="#262626" font-weight="normal" font-size="19.79px" font-family="Arial">0</text>
  </g>
  <g transform="matrix(1 0 0 1 327.034 364.12)">
   <text x="400" y="404.94"  fill="#262626" font-weight="normal" font-size="19.79px" font-family="Arial">1</text>
   <text x="411.8" y="404.94"  fill="#262626" font-weight="normal" font-size="19.79px" font-family="Arial">2</text>
  </g>
  <g>
   <polygon fill="#262626" fill-rule="nonzero" fill-opacity="0.149020" points="768.35,623.65 71.55,623.65 71.55,622.66 768.35,622.66 "/>
  </g>
  <g>
   <polygon fill="#262626" fill-rule="nonzero" fill-opacity="0.149020" points="768.35,449.45 71.55,449.45 71.55,448.46 768.35,448.46 "/>
  </g>
  <g>
   <polygon fill="#262626" fill-rule="nonzero" fill-opacity="0.149020" points="768.35,275.24 71.55,275.24 71.55,274.26 768.35,274.26 "/>
  </g>
  <g>
   <polygon fill="#262626" fill-rule="nonzero" fill-opacity="0.149020" points="768.35,101.04 71.55,101.04 71.55,100.05 768.35,100.05 "/>
  </g>
  <line fill="none" stroke="#262626" stroke-width="0.99" stroke-miterlimit="22.9256" x1="71.55" y1="623.15" x2="80.38" y2= "623.15" />
  <line fill="none" stroke="#262626" stroke-width="0.99" stroke-miterlimit="22.9256" x1="768.35" y1="623.15" x2="759.51" y2= "623.15" />
  <line fill="none" stroke="#262626" stroke-width="0.99" stroke-miterlimit="22.9256" x1="71.55" y1="448.95" x2="80.38" y2= "448.95" />
  <line fill="none" stroke="#262626" stroke-width="0.99" stroke-miterlimit="22.9256" x1="768.35" y1="448.95" x2="759.51" y2= "448.95" />
  <line fill="none" stroke="#262626" stroke-width="0.99" stroke-miterlimit="22.9256" x1="71.55" y1="274.75" x2="80.38" y2= "274.75" />
  <line fill="none" stroke="#262626" stroke-width="0.99" stroke-miterlimit="22.9256" x1="768.35" y1="274.75" x2="759.51" y2= "274.75" />
  <line fill="none" stroke="#262626" stroke-width="0.99" stroke-miterlimit="22.9256" x1="71.55" y1="100.55" x2="80.38" y2= "100.55" />
  <line fill="none" stroke="#262626" stroke-width="0.99" stroke-miterlimit="22.9256" x1="768.35" y1="100.55" x2="759.51" y2= "100.55" />
  <g transform="matrix(1 0 0 1 -368.037 226.127)">
   <text x="400" y="404.94"  fill="#262626" font-weight="normal" font-size="19.79px" font-family="Arial">-</text>
   <text x="406" y="404.94"  fill="#262626" font-weight="normal" font-size="19.79px" font-family="Arial">1</text>
   <text x="417.8" y="404.94"  fill="#262626" font-weight="normal" font-size="19.79px" font-family="Arial">5</text>
  </g>
  <g transform="matrix(1 0 0 1 -368.037 51.9257)">
   <text x="400" y="404.94"  fill="#262626" font-weight="normal" font-size="19.79px" font-family="Arial">-</text>
   <text x="406" y="404.94"  fill="#262626" font-weight="normal" font-size="19.79px" font-family="Arial">1</text>
   <text x="417.8" y="404.94"  fill="#262626" font-weight="normal" font-size="19.79px" font-family="Arial">0</text>
  </g>
  <g transform="matrix(1 0 0 1 -356.162 -122.275)">
   <text x="400" y="404.94"  fill="#262626" font-weight="normal" font-size="19.79px" font-family="Arial">-</text>
   <text x="406" y="404.94"  fill="#262626" font-weight="normal" font-size="19.79px" font-family="Arial">5</text>
  </g>
  <g transform="matrix(1 0 0 1 -350.225 -296.477)">
   <text x="400" y="404.94"  fill="#262626" font-weight="normal" font-size="19.79px" font-family="Arial">0</text>
  </g>
  <g>
   <path fill="#262626" fill-rule="nonzero" d="M71.55 737.89l0 0.99 -0.5 0 0 -0.99 0.5 0zm696.8 0.99l-696.8 0 0 -0.99 696.8 0 0 0.99zm0 0l0 -0.99 0.5 0 0 0.99 -0.5 0z"/>
  </g>
  <g>
   <path fill="#262626" fill-rule="nonzero" d="M71.55 41.08l0 0.99 -0.5 0 0 -0.99 0.5 0zm696.8 0.99l-696.8 0 0 -0.99 696.8 0 0 0.99zm0 0l0 -0.99 0.5 0 0 0.99 -0.5 0z"/>
  </g>
  <g>
   <path fill="#262626" fill-rule="nonzero" d="M71.05 738.38l0.99 0 0 0.5 -0.99 0 0 -0.5zm0.99 -696.8l0 696.8 -0.99 0 0 -696.8 0.99 0zm0 0l-0.99 0 0 -0.5 0.99 0 0 0.5z"/>
  </g>
  <g>
   <path fill="#262626" fill-rule="nonzero" d="M767.86 738.38l0.99 0 0 0.5 -0.99 0 0 -0.5zm0.99 -696.8l0 696.8 -0.99 0 0 -696.8 0.99 0zm0 0l-0.99 0 0 -0.5 0.99 0 0 0.5z"/>
  </g>
  <g transform="matrix(1 0 0 1 -1.82047 391.828)">
   <text x="400" y="404.94"  fill="#262626" font-weight="normal" font-size="21.77px" font-family="Arial">X, m</text>
 </g>
  <g transform="matrix(1 0 0 1 -68.1209 -389.093)">
   <text x="400" y="404.94"  fill="black" font-weight="normal" font-size="21.77px" font-family="Arial">After adjustment</text>
  </g>
  <polygon fill="#0071BC" points="182.45,102.26 180.47,102.26 179.49,100.55 180.47,98.83 182.45,98.83 183.44,100.55 183.44,100.55 "/>
  <line fill="none" stroke="#D85218" stroke-width="0.99" stroke-linejoin="round" stroke-miterlimit="22.9256" x1="210.03" y1="99.38" x2="436.72" y2= "40.88" />
  <line fill="none" stroke="#ECB01F" stroke-width="0.99" stroke-linejoin="round" stroke-miterlimit="22.9256" x1="70.85" y1="207.9" x2="524.17" y2= "40.88" />
  <line fill="none" stroke="#76AB2F" stroke-width="0.99" stroke-linejoin="round" stroke-miterlimit="22.9256" x1="210.03" y1="99.38" x2="436.72" y2= "40.88" />
  <line fill="none" stroke="#4CBDED" stroke-width="0.99" stroke-linejoin="round" stroke-miterlimit="22.9256" x1="70.85" y1="261.29" x2="563.43" y2= "40.88" />
  <line fill="none" stroke="#0071BC" stroke-width="0.99" stroke-linejoin="round" stroke-miterlimit="22.9256" x1="70.85" y1="207.9" x2="524.17" y2= "40.88" />
  <line fill="none" stroke="#D85218" stroke-width="0.99" stroke-linejoin="round" stroke-miterlimit="22.9256" x1="70.85" y1="261.29" x2="563.43" y2= "40.88" />
  <line fill="none" stroke="#7D2E8D" stroke-width="0.99" stroke-linejoin="round" stroke-miterlimit="22.9256" x1="210.03" y1="99.38" x2="411.19" y2= "150.79" />
  <line fill="none" stroke="#76AB2F" stroke-width="0.99" stroke-linejoin="round" stroke-miterlimit="22.9256" x1="70.85" y1="223.4" x2="411.19" y2= "150.79" />
  <polygon fill="red" points="416,154.28 413.03,156.43 409.36,156.43 406.39,154.28 405.26,150.79 406.39,147.3 409.36,145.14 413.03,145.14 416,147.3 417.13,150.79 "/>
  <polyline fill="none" stroke="yellow" stroke-width="0.99" stroke-linecap="round" stroke-linejoin="round" stroke-miterlimit="22.9256" points="417.13,150.79 416,154.28 413.03,156.43 409.36,156.43 406.39,154.28 405.26,150.79 406.39,147.3 409.36,145.14 413.03,145.14 416,147.3 417.13,150.79 "/>
  <line fill="none" stroke="#A1132E" stroke-width="0.99" stroke-linejoin="round" stroke-miterlimit="22.9256" x1="210.03" y1="99.38" x2="415.6" y2= "151.91" />
  <line fill="none" stroke="#0071BC" stroke-width="0.99" stroke-linejoin="round" stroke-miterlimit="22.9256" x1="70.85" y1="283.02" x2="415.6" y2= "151.91" />
  <polygon fill="red" points="420.4,155.4 417.43,157.56 413.76,157.56 410.79,155.4 409.66,151.91 410.79,148.42 413.76,146.26 417.43,146.26 420.4,148.42 421.53,151.91 "/>
  <polyline fill="none" stroke="yellow" stroke-width="0.99" stroke-linecap="round" stroke-linejoin="round" stroke-miterlimit="22.9256" points="421.53,151.91 420.4,155.4 417.43,157.56 413.76,157.56 410.79,155.4 409.66,151.91 410.79,148.42 413.76,146.26 417.43,146.26 420.4,148.42 421.53,151.91 "/>
  <line fill="none" stroke="#ECB01F" stroke-width="0.99" stroke-linejoin="round" stroke-miterlimit="22.9256" x1="70.85" y1="223.4" x2="427.96" y2= "147.21" />
  <line fill="none" stroke="#7D2E8D" stroke-width="0.99" stroke-linejoin="round" stroke-miterlimit="22.9256" x1="70.85" y1="283.02" x2="427.96" y2= "147.21" />
  <polygon fill="red" points="432.76,150.7 429.8,152.86 426.13,152.86 423.16,150.7 422.02,147.21 423.16,143.72 426.13,141.56 429.8,141.56 432.76,143.72 433.9,147.21 "/>
  <polyline fill="none" stroke="yellow" stroke-width="0.99" stroke-linecap="round" stroke-linejoin="round" stroke-miterlimit="22.9256" points="433.9,147.21 432.76,150.7 429.8,152.86 426.13,152.86 423.16,150.7 422.02,147.21 423.16,143.72 426.13,141.56 429.8,141.56 432.76,143.72 433.9,147.21 "/>
  <line fill="none" stroke="#4CBDED" stroke-width="0.99" stroke-linejoin="round" stroke-miterlimit="22.9256" x1="210.03" y1="99.38" x2="548.95" y2= "139.99" />
  <line fill="none" stroke="#A1132E" stroke-width="0.99" stroke-linejoin="round" stroke-miterlimit="22.9256" x1="70.85" y1="226.62" x2="548.95" y2= "139.99" />
  <polygon fill="red" points="553.75,143.48 550.78,145.64 547.11,145.64 544.14,143.48 543.01,139.99 544.14,136.5 547.11,134.35 550.78,134.35 553.75,136.5 554.89,139.99 "/>
  <polyline fill="none" stroke="yellow" stroke-width="0.99" stroke-linecap="round" stroke-linejoin="round" stroke-miterlimit="22.9256" points="554.89,139.99 553.75,143.48 550.78,145.64 547.11,145.64 544.14,143.48 543.01,139.99 544.14,136.5 547.11,134.35 550.78,134.35 553.75,136.5 554.89,139.99 "/>
  <line fill="none" stroke="#D85218" stroke-width="0.99" stroke-linejoin="round" stroke-miterlimit="22.9256" x1="210.03" y1="99.38" x2="535.08" y2= "138.33" />
  <line fill="none" stroke="#ECB01F" stroke-width="0.99" stroke-linejoin="round" stroke-miterlimit="22.9256" x1="70.85" y1="296.11" x2="535.08" y2= "138.33" />
  <polygon fill="red" points="539.89,141.82 536.92,143.98 533.25,143.98 530.28,141.82 529.15,138.33 530.28,134.84 533.25,132.68 536.92,132.68 539.89,134.84 541.02,138.33 "/>
  <polyline fill="none" stroke="yellow" stroke-width="0.99" stroke-linecap="round" stroke-linejoin="round" stroke-miterlimit="22.9256" points="541.02,138.33 539.89,141.82 536.92,143.98 533.25,143.98 530.28,141.82 529.15,138.33 530.28,134.84 533.25,132.68 536.92,132.68 539.89,134.84 541.02,138.33 "/>
  <line fill="none" stroke="#76AB2F" stroke-width="0.99" stroke-linejoin="round" stroke-miterlimit="22.9256" x1="70.85" y1="226.62" x2="508.78" y2= "147.27" />
  <line fill="none" stroke="#4CBDED" stroke-width="0.99" stroke-linejoin="round" stroke-miterlimit="22.9256" x1="70.85" y1="296.11" x2="508.78" y2= "147.27" />
  <polygon fill="red" points="513.58,150.76 510.61,152.92 506.95,152.92 503.98,150.76 502.84,147.27 503.98,143.78 506.95,141.62 510.61,141.62 513.58,143.78 514.72,147.27 "/>
  <polyline fill="none" stroke="yellow" stroke-width="0.99" stroke-linecap="round" stroke-linejoin="round" stroke-miterlimit="22.9256" points="514.72,147.27 513.58,150.76 510.61,152.92 506.95,152.92 503.98,150.76 502.84,147.27 503.98,143.78 506.95,141.62 510.61,141.62 513.58,143.78 514.72,147.27 "/>
  <line fill="none" stroke="#0071BC" stroke-width="0.99" stroke-linejoin="round" stroke-miterlimit="22.9256" x1="210.03" y1="99.38" x2="682.45" y2= "334.55" />
  <line fill="none" stroke="#D85218" stroke-width="0.99" stroke-linejoin="round" stroke-miterlimit="22.9256" x1="70.85" y1="257.35" x2="682.45" y2= "334.55" />
  <polygon fill="red" points="687.26,338.04 684.29,340.2 680.62,340.2 677.65,338.04 676.52,334.55 677.65,331.06 680.62,328.9 684.29,328.9 687.26,331.06 688.39,334.55 "/>
  <polyline fill="none" stroke="yellow" stroke-width="0.99" stroke-linecap="round" stroke-linejoin="round" stroke-miterlimit="22.9256" points="688.39,334.55 687.26,338.04 684.29,340.2 680.62,340.2 677.65,338.04 676.52,334.55 677.65,331.06 680.62,328.9 684.29,328.9 687.26,331.06 688.39,334.55 "/>
  <line fill="none" stroke="#7D2E8D" stroke-width="0.99" stroke-linejoin="round" stroke-miterlimit="22.9256" x1="210.03" y1="99.38" x2="682.83" y2= "334.74" />
  <line fill="none" stroke="#76AB2F" stroke-width="0.99" stroke-linejoin="round" stroke-miterlimit="22.9256" x1="70.85" y1="381.44" x2="682.83" y2= "334.74" />
  <polygon fill="red" points="687.63,338.23 684.67,340.39 681,340.39 678.03,338.23 676.89,334.74 678.03,331.25 681,329.09 684.67,329.09 687.63,331.25 688.77,334.74 "/>
  <polyline fill="none" stroke="yellow" stroke-width="0.99" stroke-linecap="round" stroke-linejoin="round" stroke-miterlimit="22.9256" points="688.77,334.74 687.63,338.23 684.67,340.39 681,340.39 678.03,338.23 676.89,334.74 678.03,331.25 681,329.09 684.67,329.09 687.63,331.25 688.77,334.74 "/>
  <line fill="none" stroke="#A1132E" stroke-width="0.99" stroke-linejoin="round" stroke-miterlimit="22.9256" x1="70.85" y1="257.35" x2="683.53" y2= "334.69" />
  <line fill="none" stroke="#0071BC" stroke-width="0.99" stroke-linejoin="round" stroke-miterlimit="22.9256" x1="70.85" y1="381.44" x2="683.53" y2= "334.69" />
  <polygon fill="red" points="688.33,338.18 685.36,340.33 681.69,340.33 678.72,338.18 677.59,334.69 678.72,331.2 681.69,329.04 685.36,329.04 688.33,331.2 689.46,334.69 "/>
  <polyline fill="none" stroke="yellow" stroke-width="0.99" stroke-linecap="round" stroke-linejoin="round" stroke-miterlimit="22.9256" points="689.46,334.69 688.33,338.18 685.36,340.33 681.69,340.33 678.72,338.18 677.59,334.69 678.72,331.2 681.69,329.04 685.36,329.04 688.33,331.2 689.46,334.69 "/>
  <line fill="none" stroke="#ECB01F" stroke-width="0.99" stroke-linejoin="round" stroke-miterlimit="22.9256" x1="210.03" y1="99.38" x2="393.97" y2= "241.2" />
  <line fill="none" stroke="#7D2E8D" stroke-width="0.99" stroke-linejoin="round" stroke-miterlimit="22.9256" x1="70.85" y1="243.9" x2="393.97" y2= "241.2" />
  <polygon fill="red" points="398.77,244.69 395.8,246.84 392.14,246.84 389.17,244.69 388.03,241.2 389.17,237.71 392.14,235.55 395.8,235.55 398.77,237.71 399.91,241.2 "/>
  <polyline fill="none" stroke="yellow" stroke-width="0.99" stroke-linecap="round" stroke-linejoin="round" stroke-miterlimit="22.9256" points="399.91,241.2 398.77,244.69 395.8,246.84 392.14,246.84 389.17,244.69 388.03,241.2 389.17,237.71 392.14,235.55 395.8,235.55 398.77,237.71 399.91,241.2 "/>
  <line fill="none" stroke="#4CBDED" stroke-width="0.99" stroke-linejoin="round" stroke-miterlimit="22.9256" x1="210.03" y1="99.38" x2="392.25" y2= "239.87" />
  <line fill="none" stroke="#A1132E" stroke-width="0.99" stroke-linejoin="round" stroke-miterlimit="22.9256" x1="70.85" y1="322.71" x2="392.25" y2= "239.87" />
  <polygon fill="red" points="397.05,243.36 394.08,245.52 390.41,245.52 387.44,243.36 386.31,239.87 387.44,236.38 390.41,234.22 394.08,234.22 397.05,236.38 398.19,239.87 "/>
  <polyline fill="none" stroke="yellow" stroke-width="0.99" stroke-linecap="round" stroke-linejoin="round" stroke-miterlimit="22.9256" points="398.19,239.87 397.05,243.36 394.08,245.52 390.41,245.52 387.44,243.36 386.31,239.87 387.44,236.38 390.41,234.22 394.08,234.22 397.05,236.38 398.19,239.87 "/>
  <line fill="none" stroke="#D85218" stroke-width="0.99" stroke-linejoin="round" stroke-miterlimit="22.9256" x1="70.85" y1="243.9" x2="386.86" y2= "241.26" />
  <line fill="none" stroke="#ECB01F" stroke-width="0.99" stroke-linejoin="round" stroke-miterlimit="22.9256" x1="70.85" y1="322.71" x2="386.86" y2= "241.26" />
  <polygon fill="red" points="391.67,244.75 388.7,246.9 385.03,246.9 382.06,244.75 380.93,241.26 382.06,237.77 385.03,235.61 388.7,235.61 391.67,237.77 392.8,241.26 "/>
  <polyline fill="none" stroke="yellow" stroke-width="0.99" stroke-linecap="round" stroke-linejoin="round" stroke-miterlimit="22.9256" points="392.8,241.26 391.67,244.75 388.7,246.9 385.03,246.9 382.06,244.75 380.93,241.26 382.06,237.77 385.03,235.61 388.7,235.61 391.67,237.77 392.8,241.26 "/>
  <line fill="none" stroke="#76AB2F" stroke-width="0.99" stroke-linejoin="round" stroke-miterlimit="22.9256" x1="210.03" y1="99.38" x2="522.49" y2= "459.98" />
  <line fill="none" stroke="#4CBDED" stroke-width="0.99" stroke-linejoin="round" stroke-miterlimit="22.9256" x1="70.85" y1="283.74" x2="522.49" y2= "459.98" />
  <polygon fill="red" points="527.29,463.47 524.33,465.62 520.66,465.62 517.69,463.47 516.55,459.98 517.69,456.49 520.66,454.33 524.33,454.33 527.29,456.49 528.43,459.98 "/>
  <polyline fill="none" stroke="yellow" stroke-width="0.99" stroke-linecap="round" stroke-linejoin="round" stroke-miterlimit="22.9256" points="528.43,459.98 527.29,463.47 524.33,465.62 520.66,465.62 517.69,463.47 516.55,459.98 517.69,456.49 520.66,454.33 524.33,454.33 527.29,456.49 528.43,459.98 "/>
  <line fill="none" stroke="#0071BC" stroke-width="0.99" stroke-linejoin="round" stroke-miterlimit="22.9256" x1="210.03" y1="99.38" x2="519.37" y2= "456.38" />
  <line fill="none" stroke="#D85218" stroke-width="0.99" stroke-linejoin="round" stroke-miterlimit="22.9256" x1="70.85" y1="427.21" x2="519.37" y2= "456.38" />
  <polygon fill="red" points="524.18,459.87 521.21,462.03 517.54,462.03 514.57,459.87 513.44,456.38 514.57,452.89 517.54,450.73 521.21,450.73 524.18,452.89 525.31,456.38 "/>
  <polyline fill="none" stroke="yellow" stroke-width="0.99" stroke-linecap="round" stroke-linejoin="round" stroke-miterlimit="22.9256" points="525.31,456.38 524.18,459.87 521.21,462.03 517.54,462.03 514.57,459.87 513.44,456.38 514.57,452.89 517.54,450.73 521.21,450.73 524.18,452.89 525.31,456.38 "/>
  <line fill="none" stroke="#7D2E8D" stroke-width="0.99" stroke-linejoin="round" stroke-miterlimit="22.9256" x1="70.85" y1="283.74" x2="512.05" y2= "455.9" />
  <line fill="none" stroke="#76AB2F" stroke-width="0.99" stroke-linejoin="round" stroke-miterlimit="22.9256" x1="70.85" y1="427.21" x2="512.05" y2= "455.9" />
  <polygon fill="red" points="516.85,459.39 513.89,461.55 510.22,461.55 507.25,459.39 506.11,455.9 507.25,452.41 510.22,450.26 513.89,450.26 516.85,452.41 517.99,455.9 "/>
  <polyline fill="none" stroke="yellow" stroke-width="0.99" stroke-linecap="round" stroke-linejoin="round" stroke-miterlimit="22.9256" points="517.99,455.9 516.85,459.39 513.89,461.55 510.22,461.55 507.25,459.39 506.11,455.9 507.25,452.41 510.22,450.26 513.89,450.26 516.85,452.41 517.99,455.9 "/>
  <line fill="none" stroke="#A1132E" stroke-width="0.99" stroke-linejoin="round" stroke-miterlimit="22.9256" x1="210.03" y1="99.38" x2="340.16" y2= "579.64" />
  <line fill="none" stroke="#0071BC" stroke-width="0.99" stroke-linejoin="round" stroke-miterlimit="22.9256" x1="70.85" y1="335.4" x2="340.16" y2= "579.64" />
  <polygon fill="red" points="344.96,583.13 341.99,585.29 338.32,585.29 335.35,583.13 334.22,579.64 335.35,576.15 338.32,574 341.99,574 344.96,576.15 346.1,579.64 "/>
  <polyline fill="none" stroke="yellow" stroke-width="0.99" stroke-linecap="round" stroke-linejoin="round" stroke-miterlimit="22.9256" points="346.1,579.64 344.96,583.13 341.99,585.29 338.32,585.29 335.35,583.13 334.22,579.64 335.35,576.15 338.32,574 341.99,574 344.96,576.15 346.1,579.64 "/>
  <line fill="none" stroke="#ECB01F" stroke-width="0.99" stroke-linejoin="round" stroke-miterlimit="22.9256" x1="210.03" y1="99.38" x2="341.22" y2= "583.57" />
  <line fill="none" stroke="#7D2E8D" stroke-width="0.99" stroke-linejoin="round" stroke-miterlimit="22.9256" x1="70.85" y1="502.83" x2="341.22" y2= "583.57" />
  <polygon fill="red" points="346.03,587.06 343.06,589.21 339.39,589.21 336.42,587.06 335.28,583.57 336.42,580.08 339.39,577.92 343.06,577.92 346.03,580.08 347.16,583.57 "/>
  <polyline fill="none" stroke="yellow" stroke-width="0.99" stroke-linecap="round" stroke-linejoin="round" stroke-miterlimit="22.9256" points="347.16,583.57 346.03,587.06 343.06,589.21 339.39,589.21 336.42,587.06 335.28,583.57 336.42,580.08 339.39,577.92 343.06,577.92 346.03,580.08 347.16,583.57 "/>
  <line fill="none" stroke="#4CBDED" stroke-width="0.99" stroke-linejoin="round" stroke-miterlimit="22.9256" x1="70.85" y1="335.4" x2="346.09" y2= "585.02" />
  <line fill="none" stroke="#A1132E" stroke-width="0.99" stroke-linejoin="round" stroke-miterlimit="22.9256" x1="70.85" y1="502.83" x2="346.09" y2= "585.02" />
  <polygon fill="red" points="350.89,588.51 347.92,590.67 344.25,590.67 341.29,588.51 340.15,585.02 341.29,581.53 344.25,579.37 347.92,579.37 350.89,581.53 352.03,585.02 "/>
  <polyline fill="none" stroke="yellow" stroke-width="0.99" stroke-linecap="round" stroke-linejoin="round" stroke-miterlimit="22.9256" points="352.03,585.02 350.89,588.51 347.92,590.67 344.25,590.67 341.29,588.51 340.15,585.02 341.29,581.53 344.25,579.37 347.92,579.37 350.89,581.53 352.03,585.02 "/>
  <line fill="none" stroke="#D85218" stroke-width="0.99" stroke-linejoin="round" stroke-miterlimit="22.9256" x1="210.03" y1="99.38" x2="149.75" y2= "700.72" />
  <line fill="none" stroke="#ECB01F" stroke-width="0.99" stroke-linejoin="round" stroke-miterlimit="22.9256" x1="70.85" y1="499.59" x2="149.75" y2= "700.72" />
  <polygon fill="red" points="154.55,704.21 151.59,706.37 147.92,706.37 144.95,704.21 143.81,700.72 144.95,697.23 147.92,695.08 151.59,695.08 154.55,697.23 155.69,700.72 "/>
  <polyline fill="none" stroke="yellow" stroke-width="0.99" stroke-linecap="round" stroke-linejoin="round" stroke-miterlimit="22.9256" points="155.69,700.72 154.55,704.21 151.59,706.37 147.92,706.37 144.95,704.21 143.81,700.72 144.95,697.23 147.92,695.08 151.59,695.08 154.55,697.23 155.69,700.72 "/>
  <line fill="none" stroke="#76AB2F" stroke-width="0.99" stroke-linejoin="round" stroke-miterlimit="22.9256" x1="210.03" y1="99.38" x2="149.36" y2= "704.65" />
  <line fill="none" stroke="#4CBDED" stroke-width="0.99" stroke-linejoin="round" stroke-miterlimit="22.9256" x1="70.85" y1="646.39" x2="149.36" y2= "704.65" />
  <polygon fill="red" points="154.16,708.14 151.19,710.29 147.52,710.29 144.55,708.14 143.42,704.65 144.55,701.16 147.52,699 151.19,699 154.16,701.16 155.29,704.65 "/>
  <polyline fill="none" stroke="yellow" stroke-width="0.99" stroke-linecap="round" stroke-linejoin="round" stroke-miterlimit="22.9256" points="155.29,704.65 154.16,708.14 151.19,710.29 147.52,710.29 144.55,708.14 143.42,704.65 144.55,701.16 147.52,699 151.19,699 154.16,701.16 155.29,704.65 "/>
  <line fill="none" stroke="#0071BC" stroke-width="0.99" stroke-linejoin="round" stroke-miterlimit="22.9256" x1="70.85" y1="499.59" x2="152.08" y2= "706.67" />
  <line fill="none" stroke="#D85218" stroke-width="0.99" stroke-linejoin="round" stroke-miterlimit="22.9256" x1="70.85" y1="646.39" x2="152.08" y2= "706.67" />
  <polygon fill="red" points="156.89,710.16 153.92,712.32 150.25,712.32 147.28,710.16 146.15,706.67 147.28,703.18 150.25,701.02 153.92,701.02 156.89,703.18 158.02,706.67 "/>
  <polyline fill="none" stroke="yellow" stroke-width="0.99" stroke-linecap="round" stroke-linejoin="round" stroke-miterlimit="22.9256" points="158.02,706.67 156.89,710.16 153.92,712.32 150.25,712.32 147.28,710.16 146.15,706.67 147.28,703.18 150.25,701.02 153.92,701.02 156.89,703.18 158.02,706.67 "/>
  <line fill="none" stroke="#7D2E8D" stroke-width="0.99" stroke-linejoin="round" stroke-miterlimit="22.9256" x1="210.03" y1="99.38" x2="188.34" y2= "739.08" />
  <line fill="none" stroke="#76AB2F" stroke-width="0.99" stroke-linejoin="round" stroke-miterlimit="22.9256" x1="70.85" y1="537.44" x2="139.72" y2= "739.08" />
  <line fill="none" stroke="#A1132E" stroke-width="0.99" stroke-linejoin="round" stroke-miterlimit="22.9256" x1="210.03" y1="99.38" x2="188.34" y2= "739.08" />
  <line fill="none" stroke="#ECB01F" stroke-width="0.99" stroke-linejoin="round" stroke-miterlimit="22.9256" x1="70.85" y1="537.44" x2="139.72" y2= "739.08" />
  <line fill="none" stroke="#4CBDED" stroke-width="0.99" stroke-linejoin="round" stroke-miterlimit="22.9256" x1="210.03" y1="99.38" x2="70.85" y2= "331.01" />
  <line fill="none" stroke="#D85218" stroke-width="0.99" stroke-linejoin="round" stroke-miterlimit="22.9256" x1="210.03" y1="99.38" x2="70.85" y2= "331.01" />
  <line fill="none" stroke="#0071BC" stroke-width="0.99" stroke-linejoin="round" stroke-miterlimit="22.9256" x1="210.03" y1="99.38" x2="70.85" y2= "295.87" />
  <line fill="none" stroke="#7D2E8D" stroke-width="0.99" stroke-linejoin="round" stroke-miterlimit="22.9256" x1="210.03" y1="99.38" x2="70.85" y2= "295.87" />
  <line fill="none" stroke="#ECB01F" stroke-width="0.99" stroke-linejoin="round" stroke-miterlimit="22.9256" x1="210.03" y1="99.38" x2="121.4" y2= "739.08" />
  <line fill="none" stroke="#4CBDED" stroke-width="0.99" stroke-linejoin="round" stroke-miterlimit="22.9256" x1="210.03" y1="99.38" x2="121.4" y2= "739.08" />
  <line fill="none" stroke="#76AB2F" stroke-width="0.99" stroke-linejoin="round" stroke-miterlimit="22.9256" x1="210.03" y1="99.38" x2="77.44" y2= "739.08" />
  <line fill="none" stroke="#0071BC" stroke-width="0.99" stroke-linejoin="round" stroke-miterlimit="22.9256" x1="210.03" y1="99.38" x2="77.44" y2= "739.08" />
  <line fill="none" stroke="#A1132E" stroke-width="0.99" stroke-linejoin="round" stroke-miterlimit="22.9256" x1="210.03" y1="99.38" x2="70.85" y2= "375.76" />
  <line fill="none" stroke="#ECB01F" stroke-width="0.99" stroke-linejoin="round" stroke-miterlimit="22.9256" x1="210.03" y1="99.38" x2="70.85" y2= "375.76" />
  <line fill="none" stroke="#D85218" stroke-width="0.99" stroke-linejoin="round" stroke-miterlimit="22.9256" x1="210.03" y1="99.38" x2="70.85" y2= "319.43" />
  <line fill="none" stroke="#76AB2F" stroke-width="0.99" stroke-linejoin="round" stroke-miterlimit="22.9256" x1="210.03" y1="99.38" x2="70.85" y2= "319.43" />
  <line fill="none" stroke="#7D2E8D" stroke-width="0.99" stroke-linejoin="round" stroke-miterlimit="22.9256" x1="210.03" y1="99.38" x2="70.85" y2= "288.46" />
  <line fill="none" stroke="#A1132E" stroke-width="0.99" stroke-linejoin="round" stroke-miterlimit="22.9256" x1="210.03" y1="99.38" x2="70.85" y2= "288.46" />
  <line fill="none" stroke="#4CBDED" stroke-width="0.99" stroke-linejoin="round" stroke-miterlimit="22.9256" x1="210.03" y1="99.38" x2="70.85" y2= "243.97" />
  <line fill="none" stroke="#D85218" stroke-width="0.99" stroke-linejoin="round" stroke-miterlimit="22.9256" x1="210.03" y1="99.38" x2="70.85" y2= "243.97" />
  <line fill="none" stroke="#0071BC" stroke-width="0.99" stroke-linejoin="round" stroke-miterlimit="22.9256" x1="210.03" y1="99.38" x2="70.85" y2= "224.52" />
  <line fill="none" stroke="#7D2E8D" stroke-width="0.99" stroke-linejoin="round" stroke-miterlimit="22.9256" x1="210.03" y1="99.38" x2="70.85" y2= "224.52" />
  <line fill="none" stroke="#ECB01F" stroke-width="0.99" stroke-linejoin="round" stroke-miterlimit="22.9256" x1="210.03" y1="99.38" x2="70.85" y2= "215.45" />
  <line fill="none" stroke="#4CBDED" stroke-width="0.99" stroke-linejoin="round" stroke-miterlimit="22.9256" x1="210.03" y1="99.38" x2="70.85" y2= "215.45" />
  <line fill="none" stroke="#76AB2F" stroke-width="0.99" stroke-linejoin="round" stroke-miterlimit="22.9256" x1="210.03" y1="99.38" x2="70.85" y2= "150.71" />
  <line fill="none" stroke="#0071BC" stroke-width="0.99" stroke-linejoin="round" stroke-miterlimit="22.9256" x1="210.03" y1="99.38" x2="70.85" y2= "150.71" />
  <line fill="none" stroke="#A1132E" stroke-width="0.99" stroke-linejoin="round" stroke-miterlimit="22.9256" x1="210.03" y1="99.38" x2="70.85" y2= "129.77" />
  <line fill="none" stroke="#ECB01F" stroke-width="0.99" stroke-linejoin="round" stroke-miterlimit="22.9256" x1="210.03" y1="99.38" x2="70.85" y2= "129.77" />
  <line fill="none" stroke="#D85218" stroke-width="0.99" stroke-linejoin="round" stroke-miterlimit="22.9256" x1="210.03" y1="99.38" x2="70.85" y2= "141.51" />
  <line fill="none" stroke="#76AB2F" stroke-width="0.99" stroke-linejoin="round" stroke-miterlimit="22.9256" x1="210.03" y1="99.38" x2="70.85" y2= "141.51" />
  <line fill="none" stroke="#7D2E8D" stroke-width="0.99" stroke-linejoin="round" stroke-miterlimit="22.9256" x1="210.03" y1="99.38" x2="70.85" y2= "102.46" />
  <line fill="none" stroke="#A1132E" stroke-width="0.99" stroke-linejoin="round" stroke-miterlimit="22.9256" x1="210.03" y1="99.38" x2="70.85" y2= "102.46" />
  <line fill="none" stroke="#4CBDED" stroke-width="0.99" stroke-linejoin="round" stroke-miterlimit="22.9256" x1="210.03" y1="99.38" x2="70.85" y2= "76.02" />
  <line fill="none" stroke="#D85218" stroke-width="0.99" stroke-linejoin="round" stroke-miterlimit="22.9256" x1="210.03" y1="99.38" x2="70.85" y2= "76.02" />
  <line fill="none" stroke="#0071BC" stroke-width="0.99" stroke-linejoin="round" stroke-miterlimit="22.9256" x1="210.03" y1="99.38" x2="70.85" y2= "69.14" />
  <line fill="none" stroke="#7D2E8D" stroke-width="0.99" stroke-linejoin="round" stroke-miterlimit="22.9256" x1="210.03" y1="99.38" x2="70.85" y2= "69.14" />
  <line fill="none" stroke="#ECB01F" stroke-width="0.99" stroke-linejoin="round" stroke-miterlimit="22.9256" x1="210.03" y1="99.38" x2="70.85" y2= "51.54" />
  <line fill="none" stroke="#4CBDED" stroke-width="0.99" stroke-linejoin="round" stroke-miterlimit="22.9256" x1="210.03" y1="99.38" x2="70.85" y2= "51.54" />
  <line fill="none" stroke="#76AB2F" stroke-width="0.99" stroke-linejoin="round" stroke-miterlimit="22.9256" x1="210.03" y1="99.38" x2="91.84" y2= "40.88" />
  <line fill="none" stroke="#0071BC" stroke-width="0.99" stroke-linejoin="round" stroke-miterlimit="22.9256" x1="210.03" y1="99.38" x2="91.84" y2= "40.88" />
  <line fill="none" stroke="#A1132E" stroke-width="0.99" stroke-linejoin="round" stroke-miterlimit="22.9256" x1="210.03" y1="99.38" x2="99.49" y2= "40.88" />
  <line fill="none" stroke="#ECB01F" stroke-width="0.99" stroke-linejoin="round" stroke-miterlimit="22.9256" x1="210.03" y1="99.38" x2="99.49" y2= "40.88" />
  <line fill="none" stroke="#D85218" stroke-width="0.99" stroke-linejoin="round" stroke-miterlimit="22.9256" x1="210.03" y1="99.38" x2="130.05" y2= "40.88" />
  <line fill="none" stroke="#76AB2F" stroke-width="0.99" stroke-linejoin="round" stroke-miterlimit="22.9256" x1="210.03" y1="99.38" x2="130.05" y2= "40.88" />
  <line fill="none" stroke="#7D2E8D" stroke-width="0.99" stroke-linejoin="round" stroke-miterlimit="22.9256" x1="210.03" y1="99.38" x2="230.63" y2= "40.88" />
  <line fill="none" stroke="#76AB2F" stroke-width="0.99" stroke-linejoin="round" stroke-miterlimit="22.9256" x1="70.85" y1="100.99" x2="112.65" y2= "40.88" />
  <line fill="none" stroke="#A1132E" stroke-width="0.99" stroke-linejoin="round" stroke-miterlimit="22.9256" x1="210.03" y1="99.38" x2="230.63" y2= "40.88" />
  <line fill="none" stroke="#ECB01F" stroke-width="0.99" stroke-linejoin="round" stroke-miterlimit="22.9256" x1="70.85" y1="100.99" x2="112.65" y2= "40.88" />
  <line fill="none" stroke="#4CBDED" stroke-width="0.99" stroke-linejoin="round" stroke-miterlimit="22.9256" x1="210.03" y1="99.38" x2="198.13" y2= "40.88" />
  <line fill="none" stroke="#D85218" stroke-width="0.99" stroke-linejoin="round" stroke-miterlimit="22.9256" x1="210.03" y1="99.38" x2="198.13" y2= "40.88" />
  <line fill="none" stroke="#0071BC" stroke-width="0.99" stroke-linejoin="round" stroke-miterlimit="22.9256" x1="210.03" y1="99.38" x2="178.5" y2= "40.88" />
  <line fill="none" stroke="#7D2E8D" stroke-width="0.99" stroke-linejoin="round" stroke-miterlimit="22.9256" x1="210.03" y1="99.38" x2="178.5" y2= "40.88" />
  <g transform="matrix(2.64845E-14 -1 1 2.64845E-14 -389.354 808.599)">
   <text x="400" y="404.94"  fill="#262626" font-weight="normal" font-size="21.77px" font-family="Arial">Y</text>
   <text x="414.52" y="404.94"  fill="#262626" font-weight="normal" font-size="21.77px" font-family="Arial">,</text>
   <text x="420.35" y="404.94"  fill="#262626" font-weight="normal" font-size="21.77px" font-family="Arial"> m</text>
  </g>
 </g>
</svg>
