<svg xmlns="http://www.w3.org/2000/svg" fill-rule="evenodd" clip-rule="evenodd" image-rendering="optimizeQuality" shape-rendering="geometricPrecision" text-rendering="geometricPrecision" viewBox="0 0 12215.33 12665.51"><defs/><path fill="none" stroke="#000" stroke-miterlimit="22.926" stroke-width="50" d="M4 3401.55c1941.06-314.98 3932.86-478.72 5962.9-478.72 2128.24 0 4214.45 179.96 6244.23 525.49"/><path fill-rule="nonzero" d="M5798.1 8066.64l-11.51-22.19 337.5-175 23.02 44.38-337.5 175-11.51-22.19zm143.8 4132.62V7979.14h50v4220.12h-50zm172.5 0l-.19 7.57-.57 7.47-.94 7.36-1.3 7.25-1.65 7.13-1.99 6.98-2.32 6.85-2.64 6.69-2.96 6.53-3.25 6.36-3.56 6.18-3.84 5.98-4.11 5.79-4.38 5.57-4.64 5.36-4.88 5.13-5.13 4.89-5.35 4.64-5.58 4.39-5.78 4.12-5.98 3.85-6.18 3.55-6.36 3.27-6.53 2.96-6.7 2.65-6.85 2.33-7 1.99-7.13 1.65-7.26 1.3-7.38.95-7.48.57-7.59.19-7.58-.19-7.49-.57-7.38-.95-7.26-1.3-7.13-1.65-7-1.99-6.85-2.33-6.7-2.65-6.53-2.96-6.36-3.27-6.18-3.55-5.98-3.85-5.78-4.12-5.58-4.39-5.35-4.64-5.13-4.89-4.88-5.13-4.64-5.36-4.38-5.57-4.11-5.79-3.84-5.98-3.56-6.18-3.25-6.36-2.96-6.53-2.64-6.69-2.32-6.85-1.99-6.98-1.65-7.13-1.3-7.25-.94-7.36-.57-7.47-.19-7.57.19-7.57.57-7.47.94-7.36 1.3-7.25 1.65-7.13 1.99-6.98 2.32-6.85 2.64-6.69 2.96-6.53 3.25-6.36 3.56-6.18 3.84-5.98 4.11-5.79 4.38-5.57 4.64-5.36 4.88-5.13 5.13-4.89 5.35-4.64 5.58-4.39 5.78-4.12 5.98-3.85 6.18-3.55 6.36-3.27 6.53-2.96 6.7-2.65 6.85-2.33 7-1.99 7.13-1.65 7.26-1.3 7.38-.95 7.48-.57 7.59-.19 7.58.19 7.49.57 7.38.95 7.26 1.3 7.13 1.65 7 1.99 6.85 2.33 6.7 2.65 6.53 2.96 6.36 3.27 6.18 3.55 5.98 3.85 5.78 4.12 5.58 4.39 5.35 4.64 5.13 4.89 4.88 5.13 4.64 5.36 4.38 5.57 4.11 5.79 3.84 5.98 3.56 6.18 3.25 6.36 2.96 6.53 2.64 6.69 2.32 6.85 1.99 6.98 1.65 7.13 1.3 7.25.94 7.36.57 7.47.19 7.57zM5966.9 2922.83l150 350-9.37-4.54-9.38-4.25-9.37-3.95-9.38-3.67-9.37-3.37-9.38-3.07-9.37-2.78-9.38-2.49-9.37-2.2-9.38-1.91-9.37-1.61-9.38-1.32-9.37-1.02-9.38-.73-9.37-.44-9.38-.15-9.38.15-9.37.44-9.38.73-9.37 1.02-9.38 1.32-9.37 1.61-9.38 1.91-9.37 2.2-9.38 2.49-9.37 2.78-9.38 3.07-9.37 3.37-9.38 3.67-9.37 3.95-9.38 4.25-9.37 4.54 150-350zm-25 4130.27V3098.73h50V7053.1h-50zm-143.8 87.5l-11.51-22.19 337.5-175 23.02 44.38-337.5 175-11.51-22.19z"/><path fill-rule="nonzero" d="M7521.64 7005.26l3.7 17.39-264.45 56.28-7.41-34.79 264.46-56.27 3.7 17.39zM9280.56 203.04l-1881.54 6833-19.28-5.3 1881.54-6833 3.28-5.07 16 10.37zm-16-10.37l24.39-20.1-8.39 30.47-16-10.37zM5960.54 2915.11L9264.56 192.67l12.72 15.44-3304.02 2722.44-8.27 2.1-4.45-17.54zm4.45 17.54l-20.81-4.06 16.36-13.48 4.45 17.54zm2424.23 472.59l-2424.23-472.59 3.82-19.64 2424.23 472.59-3.82 19.64zM7127.35 8022.64l-1150.81 4179.27-19.28-5.3 1150.81-4179.27 19.28 5.3zm122.62-30.78l3.7 17.39-264.45 56.28-7.41-34.79 264.46-56.27 3.7 17.39z"/><path fill="none" stroke="#000" stroke-dasharray="20.000000 60.000000" stroke-miterlimit="22.926" stroke-width="20" d="M33.58 2922.83H12151.5"/><text x="79.38" y="3878.34" font-family="Arial" font-size="423.33"><tspan rotate="351">S</tspan></text><text x="381.45" y="3830.2" font-family="Arial" font-size="423.33"><tspan rotate="351">u</tspan></text><text x="637.53" y="3791.73" font-family="Arial" font-size="423.33"><tspan rotate="352">r</tspan></text><text x="800.5" y="3769.44" font-family="Arial" font-size="423.33"><tspan rotate="352">f</tspan></text><text x="940.24" y="3749.57" font-family="Arial" font-size="423.33"><tspan rotate="352">a</tspan></text><text x="1196.87" y="3714.91" font-family="Arial" font-size="423.33"><tspan rotate="352">c</tspan></text><text x="1430.05" y="3684.25" font-family="Arial" font-size="423.33"><tspan rotate="353">e</tspan></text><text x="1663.74" y="3655.47" font-family="Arial" font-size="423.33"><tspan rotate="354"></tspan></text><text x="1780.79" y="3643.94" font-family="Arial" font-size="423.33"><tspan rotate="354">o</tspan></text><text x="2038.15" y="3615.16" font-family="Arial" font-size="423.33"><tspan rotate="354">f</tspan></text><text x="2155.13" y="3602.92" font-family="Arial" font-size="423.33"><tspan rotate="354"></tspan></text><text x="2272.12" y="3590.75" font-family="Arial" font-size="423.33"><tspan rotate="354">t</tspan></text><text x="2412.55" y="3576.63" font-family="Arial" font-size="423.33"><tspan rotate="355">h</tspan></text><text x="2670.39" y="3552.48" font-family="Arial" font-size="423.33"><tspan rotate="355">e</tspan></text><text x="2904.93" y="3531.92" font-family="Arial" font-size="423.33"><tspan rotate="355"></tspan></text><text x="3022.14" y="3522.22" font-family="Arial" font-size="423.33"><tspan rotate="355">E</tspan></text><text x="3327.11" y="3498.59" font-family="Arial" font-size="423.33"><tspan rotate="356">a</tspan></text><text x="3585.49" y="3481.42" font-family="Arial" font-size="423.33"><tspan rotate="357">r</tspan></text><text x="3749.74" y="3472.54" font-family="Arial" font-size="423.33"><tspan rotate="357">t</tspan></text><text x="3890.63" y="3464.17" font-family="Arial" font-size="423.33"><tspan rotate="357">h</tspan></text><path fill-rule="nonzero" d="M180.36 2838.59v-303.1h43.14v124.88h168.01v-124.88h43.13v303.1h-43.13v-142.66H223.5v142.66h-43.14zm331.33-109.85c0-40.57 12.11-70.63 36.4-90.17 20.21-16.23 44.96-24.34 74.09-24.34 32.32 0 58.8 9.87 79.38 29.63 20.51 19.68 30.81 46.99 30.81 81.77 0 28.22-4.55 50.38-13.62 66.53-9.09 16.16-22.34 28.72-39.73 37.68-17.34 8.96-36.33 13.41-56.84 13.41-32.99 0-59.64-9.81-80-29.5-20.35-19.68-30.49-48.04-30.49-85.01zm40.87.07c0 28.08 6.58 49.1 19.74 63 13.25 13.97 29.82 20.96 49.88 20.96 19.83 0 36.33-6.99 49.56-21.03 13.18-14.04 19.76-35.42 19.76-64.13 0-27.1-6.66-47.63-19.91-61.53-13.23-13.97-29.74-20.95-49.41-20.95-20.06 0-36.63 6.91-49.88 20.81-13.16 13.9-19.74 34.86-19.74 62.87zm251.42 109.78v-219.71h35.87v33.66c9.16-15.6 17.64-25.9 25.43-30.84 7.79-5.01 16.35-7.47 25.65-7.47 13.47 0 27.17 3.95 41.1 11.78l-14.23 34.36c-9.69-5.08-19.37-7.62-29.06-7.62-8.71 0-16.49 2.47-23.38 7.34-6.89 4.86-11.81 11.64-14.76 20.32-4.46 13.19-6.66 27.65-6.66 43.39v114.79h-39.96zm176.89-260.77v-42.33h39.95v42.33h-39.95zm0 260.77v-219.71h39.95v219.71h-39.95zm104.99 0v-30.34l149.25-160.58c-16.95.84-31.86 1.27-44.73 1.27h-95.43v-30.06h192.07v24.48l-127.75 139.28-24.44 25.89c17.94-1.41 34.74-2.11 50.4-2.11h109.05v32.17h-208.42zm258.39-109.85c0-40.57 12.11-70.63 36.41-90.17 20.21-16.23 44.95-24.34 74.08-24.34 32.32 0 58.8 9.87 79.38 29.63 20.51 19.68 30.81 46.99 30.81 81.77 0 28.22-4.55 50.38-13.62 66.53-9.09 16.16-22.33 28.72-39.73 37.68-17.33 8.96-36.33 13.41-56.84 13.41-32.99 0-59.63-9.81-79.99-29.5-20.36-19.68-30.5-48.04-30.5-85.01zm40.87.07c0 28.08 6.59 49.1 19.75 63 13.24 13.97 29.81 20.96 49.87 20.96 19.83 0 36.33-6.99 49.57-21.03 13.17-14.04 19.75-35.42 19.75-64.13 0-27.1-6.66-47.63-19.9-61.53-13.24-13.97-29.75-20.95-49.42-20.95-20.06 0-36.63 6.91-49.87 20.81-13.16 13.9-19.75 34.86-19.75 62.87zm251.89 109.78v-219.71h35.87v31.19c17.25-23.92 42.22-35.84 74.84-35.84 14.24 0 27.25 2.39 39.13 7.12 11.89 4.73 20.81 11.01 26.71 18.7 5.91 7.69 10.07 16.86 12.42 27.44 1.44 6.92 2.19 18.98 2.19 36.2v134.9h-39.96V2705.1c0-15.17-1.51-26.53-4.62-34.01-3.1-7.48-8.62-13.47-16.5-17.99-7.86-4.44-17.17-6.7-27.77-6.7-16.94 0-31.55 5.01-43.89 15.1-12.33 10.02-18.47 29.14-18.47 57.22v119.87h-39.95zm378.69 84.24v-303.95h36.33v28.86c8.55-11.15 18.23-19.55 29.06-25.12 10.74-5.57 23.83-8.39 39.2-8.39 20.12 0 37.83 4.79 53.2 14.46 15.36 9.59 26.93 23.21 34.81 40.71 7.79 17.57 11.73 36.76 11.73 57.71 0 22.37-4.31 42.55-12.95 60.54-8.62 17.92-21.18 31.68-37.68 41.27-16.42 9.53-33.75 14.33-51.91 14.33-13.32 0-25.28-2.61-35.8-7.83-10.59-5.23-19.22-11.79-26.03-19.76v107.17h-39.96zm36.33-192.75c0 28.15 6.12 48.96 18.31 62.44 12.26 13.47 27.09 20.25 44.5 20.25 17.71 0 32.84-6.99 45.4-20.96 12.64-13.97 18.92-35.56 18.92-64.84 0-27.94-6.13-48.82-18.47-62.72-12.33-13.9-27-20.82-44.11-20.82-16.95 0-31.93 7.41-44.95 22.16-13.1 14.82-19.6 36.26-19.6 64.49zm240.51 108.51v-303.1h39.96v303.1h-39.96zm280.94-27.52c-14.83 11.79-29.14 20.04-42.83 24.91-13.7 4.87-28.38 7.27-44.12 7.27-25.88 0-45.78-5.86-59.71-17.64-13.92-11.71-20.89-26.74-20.89-45.02 0-10.72 2.65-20.53 7.88-29.42 5.3-8.89 12.18-15.94 20.66-21.31 8.54-5.36 18.08-9.45 28.75-12.2 7.87-1.91 19.75-3.74 35.57-5.58 32.24-3.52 56.07-7.83 71.28-12.77.15-5.08.24-8.32.24-9.66 0-15.1-3.79-25.75-11.36-31.96-10.21-8.4-25.42-12.56-45.55-12.56-18.85 0-32.77 3.1-41.7 9.24-9 6.14-15.59 17-19.9 32.67l-39.06-5.08c3.57-15.59 9.39-28.22 17.56-37.82 8.18-9.6 19.99-16.93 35.42-22.15 15.36-5.15 33.29-7.76 53.58-7.76 20.13 0 36.55 2.18 49.19 6.63 12.56 4.44 21.87 9.95 27.78 16.65 5.9 6.7 10.06 15.17 12.48 25.4 1.29 6.35 1.96 17.78 1.96 34.22v49.39c0 34.5.84 56.3 2.5 65.54 1.59 9.24 4.93 18.06 9.76 26.53h-41.76c-4.01-7.83-6.59-17-7.73-27.52zm-3.17-82.55c-14.53 5.51-36.33 10.16-65.39 13.97-16.5 2.19-28.15 4.66-34.96 7.41-6.81 2.75-12.04 6.78-15.75 12-3.7 5.29-5.6 11.14-5.6 17.64 0 9.8 4.01 18.06 12.11 24.62 8.1 6.56 19.91 9.88 35.42 9.88 15.36 0 29.06-3.11 41.09-9.39 11.96-6.21 20.82-14.74 26.42-25.54 4.31-8.39 6.42-20.74 6.42-37.04l.24-13.55zm127.01 110.07v-219.71h35.86v31.19c17.26-23.92 42.23-35.84 74.85-35.84 14.23 0 27.24 2.39 39.13 7.12 11.88 4.73 20.81 11.01 26.71 18.7 5.91 7.69 10.07 16.86 12.42 27.44 1.43 6.92 2.19 18.98 2.19 36.2v134.9h-39.96V2705.1c0-15.17-1.51-26.53-4.62-34.01-3.1-7.48-8.63-13.47-16.5-17.99-7.86-4.44-17.17-6.7-27.77-6.7-16.95 0-31.55 5.01-43.89 15.1-12.33 10.02-18.47 29.14-18.47 57.22v119.87h-39.95zm438.5-71.12l41.31 5.08c-6.43 22.37-18.46 39.79-36.01 52.14-17.56 12.35-39.97 18.56-67.29 18.56-34.35 0-61.6-9.88-81.73-29.64-20.12-19.68-30.19-47.41-30.19-83.04 0-36.83 10.14-65.47 30.5-85.79 20.36-20.39 46.77-30.55 79.23-30.55 31.41 0 57.07 9.94 76.96 29.91 19.91 19.97 29.9 48.05 29.9 84.24 0 2.19-.08 5.51-.23 9.88h-175.5c1.51 24.06 8.79 42.55 21.95 55.32 13.09 12.77 29.51 19.19 49.11 19.19 14.61 0 27.09-3.6 37.39-10.8 10.36-7.19 18.54-18.7 24.6-34.5zm-130.77-59.69h131.22c-1.74-18.48-6.81-32.31-15.06-41.56-12.64-14.32-29.13-21.52-49.34-21.52-18.31 0-33.68 5.72-46.17 17.15-12.41 11.43-19.29 26.74-20.65 45.93z"/><text x="5408" y="2575.01" font-family="Arial" font-size="846.67" font-style="italic" font-weight="bold">C</text><text x="6281.24" y="12654.5" font-family="Arial" font-size="846.67" font-style="italic" font-weight="bold">O</text><text x="6531.24" y="11979.04" font-family="Arial" font-size="846.67" font-style="italic" font-weight="bold" transform="rotate(-90 3752.515 10685.285)">R + h</text><text x="9047.97" y="2580.49" font-family="Arial" font-size="846.67" font-style="italic" font-weight="bold">A</text><text x="9706.46" y="2580.49" font-family="Arial" font-size="846.67">´</text><circle cx="5966.9" cy="2922.83" r="59.53" stroke="#000" stroke-miterlimit="22.926" stroke-width="20"/><circle cx="8497.76" cy="3008.16" r="59.53" stroke="#000" stroke-miterlimit="22.926" stroke-width="20"/><circle cx="8391.13" cy="3395.42" r="59.53" stroke="#000" stroke-miterlimit="22.926" stroke-width="20"/><circle cx="9270.92" cy="200.39" r="59.53" stroke="#000" stroke-miterlimit="22.926" stroke-width="20"/><text x="9535.52" y="606.22" font-family="Arial" font-size="846.67" font-style="italic" font-weight="bold">U</text><text x="7312.1" y="4105.24" font-family="Arial" font-size="846.67" font-style="italic" font-weight="bold">L</text><path fill-rule="nonzero" d="M6736.33 9390.71l261.49-70.48-4.14 6.15-3.94 6.17-3.72 6.2-3.52 6.24-3.31 6.26-3.11 6.29-2.9 6.32-2.7 6.35-2.48 6.38-2.29 6.41-2.07 6.44-1.87 6.47-1.66 6.5-1.46 6.53-1.25 6.55-1.04 6.59-.84 6.61-.63 6.65-.43 6.67-.22 6.71-.01 6.73.19 6.76.4 6.79.61 6.83.81 6.85 1.02 6.88 1.22 6.91 1.43 6.94 1.64 6.96 1.85 7 2.04 7.03 2.26 7.06-231.37-140.75zm1029.54 195.92l-4.62 19.46-35.11-8.35-34.15-8.13-33.27-7.93-32.42-7.73-31.62-7.53-30.89-7.34-30.18-7.15-29.55-6.98-28.95-6.78-28.39-6.63-27.92-6.47-27.45-6.29-27.07-6.15-26.73-5.99-26.42-5.85-26.17-5.72-25.98-5.57-25.84-5.45-25.74-5.33-25.69-5.21-25.69-5.1-25.76-4.99-25.85-4.88-26.01-4.79-26.21-4.7-26.47-4.61-26.78-4.54-27.12-4.46-27.53-4.38-27.99-4.32-28.5-4.27-29.04-4.21 2.82-19.8 29.14 4.23 28.58 4.27 28.09 4.34 27.63 4.4 27.22 4.48 26.86 4.54 26.57 4.63 26.31 4.72 26.09 4.81 25.95 4.9 25.84 5.01 25.79 5.12 25.77 5.21 25.82 5.35 25.9 5.47 26.04 5.59 26.25 5.72 26.48 5.87 26.77 6.01 27.11 6.15 27.51 6.31 27.94 6.47 28.43 6.63 28.97 6.8 29.57 6.98 30.2 7.15 30.89 7.34 31.64 7.53 32.42 7.73 33.27 7.93 34.15 8.13 35.09 8.35zM5830.87 9325.64v20l-41.13.07-40.32.21-39.57.35-38.88.49-38.24.63-37.64.77-37.1.91-36.6 1.04-36.16 1.18-35.77 1.33-35.43 1.46-35.13 1.61-34.9 1.74-34.71 1.88-34.57 2.02-34.49 2.16-34.44 2.3-34.47 2.43-34.52 2.58-34.65 2.72-34.81 2.86-35.02 2.98-35.3 3.13-35.62 3.28-35.98 3.4-36.42 3.55-36.87 3.68-37.4 3.83-37.97 3.96-38.61 4.09-39.26 4.24-40 4.38-2.18-19.88 40.02-4.38 39.3-4.24 38.63-4.11 38.01-3.96 37.44-3.83 36.93-3.68 36.46-3.55 36.04-3.42 35.68-3.28 35.36-3.13 35.1-3 34.87-2.86 34.73-2.72 34.6-2.58 34.53-2.45 34.54-2.3 34.57-2.16 34.65-2.02 34.79-1.9 34.98-1.74 35.23-1.61 35.51-1.46 35.85-1.33 36.24-1.2 36.7-1.04 37.18-.91 37.72-.77 38.3-.63 38.96-.49 39.65-.35 40.4-.21 41.19-.07zm125.1 10l-248.92 106.68 3.23-6.67 3.02-6.66 2.81-6.67 2.61-6.67 2.39-6.67 2.19-6.66 1.98-6.67 1.77-6.67 1.57-6.67 1.35-6.66 1.15-6.67.93-6.67.73-6.67.52-6.66.32-6.67.1-6.67-.1-6.67-.32-6.67-.52-6.66-.73-6.67-.93-6.67-1.15-6.67-1.35-6.66-1.57-6.67-1.77-6.67-1.98-6.67-2.19-6.66-2.39-6.67-2.61-6.67-2.81-6.67-3.02-6.66-3.23-6.67 248.92 106.68z"/><text x="7330.57" y="9341.76" font-family="Arial" font-size="846.67" font-style="italic" font-weight="bold">b</text><circle cx="8521.26" cy="2922.83" r="59.53" stroke="#000" stroke-miterlimit="22.926" stroke-width="20"/><text x="8931.51" y="4098.62" font-family="Arial" font-size="846.67" font-style="italic" font-weight="bold">A</text><path fill-rule="nonzero" d="M8303.6 3459.88l-449.71 271.43-10.34-17.12 449.71-271.43 10.34 17.12zm34.44-15.05l-31.99-15.53 15.43 25.54-167.14-5.37 1.14-35.54 167.14 5.36 15.42 25.54zm0 0l-15.42-25.54 27.4.88-11.98 24.66zm-89.09 142.68l-15.99-7.77 73.09-150.44 31.99 15.53-73.09 150.45-16-7.77zM8571.53 3087.99l416.22 542.68-15.86 12.18-416.22-542.68 15.86-12.18zm-18.77-32.56l-11.89 33.52 23.67-18.16 13.22 166.7-35.45 2.81-13.22-166.7 23.67-18.17zm0 0l-23.67 18.17-2.17-27.33 25.84 9.16zm151.69 72.7l-5.95 16.76-157.63-55.94 11.89-33.52 157.63 55.95-5.94 16.75zM8604.12 2852.47l317.03-222.7 11.5 16.36-317.03 222.7-11.5-16.36zm-33.32 17.4l32.99 13.28-17.16-24.41 167.11-6.22 1.32 35.53-167.1 6.23-17.16-24.41zm0 0l17.16 24.41-27.4 1.02 10.24-25.43zm78.99-148.51l16.49 6.64-62.49 155.15-32.99-13.28 62.5-155.15 16.49 6.64z"/></svg>